<svg xmlns="http://www.w3.org/2000/svg" width="800" height="400" viewBox="0 0 211.667 105.833"><path d="M154.025 88.266c-.374-.374-.149-.906.485-1.147l.661-.251V53.517h-1.27c-.698 0-1.413-.143-1.587-.317-.19-.19-.318-1.11-.318-2.293v-1.975l-1.592-1.658a14.09 14.09 0 0 1-2.536-3.648c-.943-1.983-.95-1.99-2.179-2.173-4.055-.604-8.034-3.176-10.263-6.635-1.666-2.585-2.803-7.213-1.86-7.574.583-.224.909.153 1.098 1.27.745 4.415 3.217 8.018 6.817 9.937 1.433.764 3.785 1.561 4.628 1.57.241.001.331-.664.331-2.456 0-4.098 1.198-7.317 3.773-10.134 7.741-8.47 21.645-5.144 24.909 5.96.267.91.422 2.445.422 4.183v2.746l1.257-.183c5.595-.815 10.467-5.65 11.103-11.023.179-1.51.692-2.08 1.314-1.46.367.368.377.634.08 2.207-1.15 6.092-6.451 11.085-12.43 11.704l-1.718.178-.814 1.634c-.949 1.906-2.782 4.364-3.704 4.968-.592.388-.644.59-.644 2.5 0 1.362-.116 2.175-.338 2.358-.185.154-.93.318-1.653.363l-1.316.083-.054 17.04c-.029 9.372-.115 17.2-.19 17.397-.176.46-2.108.473-2.487.017-.355-.428-.076-.892.614-1.023.522-.099.53-.337.597-16.818l.068-16.717-1.39-.08-1.392-.08-.08-1.257-.081-1.257h-2.588l-.08 1.257-.081 1.257-1.455.132-1.456.133-.056 17.047c-.03 9.377-.116 17.205-.19 17.397-.138.36-2.03.498-2.355.172zm4.321-37.66l.133-1.19H163.506l.132 1.19.132 1.191 2.315.077 2.315.076v-3.488l1.828-1.93c1.005-1.062 2.137-2.543 2.517-3.291 2.678-5.287 1.487-11.607-2.952-15.664-7.546-6.897-19.544-2.88-21.675 7.256-.918 4.366.485 8.599 3.998 12.06l1.468 1.447v3.61l2.315-.076 2.315-.077zm-6.019-8.906a.58.58 0 0 1-.33-.499c0-.2-.239-.493-.53-.648-.291-.156-.53-.467-.53-.692 0-.474 1.404-1.954 1.853-1.954.393 0 1.852 1.453 1.852 1.845 0 .286-1.662 2.146-1.879 2.103a3.973 3.973 0 0 1-.436-.155zm15.875-.748c-.473-.503-.86-1.046-.86-1.206 0-.383 1.46-1.84 1.845-1.84.164 0 .711.402 1.216.892.92.894 1.023 1.755.21 1.755-.208 0-.454.208-.548.463-.162.44-.585.852-.87.85-.074 0-.52-.412-.993-.914zm-8.156-.784c-.196-.778.248-1.468.946-1.468.641 0 1.116.645 1.013 1.375-.067.47-.281.629-.938.692-.724.07-.876-.019-1.021-.599z" fill="#fbf2e9"/><path d="M154.113 87.81c0-.203.298-.444.663-.535l.664-.167-.068-16.73-.068-16.729-1.317-.083c-.724-.045-1.468-.209-1.653-.363-.22-.182-.338-.98-.338-2.276v-1.995l-1.592-1.658a13.567 13.567 0 0 1-2.56-3.726c-.531-1.138-.979-2.092-.993-2.12-.014-.027-.89-.23-1.947-.45-5.336-1.113-9.674-5.204-11.01-10.386-.52-2.02-.537-3.004-.052-3.004.242 0 .478.587.693 1.726a13.736 13.736 0 0 0 5.854 8.838c1.549 1.035 4.442 2.135 5.616 2.137.544 0 .564-.096.482-2.382-.105-2.966.261-4.779 1.444-7.144 4.42-8.836 15.926-10.84 23.147-4.033 3.164 2.982 4.553 6.464 4.417 11.065l-.083 2.81 1.309-.175c1.799-.24 3.918-1.019 5.46-2.009 2.914-1.87 5.545-5.81 5.996-8.98.145-1.02.325-1.456.6-1.456.968 0-.191 4.405-1.824 6.93-2.313 3.574-7.09 6.431-10.753 6.431-1.057 0-1.115.044-1.466 1.109-.503 1.522-2.129 3.973-3.557 5.361l-1.19 1.156v1.976c0 1.278-.118 2.074-.337 2.255-.185.154-.93.318-1.653.363l-1.316.083-.138 17.198c-.075 9.46-.164 17.228-.198 17.264-.034.037-.53.067-1.104.067-1.32 0-1.63-.456-.563-.828l.816-.284-.068-16.708-.068-16.709-1.456-.132-1.455-.132-.08-1.257-.081-1.257h-2.588l-.08 1.257-.081 1.257-1.455.132-1.456.132-.137 17.198c-.075 9.46-.164 17.228-.198 17.264-.034.037-.538.066-1.12.066-.728 0-1.058-.115-1.058-.368zm4.233-37.203l.133-1.19H163.506l.132 1.19.132 1.19 2.315.077 2.315.076v-3.488l1.828-1.93c1.005-1.062 2.137-2.543 2.517-3.291 2.678-5.287 1.487-11.607-2.952-15.664-7.546-6.897-19.544-2.88-21.675 7.256-.918 4.366.485 8.599 3.998 12.06l1.468 1.447v3.61l2.315-.076 2.315-.077zm-6.019-8.907a.58.58 0 0 1-.33-.499c0-.2-.239-.493-.53-.648-.291-.156-.53-.467-.53-.692 0-.474 1.404-1.954 1.853-1.954.393 0 1.852 1.453 1.852 1.845 0 .286-1.662 2.146-1.879 2.103a3.973 3.973 0 0 1-.436-.155zm15.875-.748c-.473-.503-.86-1.046-.86-1.206 0-.383 1.46-1.84 1.845-1.84.164 0 .711.402 1.216.892.92.894 1.023 1.755.21 1.755-.208 0-.454.208-.548.463-.162.44-.585.852-.87.85-.074 0-.52-.412-.993-.914zm-7.909-.798c-.092-.24.007-.61.219-.822.53-.53 1.323-.187 1.222.527-.1.703-1.198.928-1.44.295z" fill="#e8f3f5"/><path d="M154.113 87.81c0-.203.298-.444.661-.535l.662-.166V53.28l-1.39-.08-1.388-.08-.139-2.12-.138-2.12-1.621-1.646a13.656 13.656 0 0 1-2.633-3.737l-1.012-2.09-2.04-.403c-5.433-1.07-9.827-5.162-11.18-10.412-.521-2.02-.538-3.004-.053-3.004.242 0 .478.587.693 1.726a13.734 13.734 0 0 0 5.862 8.843c1.684 1.125 4.78 2.235 5.818 2.085.582-.083.6-.168.534-2.468-.08-2.825.367-4.751 1.688-7.265 1.647-3.134 4.913-5.859 8.264-6.894 2.152-.664 6.195-.715 8.278-.103 3.772 1.108 7.138 3.913 8.785 7.32 1.25 2.588 1.568 4.099 1.482 7.054-.054 1.856.015 2.528.268 2.612.652.218 3.612-.524 5.322-1.334 3.55-1.68 6.81-5.998 7.34-9.724.146-1.018.326-1.455.6-1.455.533 0 .407 1.608-.294 3.754-1.68 5.143-6.571 9.053-11.992 9.586l-1.567.154-1.016 2.016c-.564 1.118-1.723 2.787-2.6 3.745l-1.584 1.728v1.825c0 1.066-.132 1.956-.317 2.142-.175.175-.89.318-1.588.318h-1.27v17.043c0 9.375-.072 17.233-.16 17.463-.108.28-.494.418-1.175.418-1.295 0-1.592-.458-.537-.826l.814-.284V53.28l-1.39-.08-1.388-.08-.08-1.257-.081-1.256h-3.117l-.081 1.256-.08 1.257-1.39.08-1.389.08v17.03c0 9.367-.072 17.219-.16 17.449-.211.55-2.221.595-2.221.05zm4.037-35.682c.242-.185.469-.798.513-1.389l.08-1.058h4.498l.08 1.058c.108 1.434.583 1.72 2.862 1.72 2.446 0 2.747-.266 2.747-2.434v-1.603l1.684-1.785c5.239-5.554 5.144-13.585-.223-18.917-2.773-2.755-6.177-4.012-10.227-3.778-2.757.16-4.759.863-6.99 2.454-6.821 4.868-7.53 14.31-1.536 20.484l1.681 1.731v1.77c0 1.168.113 1.814.33 1.903.703.283 4.078.166 4.5-.156zm-6.352-11.48c-.328-.354-.596-.708-.596-.787 0-.078.358-.5.794-.937l.794-.793.794.793c.864.865 1.013 1.364.406 1.364-.213 0-.515.238-.67.53-.364.678-.78.632-1.522-.17zm16.518-.11l-.746-.783.812-.812.812-.812.794.793c.436.437.794.857.794.935 0 .217-1.323 1.489-1.534 1.475-.102-.007-.522-.365-.932-.796zm-8.023-.384c-.092-.24.007-.61.219-.822.53-.53 1.323-.187 1.222.527-.1.703-1.198.928-1.44.295z" fill="#fae8d6"/><path d="M154.113 87.81c0-.203.298-.444.661-.535l.662-.166V53.28l-1.39-.08-1.388-.08-.139-2.12-.138-2.12-1.621-1.646c-1.125-1.143-1.933-2.298-2.64-3.772-.95-1.983-1.09-2.144-2.077-2.398-4.613-1.187-7.351-2.749-9.304-5.306-1.746-2.287-2.999-5.297-2.999-7.204 0-1.177.255-.703.658 1.223 1.08 5.156 5.355 9.41 10.587 10.534.873.188 1.656.44 1.74.563.083.122.101-.955.04-2.393-.141-3.25.218-5.041 1.535-7.664 1.69-3.365 4.906-6.122 8.401-7.202 2.152-.664 6.195-.715 8.278-.103 3.772 1.108 7.138 3.913 8.785 7.32 1.23 2.545 1.564 4.079 1.51 6.94-.024 1.31-.033 2.544-.02 2.74.032.454 2.142.194 4.223-.522 4.348-1.496 7.983-5.718 8.85-10.28.167-.876.395-1.593.507-1.593.547 0-.394 3.658-1.456 5.66-2.07 3.899-6.662 7.042-10.417 7.13l-1.795.042-1.12 2.262c-.694 1.402-1.727 2.924-2.72 4.009l-1.603 1.748v1.825c0 1.066-.132 1.956-.317 2.142-.175.175-.89.317-1.588.317h-1.27v17.044c0 9.375-.072 17.233-.16 17.463-.108.28-.494.418-1.175.418-1.295 0-1.592-.458-.537-.826l.814-.284V53.28l-1.39-.08-1.388-.08-.08-1.257-.081-1.256h-3.117l-.081 1.256-.08 1.257-1.39.08-1.389.08v17.03c0 9.367-.072 17.219-.16 17.449-.211.55-2.221.595-2.221.05zm4.037-35.682c.242-.185.469-.798.513-1.389l.08-1.058h4.498l.08 1.058c.108 1.434.583 1.72 2.862 1.72 2.446 0 2.747-.266 2.747-2.434v-1.603l1.684-1.785c5.239-5.554 5.144-13.585-.223-18.917-2.773-2.755-6.177-4.012-10.227-3.778-2.757.16-4.759.863-6.99 2.454-6.821 4.868-7.53 14.31-1.536 20.484l1.681 1.731v1.77c0 1.168.113 1.814.33 1.903.703.283 4.078.166 4.5-.156zm-6.352-11.48c-.328-.354-.596-.708-.596-.787 0-.078.358-.5.794-.937l.794-.793.794.793c.864.865 1.013 1.364.406 1.364-.213 0-.515.238-.67.53-.364.678-.78.632-1.522-.17zm16.518-.11l-.746-.783.812-.812.812-.812.794.793c.436.437.794.857.794.935 0 .217-1.323 1.489-1.534 1.475-.102-.007-.522-.365-.932-.796zm-7.803-.713c.05-.255.265-.463.48-.463.213 0 .429.208.478.463.062.325-.08.463-.479.463-.398 0-.541-.138-.479-.463z" fill="#eae7e4"/><path d="M154.245 53.253l-1.587-.133-.139-2.12-.138-2.12-1.59-1.615c-6.393-6.492-5.133-17.032 2.641-22.102 2.268-1.478 4.43-2.073 7.54-2.073 4.236 0 7.35 1.266 10.203 4.147 2.707 2.733 4.096 6.11 4.101 9.97.006 3.895-1.258 7.074-4.005 10.072l-1.548 1.69v1.844c0 1.282-.116 1.942-.38 2.161-.404.336-5.978.468-6.486.154-.152-.094-.277-.7-.277-1.346v-1.175h-3.175v1.199c0 .726-.13 1.24-.331 1.304-.623.197-3.241.275-4.829.143zm3.905-1.125c.242-.185.469-.798.513-1.389l.08-1.058h4.498l.08 1.058c.108 1.434.583 1.72 2.862 1.72 2.446 0 2.747-.266 2.747-2.434v-1.603l1.684-1.785c5.239-5.554 5.144-13.585-.223-18.917-2.773-2.755-6.177-4.012-10.227-3.778-2.757.16-4.759.863-6.99 2.454-6.821 4.868-7.53 14.31-1.536 20.484l1.681 1.731v1.77c0 1.168.113 1.814.33 1.903.703.283 4.078.166 4.5-.156zm-6.352-11.48c-.328-.354-.596-.708-.596-.787 0-.078.358-.5.794-.937l.794-.793.794.793c.864.865 1.013 1.364.406 1.364-.213 0-.515.238-.67.53-.364.678-.78.632-1.522-.17zm16.518-.11l-.746-.783.812-.812.812-.812.794.793c.436.437.794.857.794.935 0 .217-1.323 1.489-1.534 1.475-.102-.007-.522-.365-.932-.796zm-7.803-.713c.05-.255.265-.463.48-.463.213 0 .429.208.478.463.062.325-.08.463-.479.463-.398 0-.541-.138-.479-.463zm-15.528.987c-4.07-.815-8-3.817-9.863-7.535-.697-1.392-1.382-3.733-1.382-4.723 0-1.177.255-.703.658 1.223 1.085 5.185 5.414 9.47 10.653 10.543.91.186 1.654.434 1.654.55 0 .244-.256.235-1.72-.058zm31.882-.118c3.714-.802 5.636-1.846 8.043-4.37 1.703-1.784 2.963-4.224 3.417-6.614.167-.876.395-1.593.507-1.593.547 0-.394 3.659-1.456 5.66-2.043 3.85-6.486 6.916-10.385 7.168l-1.846.12z" fill="#d4eaed"/><path d="M154.179 53.062c-.764-.056-1.398-.185-1.408-.286a86.68 86.68 0 0 1-.066-2.061l-.047-1.876-1.676-1.691c-1.211-1.223-1.966-2.301-2.727-3.896-.951-1.992-1.067-2.465-1.204-4.9-.258-4.621.898-7.77 4.014-10.925 2.924-2.962 5.632-4.072 9.927-4.072 4.195 0 6.92 1.084 9.86 3.923 3.153 3.044 4.338 6.25 4.093 11.078-.125 2.471-.226 2.885-1.204 4.905-.722 1.492-1.568 2.718-2.61 3.784l-1.54 1.577-.132 2.117-.133 2.117-1.72.14c-.945.077-2.398.093-3.227.035l-1.508-.105-.08-1.226-.08-1.226h-3.439l-.08 1.257-.081 1.257-1.242.004c-.684.002-1.48.042-1.772.088-.29.047-1.154.039-1.918-.017zm4.456-.899c.128-.2.234-.806.236-1.344l.004-.978 2.117.014 2.117.013.004.965c.007 1.557.213 1.689 2.772 1.766 2.969.09 3.363-.213 3.28-2.523l-.057-1.563 1.697-1.803c3.384-3.598 4.611-7.929 3.538-12.483-1.427-6.054-7.099-10.608-13.211-10.608-5.878 0-10.99 3.588-12.999 9.122-1.813 4.995-.655 10.024 3.268 14.19l1.653 1.756v1.74c0 1.355.099 1.796.445 1.99.696.39 4.86.184 5.136-.254zm-6.58-11.727l-.604-.637.67-.67.669-.67.65.65.649.65-.662.661c-.363.364-.685.66-.715.657-.03-.003-.326-.29-.658-.641zm16.422-.042l-.584-.633.65-.65.651-.651.67.67.67.67-.604.636c-.72.759-.712.76-1.453-.042zm-7.964-.57c.05-.254.265-.462.48-.462.213 0 .429.208.478.463.062.325-.08.463-.479.463-.398 0-.541-.138-.479-.463zm-15.528.988c-4.07-.815-8-3.817-9.863-7.536-.697-1.39-1.382-3.732-1.382-4.722 0-1.177.255-.703.658 1.223 1.085 5.185 5.414 9.47 10.653 10.543.91.186 1.654.434 1.654.55 0 .244-.256.235-1.72-.058zm31.882-.118c3.714-.802 5.636-1.846 8.043-4.37 1.703-1.784 2.963-4.224 3.417-6.614.167-.876.395-1.593.507-1.593.547 0-.394 3.659-1.456 5.66-2.043 3.85-6.486 6.916-10.385 7.168l-1.846.12z" fill="#fae2cb"/><path d="M154.179 53.062c-.764-.056-1.398-.185-1.408-.286a86.68 86.68 0 0 1-.066-2.061l-.047-1.876-1.676-1.691c-1.211-1.223-1.966-2.301-2.727-3.896-.951-1.992-1.067-2.465-1.204-4.9-.258-4.621.898-7.77 4.014-10.925 2.924-2.962 5.632-4.072 9.927-4.072 4.195 0 6.92 1.084 9.86 3.923 3.153 3.044 4.338 6.25 4.093 11.078-.125 2.471-.226 2.885-1.204 4.905-.722 1.492-1.568 2.718-2.61 3.784l-1.54 1.577-.132 2.117-.133 2.117-1.72.14c-.945.077-2.398.093-3.227.035l-1.508-.105-.08-1.226-.08-1.226h-3.439l-.08 1.257-.081 1.257-1.242.004c-.684.002-1.48.042-1.772.088-.29.047-1.154.039-1.918-.017zm4.456-.899c.128-.2.234-.806.236-1.344l.004-.978 2.117.014 2.117.013.004.965c.007 1.557.213 1.689 2.772 1.766 2.969.09 3.363-.213 3.28-2.523l-.057-1.563 1.697-1.803c3.384-3.598 4.611-7.929 3.538-12.483-1.427-6.054-7.099-10.608-13.211-10.608-5.878 0-10.99 3.588-12.999 9.122-1.813 4.995-.655 10.024 3.268 14.19l1.653 1.756v1.74c0 1.355.099 1.796.445 1.99.696.39 4.86.184 5.136-.254zm-6.58-11.727l-.604-.637.67-.67.669-.67.65.65.649.65-.662.661c-.363.364-.685.66-.715.657-.03-.003-.326-.29-.658-.641zm16.422-.042l-.584-.633.65-.65.651-.651.67.67.67.67-.604.636c-.72.759-.712.76-1.453-.042z" fill="#cae5e9"/><g><path d="M98.62 88.983c-1.328-.48-2.175-1.444-2.572-2.928-.294-1.101-.358-1.159-1.381-1.234l-1.073-.079v-5.291l1.124-.082c1.328-.096 1.64-.844.352-.844-1.549 0-1.609-.105-1.609-2.797 0-2.699.183-3.024 1.703-3.024 1.212 0 .814-.754-.446-.845l-1.124-.081v-5.292l1.124-.081c1.328-.096 1.64-.845.352-.845-1.549 0-1.609-.104-1.609-2.797 0-2.699.183-3.024 1.703-3.024 1.212 0 .814-.753-.446-.844l-1.124-.082v-5.291l1.124-.082c1.328-.096 1.64-.845.352-.845-1.212 0-1.609-.256-1.609-1.042 0-.397-.06-.783-.136-.857-.355-.356-3.395.427-5.323 1.37-3.695 1.809-6.072 4.955-6.984 9.246-.35 1.645-.521 2.013-.969 2.08-.803.118-.922-.549-.48-2.68 1.243-5.985 6.421-10.793 12.411-11.524 1.26-.154 1.354-.216 1.432-.958.099-.953.681-1.455 1.687-1.455 1.265 0 .926-.75-.381-.845l-1.124-.081v-5.292l1.124-.081c1.328-.097 1.64-.845.352-.845-1.549 0-1.609-.105-1.609-2.797 0-2.687.186-3.024 1.669-3.024.54 0 .671-.161.808-.992.223-1.359 1.033-2.593 2.076-3.162.78-.426 1.8-.485 9.735-.56 10.876-.103 11.371-.055 12.761 1.242.86.8 1.075 1.204 1.19 2.225.132 1.171.188 1.247.917 1.247 1.606 0 1.8.31 1.8 2.867 0 1.45-.118 2.438-.317 2.636-.175.175-.78.318-1.345.318-1.433 0-1.15.623.36.794l1.17.132v5.292l-1.17.132c-1.381.156-1.827.794-.554.794 1.23 0 1.857.43 1.857 1.277 0 .687.11.755 1.918 1.178 5.818 1.363 10.304 5.968 11.342 11.643.29 1.588.278 1.845-.103 2.226-.576.576-1.251.045-1.251-.983 0-1.28-1.015-4.08-2.068-5.703-2.016-3.108-5.148-5.188-8.718-5.791-1.103-.187-1.12-.178-1.12.574 0 1.031-.438 1.4-1.663 1.4-1.433 0-1.15.622.36.793l1.17.133v5.291l-1.17.132c-1.381.157-1.827.794-.554.794 1.667 0 1.857.293 1.857 2.867 0 1.451-.12 2.438-.318 2.637-.175.174-.78.317-1.345.317-1.433 0-1.15.623.36.794l1.17.132v5.292l-1.17.132c-1.381.156-1.827.794-.554.794 1.667 0 1.857.292 1.857 2.867 0 1.45-.12 2.438-.318 2.636-.175.175-.78.318-1.345.318-1.433 0-1.15.623.36.793l1.17.133v5.291l-1.17.133c-1.108.125-1.184.188-1.455 1.206-.344 1.295-.822 1.976-1.86 2.651-.73.475-1.424.512-10.452.57-7.882.051-9.865-.007-10.727-.32zm20.926-2.073l.638-.742V32.252l-.638-.742-.638-.743-9.555-.075c-10.427-.083-10.965-.017-11.622 1.423-.45.987-.427 53.251.023 54.24.624 1.37 1.093 1.425 11.54 1.359l9.614-.061zM99.19 49.995c-.617-.681-.565-2.23.095-2.827 1.26-1.14 3.171-.261 3.171 1.459 0 .61-.182 1.14-.484 1.414-.654.592-2.229.566-2.782-.046zm16.514-.213c-.627-.799-.668-1.132-.247-2.056.423-.927 1.65-1.316 2.601-.823 1.842.952 1.175 3.576-.909 3.576-.653 0-1.045-.19-1.445-.697zm-7.417-.481c-.7-.844.334-2.171 1.158-1.486.498.413.544 1.11.102 1.553-.424.424-.872.4-1.26-.067zM95.843 82.097c0-.882-.103-1.191-.397-1.191-.294 0-.397.309-.397 1.19 0 .882.103 1.191.397 1.191.294 0 .397-.309.397-1.19zm26.987 0c0-1.015-.078-1.191-.53-1.191-.45 0-.528.176-.528 1.19 0 1.015.078 1.191.529 1.191.45 0 .529-.176.529-1.19zm-26.987-6.483c0-1-.097-1.323-.397-1.323-.3 0-.397.324-.397 1.323 0 1 .097 1.323.397 1.323.3 0 .397-.323.397-1.323zm26.987-.02c0-1.135-.071-1.328-.463-1.254-.308.059-.491.383-.548.97-.106 1.11.086 1.627.606 1.627.31 0 .405-.313.405-1.342zm-26.987-6.462c0-.882-.103-1.19-.397-1.19-.294 0-.397.308-.397 1.19 0 .882.103 1.19.397 1.19.294 0 .397-.308.397-1.19zm26.987-.02c0-1.009-.077-1.195-.463-1.122-.338.064-.485.392-.544 1.21-.072.983-.014 1.123.463 1.123.47 0 .544-.166.544-1.21zM95.843 62.65c0-1-.097-1.323-.397-1.323-.3 0-.397.323-.397 1.323s.097 1.323.397 1.323c.3 0 .397-.324.397-1.323zm26.987-.02c0-1.135-.071-1.329-.463-1.254-.308.058-.491.382-.548.97-.106 1.11.086 1.627.606 1.627.31 0 .405-.314.405-1.343zm-26.987-6.463c0-.882-.103-1.19-.397-1.19-.294 0-.397.308-.397 1.19 0 .882.103 1.191.397 1.191.294 0 .397-.309.397-1.19zm26.987 0c0-1.014-.078-1.19-.53-1.19-.45 0-.528.176-.528 1.19 0 1.015.078 1.191.529 1.191.45 0 .529-.176.529-1.19zm-26.987-6.482c0-1-.097-1.323-.397-1.323-.3 0-.397.324-.397 1.323 0 1 .097 1.323.397 1.323.3 0 .397-.323.397-1.323zm26.987-.02c0-1.135-.071-1.328-.463-1.254-.308.058-.491.383-.548.97-.106 1.11.086 1.627.606 1.627.31 0 .405-.313.405-1.342zm-26.987-6.462c0-.882-.103-1.19-.397-1.19-.294 0-.397.308-.397 1.19 0 .882.103 1.19.397 1.19.294 0 .397-.308.397-1.19zm26.987 0c0-1.014-.078-1.19-.53-1.19-.45 0-.528.176-.528 1.19s.078 1.19.529 1.19c.45 0 .529-.176.529-1.19zM95.843 36.72c0-.999-.097-1.322-.397-1.322-.3 0-.397.323-.397 1.322 0 1 .097 1.323.397 1.323.3 0 .397-.323.397-1.323zm26.987-.019c0-1.135-.071-1.329-.463-1.255-.308.059-.491.383-.548.971-.106 1.11.086 1.626.606 1.626.31 0 .405-.313.405-1.342zM57.774 75.634c-.266-.165-.25-.245.07-.368.226-.087.476-.052.556.077.208.337-.225.539-.626.29zm0-12.7c-.266-.165-.25-.245.07-.368.226-.087.476-.052.556.077.208.337-.225.539-.626.29zm0-12.7c-.266-.165-.25-.245.07-.368.226-.087.476-.052.556.077.208.337-.225.539-.626.29zm0-12.7c-.266-.165-.25-.245.07-.368.226-.087.476-.052.556.077.208.337-.225.539-.626.29zm-.296-11.661c0-.146.179-.265.397-.265.218 0 .397.12.397.265 0 .145-.179.264-.397.264-.218 0-.397-.119-.397-.264zm0-12.7c0-.146.179-.265.397-.265.218 0 .397.12.397.265 0 .145-.179.264-.397.264-.218 0-.397-.119-.397-.264z" fill="#f4f3f2"/><path d="M98.2 88.491c-1.128-.596-1.537-1.231-2.2-3.418-.104-.342-.422-.463-1.217-.463h-1.077l.076-2.447.076-2.448 1.059-.132c.837-.105 1.058-.243 1.058-.661 0-.42-.22-.557-1.058-.662l-1.059-.132-.077-2.36c-.085-2.605.012-2.789 1.485-2.796.758-.003.866-.085.793-.599-.07-.496-.274-.609-1.218-.677l-1.135-.082.076-2.432.076-2.431 1.059-.133c.837-.104 1.058-.242 1.058-.661 0-.419-.22-.557-1.058-.661l-1.059-.133-.077-2.359c-.085-2.605.013-2.79 1.485-2.796.758-.004.866-.085.793-.6-.07-.495-.274-.608-1.218-.677l-1.135-.081.076-2.432.076-2.432 1.059-.132c.837-.105 1.058-.243 1.058-.662 0-.418-.22-.556-1.057-.661-.926-.116-1.074-.23-1.199-.926-.136-.764-.188-.79-1.386-.715-2.791.177-5.797 1.71-8.074 4.118-1.945 2.057-2.668 3.639-3.611 7.908-.172.774-.697.948-1.164.385-.204-.245-.17-.898.123-2.315 1.266-6.148 6.352-10.805 12.664-11.597 1.228-.154 1.33-.222 1.413-.958.108-.95.417-1.182 1.582-1.188.758-.003.867-.085.793-.599-.07-.496-.274-.609-1.218-.677l-1.134-.082.075-2.432.076-2.431 1.059-.133c.838-.104 1.058-.242 1.058-.661 0-.42-.22-.557-1.058-.662l-1.059-.132-.077-2.359c-.085-2.6.015-2.79 1.466-2.796.756-.004.86-.09.86-.715 0-1.112.963-2.821 1.913-3.396.812-.491 1.446-.528 10.316-.602 5.916-.05 9.83.023 10.464.194 1.463.394 2.438 1.527 2.66 3.092.16 1.12.271 1.3.843 1.364 1.96.22 1.877.094 1.794 2.778l-.076 2.44-1.19.132c-1.117.124-1.228.23-1.099 1.043.022.138.546.286 1.164.331l1.125.082V45.584l-.972.081c-1.647.137-2.087 1.374-.49 1.374 1.218 0 1.594.257 1.594 1.087 0 .42.09.767.199.77.109.003.998.174 1.975.381 5.565 1.18 9.936 5.552 11.216 11.22.47 2.082.38 2.682-.4 2.682-.565 0-.687-.283-.946-2.185-.094-.693-.636-2.19-1.205-3.327-1.682-3.36-4.463-5.66-8.175-6.762-2.202-.653-2.615-.587-2.713.434-.078.807-.156.868-1.274.992-1.116.124-1.227.23-1.098 1.043.022.137.546.286 1.164.33l1.125.082v4.763l-.972.08c-1.71.143-2.068 1.37-.402 1.379 1.435.007 1.536.2 1.45 2.796l-.076 2.36-1.19.132c-1.117.124-1.228.23-1.099 1.043.022.137.546.286 1.164.33l1.125.082v4.762l-.972.081c-1.71.142-2.068 1.37-.402 1.378 1.435.007 1.536.201 1.45 2.797l-.076 2.359-1.19.132c-1.117.124-1.228.23-1.099 1.043.022.137.546.286 1.164.33l1.125.082V84.477l-.925.089c-1.21.114-1.49.378-1.682 1.582-.19 1.187-1.278 2.33-2.57 2.7-.515.148-4.917.26-10.192.26-9.216 0-9.295-.005-10.453-.617zm21.477-1.438l.772-.864V32.23l-.772-.863-.772-.864-9.348-.084c-10.375-.092-11.038-.017-11.874 1.355-.502.823-.516 1.546-.517 27.383 0 23.56.046 26.627.413 27.338.778 1.504 1.14 1.55 11.713 1.483l9.613-.06zm-3.236-36.941c-.774-.386-1.24-1.604-.85-2.227.154-.247.59-.625.97-.84.63-.358.752-.345 1.428.158 1.74 1.293.37 3.865-1.548 2.909zm1.047-1.505c-.052-.157-.208-.285-.347-.285-.138 0-.294.128-.346.285-.052.156.104.284.346.284.243 0 .399-.128.347-.284zM99.42 49.855c-.615-.45-.652-1.887-.063-2.476.235-.235.797-.428 1.247-.428 1.051 0 1.676.634 1.676 1.7 0 .97-.636 1.563-1.676 1.563-.381 0-.914-.162-1.184-.36zm1.449-1.228a.265.265 0 0 0-.265-.265.265.265 0 0 0-.265.265.265.265 0 0 0 .53 0zm7.739.607c-.408-.15-.436-1.04-.041-1.284.16-.099.483.013.718.249.375.375.38.473.04.793-.212.2-.535.31-.717.242zM96.055 82.163c-.07-1.21-.157-1.4-.676-1.474-.556-.079-.595.012-.595 1.39 0 1.403.032 1.473.675 1.473.649 0 .673-.056.596-1.39zm26.987 0c-.074-1.284-.13-1.39-.741-1.39-.577 0-.672.131-.745 1.02-.114 1.382.076 1.759.883 1.759.658 0 .68-.051.603-1.39zM95.975 75.61c0-1.276-.065-1.452-.53-1.452-.435 0-.543.204-.611 1.155-.104 1.444.083 1.952.677 1.838.375-.073.464-.368.464-1.541zm27.067.066c.062-1.07-.015-1.428-.334-1.55-.636-.245-1.2.398-1.2 1.366 0 1.282.25 1.748.893 1.657.478-.069.573-.286.641-1.473zm-26.987-6.479c-.07-1.21-.157-1.4-.676-1.474-.556-.079-.595.013-.595 1.39 0 1.403.032 1.473.675 1.473.649 0 .673-.055.596-1.389zm26.987 0c-.074-1.284-.13-1.389-.741-1.389-.577 0-.672.13-.745 1.02-.114 1.381.076 1.758.883 1.758.658 0 .68-.051.603-1.389zm-27.067-6.552c0-1.275-.065-1.452-.53-1.452-.435 0-.543.204-.611 1.155-.104 1.445.083 1.952.677 1.838.375-.072.464-.368.464-1.541zm27.067.067c.062-1.07-.015-1.429-.334-1.551-.636-.244-1.2.399-1.2 1.366 0 1.282.25 1.749.893 1.657.478-.068.573-.286.641-1.472zm-26.987-6.48c-.07-1.21-.157-1.4-.676-1.473-.556-.08-.595.012-.595 1.389 0 1.403.032 1.474.675 1.474.649 0 .673-.056.596-1.39zm26.987 0c-.074-1.283-.13-1.389-.741-1.389-.577 0-.672.131-.745 1.02-.114 1.381.076 1.759.883 1.759.658 0 .68-.052.603-1.39zm-27.067-6.552c0-1.275-.065-1.451-.53-1.451-.435 0-.543.204-.611 1.155-.104 1.444.083 1.952.677 1.837.375-.072.464-.368.464-1.54zm27.067.067c.062-1.07-.015-1.428-.334-1.55-.636-.245-1.2.398-1.2 1.366 0 1.281.25 1.748.893 1.656.478-.068.573-.285.641-1.472zm-26.987-6.48c-.07-1.21-.157-1.399-.676-1.473-.556-.079-.595.013-.595 1.39 0 1.403.032 1.473.675 1.473.649 0 .673-.055.596-1.39zm26.987 0c-.074-1.283-.13-1.388-.741-1.388-.577 0-.672.13-.745 1.02-.114 1.38.076 1.758.883 1.758.658 0 .68-.051.603-1.39zm-27.067-6.551c0-1.275-.065-1.452-.53-1.452-.435 0-.543.204-.611 1.155-.104 1.444.083 1.952.677 1.838.375-.072.464-.368.464-1.541zm27.067.067c.062-1.07-.015-1.43-.334-1.551-.636-.244-1.2.398-1.2 1.366 0 1.282.25 1.748.893 1.657.478-.068.573-.286.641-1.472zm-65.35 38.65c.192-.077.42-.068.508.02.088.088-.068.15-.347.14-.308-.013-.371-.076-.16-.16zm0-12.7c.192-.077.42-.068.508.02.088.088-.068.15-.347.14-.308-.013-.371-.076-.16-.16zm0-12.7c.192-.077.42-.068.508.02.088.088-.068.15-.347.14-.308-.013-.371-.076-.16-.16zm0-12.7c.192-.077.42-.068.508.02.088.088-.068.15-.347.14-.308-.013-.371-.076-.16-.16zm-.214-11.461c0-.146.186-.265.412-.265.227 0 .34.119.25.265-.09.145-.276.264-.413.264-.137 0-.25-.119-.25-.264zm0-12.7c0-.146.186-.265.412-.265.227 0 .34.119.25.265-.09.145-.276.264-.413.264-.137 0-.25-.119-.25-.264z" fill="#f8f2eb"/><path d="M98.2 88.491c-1.128-.596-1.537-1.231-2.2-3.418-.104-.342-.422-.463-1.217-.463h-1.077l.076-2.447.076-2.448 1.059-.132c.837-.105 1.058-.243 1.058-.661 0-.42-.22-.557-1.058-.662l-1.059-.132-.077-2.36c-.085-2.605.012-2.789 1.485-2.796.758-.003.866-.085.793-.599-.07-.496-.274-.609-1.218-.677l-1.135-.082.076-2.432.076-2.431 1.059-.133c.837-.104 1.058-.242 1.058-.661 0-.419-.22-.557-1.058-.661l-1.059-.133-.077-2.359c-.085-2.605.013-2.79 1.485-2.796.758-.004.866-.085.793-.6-.07-.495-.274-.608-1.218-.677l-1.135-.081.076-2.432.076-2.432 1.059-.132c.837-.105 1.058-.243 1.058-.662 0-.418-.22-.557-1.049-.661-.935-.118-1.067-.227-1.226-1.006-.097-.48-.239-.935-.314-1.01-.076-.075-.774-.02-1.552.125-5.804 1.073-10 5.176-11.173 10.927-.323 1.584-.753 2.213-1.02 1.492-.246-.668.595-3.81 1.526-5.699 1.72-3.488 5.222-6.309 9.121-7.346.8-.213 1.828-.389 2.285-.39.872-.004 1.153-.358 1.153-1.452 0-.679.443-.933 1.628-.933.668 0 .777-.092.705-.595-.07-.496-.274-.609-1.218-.677l-1.134-.082.075-2.432.076-2.431 1.059-.133c.838-.104 1.058-.242 1.058-.661 0-.42-.22-.557-1.058-.662l-1.059-.132-.077-2.359c-.085-2.6.015-2.79 1.466-2.796.756-.004.86-.09.86-.715 0-1.112.963-2.821 1.913-3.396.812-.491 1.446-.528 10.316-.602 5.916-.05 9.83.023 10.464.194 1.463.394 2.438 1.527 2.66 3.092.16 1.12.271 1.3.843 1.364 1.96.22 1.877.094 1.794 2.778l-.076 2.44-1.19.132c-1.117.124-1.228.23-1.099 1.043.022.138.546.286 1.164.331l1.125.082V45.584l-.972.081c-1.647.137-2.087 1.374-.49 1.374 1.21 0 1.594.258 1.594 1.071 0 .921.14 1.01 2.27 1.457 3.83.801 7.602 3.677 9.46 7.214 1.106 2.103 1.993 5.48 1.555 5.918-.437.438-.849-.008-.855-.925-.008-1.222-1.103-4.142-2.094-5.581-2.265-3.293-6.13-5.728-9.234-5.818-.911-.027-.975.026-1.1.898-.127.876-.198.933-1.325 1.058-1.116.124-1.227.23-1.098 1.043.022.137.546.286 1.164.33l1.125.082v4.763l-.972.08c-1.71.143-2.068 1.37-.402 1.379 1.435.007 1.536.2 1.45 2.796l-.076 2.36-1.19.132c-1.117.124-1.228.23-1.099 1.043.022.137.546.286 1.164.33l1.125.082v4.762l-.972.081c-1.71.142-2.068 1.37-.402 1.378 1.435.007 1.536.201 1.45 2.797l-.076 2.359-1.19.132c-1.117.124-1.228.23-1.099 1.043.022.137.546.286 1.164.33l1.125.082V84.477l-.925.089c-1.21.114-1.49.378-1.682 1.582-.19 1.187-1.278 2.33-2.57 2.7-.515.148-4.917.26-10.192.26-9.216 0-9.295-.005-10.453-.617zm21.477-1.438l.772-.864V32.23l-.772-.863-.772-.864-9.348-.084c-10.375-.092-11.038-.017-11.874 1.355-.502.823-.516 1.546-.517 27.383 0 23.56.046 26.627.413 27.338.778 1.504 1.14 1.55 11.713 1.483l9.613-.06zm-3.236-36.941c-.774-.386-1.24-1.604-.85-2.227.154-.247.59-.625.97-.84.63-.358.752-.345 1.428.158 1.74 1.293.37 3.865-1.548 2.909zm1.047-1.505c-.052-.157-.208-.285-.347-.285-.138 0-.294.128-.346.285-.052.156.104.284.346.284.243 0 .399-.128.347-.284zM99.42 49.855c-.615-.45-.652-1.887-.063-2.476.235-.235.797-.428 1.247-.428 1.051 0 1.676.634 1.676 1.7 0 .97-.636 1.563-1.676 1.563-.381 0-.914-.162-1.184-.36zm1.449-1.228a.265.265 0 0 0-.265-.265.265.265 0 0 0-.265.265.265.265 0 0 0 .53 0zm7.739.607c-.408-.15-.436-1.04-.041-1.284.16-.099.483.013.718.249.375.375.38.473.04.793-.212.2-.535.31-.717.242zM96.055 82.163c-.07-1.21-.157-1.4-.676-1.474-.556-.079-.595.012-.595 1.39 0 1.403.032 1.473.675 1.473.649 0 .673-.056.596-1.39zm26.987 0c-.074-1.284-.13-1.39-.741-1.39-.577 0-.672.131-.745 1.02-.114 1.382.076 1.759.883 1.759.658 0 .68-.051.603-1.39zM95.975 75.61c0-1.276-.065-1.452-.53-1.452-.435 0-.543.204-.611 1.155-.104 1.444.083 1.952.677 1.838.375-.073.464-.368.464-1.541zm27.067.066c.062-1.07-.015-1.428-.334-1.55-.636-.245-1.2.398-1.2 1.366 0 1.282.25 1.748.893 1.657.478-.069.573-.286.641-1.473zm-26.987-6.479c-.07-1.21-.157-1.4-.676-1.474-.556-.079-.595.013-.595 1.39 0 1.403.032 1.473.675 1.473.649 0 .673-.055.596-1.389zm26.987 0c-.074-1.284-.13-1.389-.741-1.389-.577 0-.672.13-.745 1.02-.114 1.381.076 1.758.883 1.758.658 0 .68-.051.603-1.389zm-27.067-6.552c0-1.275-.065-1.452-.53-1.452-.435 0-.543.204-.611 1.155-.104 1.445.083 1.952.677 1.838.375-.072.464-.368.464-1.541zm27.067.067c.062-1.07-.015-1.429-.334-1.551-.636-.244-1.2.399-1.2 1.366 0 1.282.25 1.749.893 1.657.478-.068.573-.286.641-1.472zm-26.987-6.48c-.07-1.21-.157-1.4-.676-1.473-.556-.08-.595.012-.595 1.389 0 1.403.032 1.474.675 1.474.649 0 .673-.056.596-1.39zm26.987 0c-.074-1.283-.13-1.389-.741-1.389-.577 0-.672.131-.745 1.02-.114 1.381.076 1.759.883 1.759.658 0 .68-.052.603-1.39zm-27.067-6.552c0-1.275-.065-1.451-.53-1.451-.435 0-.543.204-.611 1.155-.104 1.444.083 1.952.677 1.837.375-.072.464-.368.464-1.54zm27.067.067c.062-1.07-.015-1.428-.334-1.55-.636-.245-1.2.398-1.2 1.366 0 1.281.25 1.748.893 1.656.478-.068.573-.285.641-1.472zm-26.987-6.48c-.07-1.21-.157-1.399-.676-1.473-.556-.079-.595.013-.595 1.39 0 1.403.032 1.473.675 1.473.649 0 .673-.055.596-1.39zm26.987 0c-.074-1.283-.13-1.388-.741-1.388-.577 0-.672.13-.745 1.02-.114 1.38.076 1.758.883 1.758.658 0 .68-.051.603-1.39zm-27.067-6.551c0-1.275-.065-1.452-.53-1.452-.435 0-.543.204-.611 1.155-.104 1.444.083 1.952.677 1.838.375-.072.464-.368.464-1.541zm27.067.067c.062-1.07-.015-1.43-.334-1.551-.636-.244-1.2.398-1.2 1.366 0 1.282.25 1.748.893 1.657.478-.068.573-.286.641-1.472z" fill="#f2eeeb"/><path d="M98.022 88.32c-.85-.523-1.474-1.57-1.768-2.967-.13-.62-.295-.723-1.273-.794l-1.123-.081-.078-2.076c-.089-2.386.132-2.819 1.442-2.819 1.738 0 1.382-1.491-.392-1.639l-.972-.08V73.364l.972-.08c1.905-.16 2.012-1.554.13-1.692l-1.102-.08-.078-2.075c-.089-2.387.132-2.82 1.442-2.82 1.738 0 1.382-1.49-.392-1.638l-.972-.081V60.4l.972-.081c1.905-.159 2.012-1.554.13-1.691l-1.102-.08-.078-2.076c-.089-2.387.132-2.82 1.442-2.82 1.738 0 1.382-1.49-.39-1.638-.847-.07-.99-.183-1.114-.875-.135-.756-.198-.79-1.324-.72-1.602.098-4.146.965-5.672 1.933-2.963 1.88-5.325 5.376-6.052 8.958-.331 1.632-.759 2.277-1.028 1.548-.246-.665.593-3.807 1.517-5.683 2.041-4.14 6.289-7.124 10.972-7.707 1.426-.177 1.466-.205 1.595-1.107.12-.847.215-.933 1.104-1.007 1.905-.158 2.012-1.554.13-1.69l-1.102-.08-.077-2.077c-.09-2.386.131-2.819 1.44-2.819 1.74 0 1.383-1.49-.39-1.639l-.973-.08v-4.498l.925-.088c1.214-.115 1.589-.46 1.59-1.466 0-.455.241-1.222.535-1.703.991-1.626 1.292-1.665 12.42-1.581l10.02.075.707.662c.936.875 1.261 1.503 1.438 2.778.14 1.014.19 1.062 1.201 1.144.58.047 1.144.226 1.253.397.238.374.272 3.402.045 3.993-.093.245-.47.419-.904.419-1.145 0-1.58.263-1.58.954 0 .557.12.633 1.005.633 1.416 0 1.64.346 1.64 2.534 0 2.12-.178 2.404-1.589 2.538-.786.075-.925.186-.925.75 0 .58.13.671 1.055.746 1.137.093 1.449.372 1.455 1.304.002.327.093.597.202.6.11.002 1.003.175 1.987.383 3.926.832 7.672 3.672 9.545 7.237 1.106 2.103 1.993 5.48 1.555 5.918-.437.438-.85-.008-.855-.925-.008-1.222-1.104-4.142-2.094-5.581-2.233-3.246-5.584-5.4-9.167-5.89-1.126-.155-1.13-.152-1.216.738-.07.729-.207.907-.747.967-1.575.177-1.852.324-1.852.99 0 .583.112.656 1.006.656 1.416 0 1.64.345 1.64 2.534 0 2.119-.178 2.404-1.589 2.538-.786.074-.925.186-.925.749 0 .589.124.67 1.124.742 1.33.097 1.46.384 1.338 2.97-.075 1.605-.122 1.716-.742 1.786-1.575.176-1.852.324-1.852.99 0 .583.112.655 1.006.655 1.416 0 1.64.346 1.64 2.535 0 2.119-.178 2.403-1.589 2.537-.786.075-.925.187-.925.75 0 .588.124.67 1.124.742 1.33.096 1.46.384 1.338 2.97-.075 1.604-.122 1.716-.742 1.785-1.575.177-1.852.324-1.852.99 0 .583.112.656 1.006.656 1.414 0 1.64.347 1.64 2.514 0 2.126-.233 2.513-1.516 2.513-.892 0-.956.072-1.248 1.402-.09.407-.567 1.181-1.06 1.72l-.897.98-10.274.07c-9.89.067-10.305.05-11.136-.462zm21.695-1.042l.864-.772V31.915l-.864-.772-.864-.773H98.965l-.9.9-.9.9v26.869c0 18.614.088 27.061.285 27.494.674 1.48.845 1.502 11.551 1.51l9.852.007.864-.772zm-20.17-37.593c-.66-.66-.68-1.633-.046-2.208 1.013-.916 2.692-.227 2.692 1.104 0 .72-.888 1.633-1.588 1.633-.291 0-.767-.238-1.058-.529zm1.47-.817c.272-.44-.341-.947-.706-.582-.306.305-.115.87.294.87.128 0 .313-.13.411-.288zm15.107.862c-1.265-1.398.528-3.516 1.999-2.36.721.567.795 1.378.195 2.141-.645.819-1.568.911-2.194.22zm1.547-1.103c0-.215-.209-.43-.463-.48-.325-.062-.463.081-.463.48 0 .398.138.541.463.479.254-.05.463-.265.463-.48zm-9.308.105c-.225-.587.48-.977.938-.518.2.2.282.492.183.652-.266.43-.935.35-1.12-.134zM96.091 83.44c.449-.541.245-2.55-.292-2.888-.74-.464-1.28.238-1.28 1.666 0 .686.08 1.326.177 1.423.303.303 1.068.193 1.395-.201zm26.95.06c.449-.448.402-2.459-.066-2.847-.211-.176-.628-.242-.926-.147-.456.145-.542.393-.542 1.565 0 .767.08 1.473.176 1.57.281.28 1.013.205 1.359-.141zm-26.716-7.326c.15-1.564-.136-2.191-.955-2.097-.644.074-.727.203-.801 1.238-.114 1.585.068 1.94.941 1.84.615-.071.743-.225.815-.981zm26.988 0c.149-1.564-.137-2.191-.955-2.097-.679.078-.723.168-.798 1.622l-.08 1.54.873-.085c.78-.075.883-.18.96-.98zM96.09 70.474c.449-.54.245-2.55-.292-2.887-.74-.464-1.28.237-1.28 1.666 0 .685.08 1.325.177 1.422.303.304 1.068.193 1.395-.2zm26.95.06c.449-.448.402-2.459-.066-2.847-.211-.175-.628-.241-.926-.147-.456.145-.542.394-.542 1.566 0 .766.08 1.472.176 1.57.281.28 1.013.204 1.359-.142zm-26.716-7.326c.15-1.563-.136-2.19-.955-2.096-.644.074-.727.202-.801 1.237-.114 1.585.068 1.94.941 1.84.615-.071.743-.224.815-.98zm26.988 0c.149-1.563-.137-2.19-.955-2.096-.679.078-.723.167-.798 1.622l-.08 1.539.873-.084c.78-.075.883-.18.96-.98zM96.09 57.51c.449-.541.245-2.55-.292-2.888-.74-.464-1.28.238-1.28 1.666 0 .685.08 1.326.177 1.423.303.303 1.068.193 1.395-.201zm26.95.06c.449-.449.402-2.46-.066-2.847-.211-.176-.628-.242-.926-.147-.456.144-.542.393-.542 1.565 0 .766.08 1.473.176 1.57.281.28 1.013.205 1.359-.141zm-26.83-6.716c.232-.604.19-2.036-.072-2.449-.123-.195-.508-.314-.856-.264-.54.076-.643.256-.714 1.244-.046.635-.02 1.32.058 1.52.193.504 1.386.465 1.584-.051zm27.102-.61c.149-1.564-.137-2.191-.955-2.097-.679.078-.723.168-.798 1.622l-.08 1.54.873-.085c.78-.075.883-.18.96-.98zM96.09 44.545c.449-.54.245-2.55-.292-2.887-.74-.464-1.28.237-1.28 1.665 0 .686.08 1.326.177 1.423.303.303 1.068.193 1.395-.2zm26.95.06c.449-.448.402-2.459-.066-2.847-.211-.175-.628-.241-.926-.147-.456.145-.542.394-.542 1.565 0 .767.08 1.473.176 1.57.281.28 1.013.205 1.359-.141zm-26.716-7.326c.15-1.563-.136-2.191-.955-2.097-.644.075-.727.203-.801 1.238-.114 1.585.068 1.94.941 1.84.615-.071.743-.225.815-.98zm26.988 0c.149-1.563-.137-2.191-.955-2.097-.679.079-.723.168-.798 1.622l-.08 1.54.873-.084c.78-.075.883-.18.96-.98z" fill="#fae8d6"/><path d="M98.022 88.32c-.85-.523-1.474-1.57-1.768-2.967-.13-.62-.295-.723-1.273-.794l-1.123-.081-.078-2.076c-.089-2.386.132-2.819 1.442-2.819 1.738 0 1.382-1.491-.392-1.639l-.972-.08V73.364l.972-.08c1.905-.16 2.012-1.554.13-1.692l-1.102-.08-.078-2.075c-.089-2.387.132-2.82 1.442-2.82 1.738 0 1.382-1.49-.392-1.638l-.972-.081V60.4l.972-.081c1.905-.159 2.012-1.554.13-1.691l-1.102-.08-.078-2.076c-.089-2.387.132-2.82 1.442-2.82 1.738 0 1.382-1.49-.39-1.638-.843-.07-.99-.184-1.105-.857-.073-.427-.074-1.44 0-2.25l.131-1.472.972-.08c1.905-.16 2.012-1.555.13-1.692l-1.102-.08-.077-2.076c-.09-2.386.131-2.819 1.44-2.819 1.74 0 1.383-1.49-.39-1.639l-.973-.08v-4.498l.925-.088c1.214-.115 1.589-.46 1.59-1.466 0-.455.241-1.222.535-1.703.991-1.626 1.292-1.665 12.42-1.581l10.02.075.707.662c.936.875 1.261 1.503 1.438 2.778.14 1.014.19 1.062 1.201 1.144.58.047 1.144.226 1.253.397.238.374.272 3.402.045 3.993-.093.245-.47.419-.904.419-1.145 0-1.58.263-1.58.954 0 .557.12.633 1.005.633 1.417 0 1.64.346 1.64 2.534 0 2.12-.178 2.404-1.588 2.538-.787.075-.925.186-.925.75 0 .588.123.67 1.123.742 1.33.096 1.46.384 1.338 2.97-.075 1.604-.122 1.716-.742 1.785-1.575.177-1.852.324-1.852.99 0 .583.112.656 1.006.656 1.417 0 1.64.345 1.64 2.534 0 2.119-.178 2.404-1.588 2.537-.787.075-.925.187-.925.75 0 .589.123.67 1.123.742 1.33.097 1.46.384 1.338 2.97-.075 1.605-.122 1.716-.742 1.786-1.575.176-1.852.324-1.852.99 0 .583.112.655 1.006.655 1.417 0 1.64.346 1.64 2.535 0 2.119-.178 2.403-1.588 2.537-.787.075-.925.187-.925.75 0 .588.123.67 1.123.742 1.33.096 1.46.384 1.338 2.97-.075 1.604-.122 1.716-.742 1.785-1.575.177-1.852.324-1.852.99 0 .583.112.656 1.006.656 1.414 0 1.64.347 1.64 2.514 0 2.126-.233 2.513-1.516 2.513-.892 0-.956.072-1.248 1.402-.09.407-.567 1.181-1.06 1.72l-.897.98-10.273.07c-9.89.067-10.306.05-11.137-.462zm21.695-1.042l.864-.772V31.915l-.864-.772-.864-.773H98.965l-.9.9-.9.9v26.869c0 18.614.088 27.061.285 27.494.674 1.48.845 1.502 11.551 1.51l9.852.007.864-.772zm-20.17-37.593c-.66-.66-.68-1.633-.046-2.208 1.013-.916 2.692-.227 2.692 1.104 0 .72-.888 1.633-1.588 1.633-.291 0-.767-.238-1.058-.529zm1.47-.817c.272-.44-.341-.947-.706-.582-.306.305-.115.87.294.87.128 0 .313-.13.411-.288zm15.107.862c-1.265-1.398.528-3.516 1.999-2.36.721.567.795 1.378.195 2.141-.645.819-1.568.911-2.194.22zm1.547-1.103c0-.215-.209-.43-.463-.48-.325-.062-.463.081-.463.48 0 .398.138.541.463.479.254-.05.463-.265.463-.48zm-9.308.105c-.225-.587.48-.977.938-.518.2.2.282.492.183.652-.266.43-.935.35-1.12-.134zM96.091 83.44c.449-.541.245-2.55-.292-2.888-.74-.464-1.28.238-1.28 1.666 0 .686.08 1.326.177 1.423.303.303 1.068.193 1.395-.201zm26.95.06c.449-.448.402-2.459-.066-2.847-.211-.176-.628-.242-.926-.147-.456.145-.542.393-.542 1.565 0 .767.08 1.473.176 1.57.281.28 1.013.205 1.359-.141zm-26.716-7.326c.15-1.564-.136-2.191-.955-2.097-.644.074-.727.203-.801 1.238-.114 1.585.068 1.94.941 1.84.615-.071.743-.225.815-.981zm26.988 0c.149-1.564-.137-2.191-.955-2.097-.679.078-.723.168-.798 1.622l-.08 1.54.873-.085c.78-.075.883-.18.96-.98zM96.09 70.474c.449-.54.245-2.55-.292-2.887-.74-.464-1.28.237-1.28 1.666 0 .685.08 1.325.177 1.422.303.304 1.068.193 1.395-.2zm26.95.06c.449-.448.402-2.459-.066-2.847-.211-.175-.628-.241-.926-.147-.456.145-.542.394-.542 1.566 0 .766.08 1.472.176 1.57.281.28 1.013.204 1.359-.142zm-26.716-7.326c.15-1.563-.136-2.19-.955-2.096-.644.074-.727.202-.801 1.237-.114 1.585.068 1.94.941 1.84.615-.071.743-.224.815-.98zm26.988 0c.149-1.563-.137-2.19-.955-2.096-.679.078-.723.167-.798 1.622l-.08 1.539.873-.084c.78-.075.883-.18.96-.98zM96.09 57.51c.449-.541.245-2.55-.292-2.888-.74-.464-1.28.238-1.28 1.666 0 .685.08 1.326.177 1.423.303.303 1.068.193 1.395-.201zm26.95.06c.449-.449.402-2.46-.066-2.847-.211-.176-.628-.242-.926-.147-.456.144-.542.393-.542 1.565 0 .766.08 1.473.176 1.57.281.28 1.013.205 1.359-.141zm-26.83-6.716c.232-.604.19-2.036-.072-2.449-.123-.195-.508-.314-.856-.264-.54.076-.643.256-.714 1.244-.046.635-.02 1.32.058 1.52.193.504 1.386.465 1.584-.051zm27.102-.61c.149-1.564-.137-2.191-.955-2.097-.679.078-.723.168-.798 1.622l-.08 1.54.873-.085c.78-.075.883-.18.96-.98zM96.09 44.545c.449-.54.245-2.55-.292-2.887-.74-.464-1.28.237-1.28 1.665 0 .686.08 1.326.177 1.423.303.303 1.068.193 1.395-.2zm26.95.06c.449-.448.402-2.459-.066-2.847-.211-.175-.628-.241-.926-.147-.456.145-.542.394-.542 1.565 0 .767.08 1.473.176 1.57.281.28 1.013.205 1.359-.141zm-26.716-7.326c.15-1.563-.136-2.191-.955-2.097-.644.075-.727.203-.801 1.238-.114 1.585.068 1.94.941 1.84.615-.071.743-.225.815-.98zm26.988 0c.149-1.563-.137-2.191-.955-2.097-.679.079-.723.168-.798 1.622l-.08 1.54.873-.084c.78-.075.883-.18.96-.98z" fill="#eae7e4"/><path d="M98.025 88.053c-.473-.289-.863-.556-.867-.595a46.496 46.496 0 0 0-.489-1.525c-.473-1.43-.5-1.457-1.59-1.537l-1.11-.082.077-2.167.077-2.167 1.058-.132c.97-.122 1.058-.199 1.058-.926 0-.728-.088-.805-1.058-.927l-1.058-.132-.077-2.183-.077-2.182.87-.004c1.21-.006 1.59-.318 1.488-1.216-.08-.696-.19-.772-1.223-.847l-1.134-.082.076-2.167.077-2.167 1.058-.132c.97-.121 1.058-.198 1.058-.926s-.088-.805-1.058-.926l-1.058-.132-.077-2.183-.077-2.183.87-.004c1.21-.006 1.59-.317 1.488-1.215-.08-.696-.19-.773-1.223-.847l-1.134-.082.076-2.167.077-2.167 1.058-.133c.97-.12 1.058-.198 1.058-.926 0-.726-.089-.805-1.048-.926-.947-.12-1.068-.222-1.247-1.058-.11-.51-.128-1.492-.042-2.183.149-1.196.196-1.257.982-1.26 1.164-.006 1.544-.327 1.443-1.216-.08-.696-.19-.772-1.223-.847l-1.134-.082.076-2.167.077-2.167 1.058-.132c.97-.121 1.058-.199 1.058-.926 0-.728-.088-.805-1.058-.926l-1.058-.133-.077-2.182-.077-2.183.87-.004c1.181-.006 1.424-.218 1.65-1.442.277-1.51.838-2.456 1.726-2.915.654-.338 2.363-.402 10.847-.402h10.072l.938.86c.725.664.973 1.132 1.09 2.05.2 1.563.467 1.853 1.711 1.853h1.037l-.077 2.183-.077 2.182-1.19.133c-1.118.124-1.191.181-1.191.926 0 .745.073.802 1.19.926l1.191.132V45.32l-1.031.133c-2.01.258-1.985 1.913.032 2.064 1.033.077 1.067.11 1.207 1.19.08.611.063 1.588-.035 2.17-.174 1.024-.218 1.062-1.367 1.19-1.113.124-1.187.182-1.187.926 0 .745.073.802 1.19.926l1.191.133V58.284l-1.031.132c-2.041.262-1.98 1.915.076 2.067l1.108.081-.076 2.168-.077 2.167-1.19.132c-1.118.124-1.191.181-1.191.926 0 .745.073.802 1.19.926l1.191.132v4.234l-1.031.132c-2.041.262-1.98 1.914.076 2.066l1.108.082-.076 2.167-.077 2.167-1.19.133c-1.118.124-1.191.18-1.191.926 0 .744.073.801 1.19.926l1.191.132V84.213l-.925.088c-1.214.115-1.49.378-1.686 1.608-.116.72-.442 1.27-1.1 1.847l-.938.823-10.11-.001c-9.614-.001-10.154-.027-10.972-.525zm21.639-.4c1.353-1.208 1.314-.354 1.314-28.443 0-28.863.077-27.523-1.638-28.568-.835-.51-1.314-.534-10.36-.535-10.403-.001-10.728.043-11.628 1.565-.417.707-.45 2.77-.442 27.579.007 21.3.08 26.94.349 27.426.186.336.688.843 1.115 1.128.74.492 1.234.513 10.736.447 9.534-.067 9.986-.093 10.554-.6zM99.6 49.633c-.175-.175-.318-.628-.318-1.006 0-.379.143-.831.318-1.006.174-.174.627-.317 1.005-.317.378 0 .83.143 1.005.317.175.175.318.627.318 1.006 0 .378-.143.83-.318 1.005-.174.175-.627.318-1.005.318-.378 0-.83-.143-1.005-.318zm1.545-.623c.281-.338.264-.486-.1-.85-.41-.41-.47-.41-.88 0-.364.364-.381.512-.1.85.187.226.43.41.54.41.11 0 .353-.184.54-.41zm14.953.352c-.52-.743-.52-1.12.004-1.642.924-.924 2.495-.293 2.495 1.003 0 1.168-1.805 1.63-2.499.639zm1.573-.757c0-.462-.147-.64-.526-.64-.62 0-.883.89-.36 1.221.547.347.886.124.886-.581zm-9.02.187c-.224-.584.074-.883.478-.478.239.238.24.386.004.622-.235.235-.35.2-.482-.144zM96.055 83.854c.237-.15.32-.71.265-1.782-.078-1.505-.109-1.566-.846-1.65-.938-.107-1.21.278-1.215 1.722-.006 1.522.833 2.32 1.796 1.71zm26.988 0c.236-.15.32-.71.264-1.782l-.08-1.563h-1.852l-.08 1.41c-.108 1.87.606 2.66 1.748 1.935zm-26.804-8.24c0-1.594-.044-1.726-.61-1.806-.956-.136-1.374.408-1.374 1.786 0 1.416.372 1.928 1.321 1.818.632-.074.663-.159.663-1.798zm26.988 0c0-1.594-.045-1.726-.61-1.806-.987-.14-1.374.403-1.374 1.927 0 1.62.114 1.782 1.18 1.678l.804-.079zM96.055 70.89c.237-.15.32-.71.265-1.782-.078-1.505-.109-1.566-.846-1.65-.938-.107-1.21.278-1.215 1.722-.006 1.523.833 2.321 1.796 1.71zm26.988 0c.236-.15.32-.71.264-1.782l-.08-1.563h-1.852l-.08 1.411c-.108 1.87.606 2.659 1.748 1.934zm-26.804-8.24c0-1.594-.044-1.725-.61-1.806-.956-.135-1.374.408-1.374 1.786 0 1.416.372 1.929 1.321 1.818.632-.074.663-.159.663-1.797zm27.13.477c.186-1.608-.085-2.328-.874-2.328-.938 0-1.252.5-1.252 1.993 0 1.598.116 1.761 1.18 1.657.746-.073.814-.168.947-1.322zm-27.314-5.201c.237-.15.32-.71.265-1.782-.078-1.505-.109-1.566-.846-1.65-.938-.108-1.21.277-1.215 1.722-.006 1.522.833 2.32 1.796 1.71zm26.988 0c.236-.15.32-.71.264-1.782l-.08-1.563h-1.852l-.08 1.41c-.108 1.87.606 2.66 1.748 1.935zm-26.804-8.24c0-1.594-.044-1.726-.61-1.806-.956-.136-1.374.408-1.374 1.786 0 1.416.372 1.928 1.321 1.817.632-.073.663-.158.663-1.797zm26.988 0c0-1.594-.045-1.726-.61-1.806-.987-.14-1.374.402-1.374 1.927 0 1.62.114 1.782 1.18 1.678l.804-.08zM96.055 44.96c.237-.15.32-.71.265-1.782-.078-1.505-.109-1.566-.846-1.65-.938-.107-1.21.278-1.215 1.722-.006 1.523.833 2.321 1.796 1.71zm26.988 0c.236-.15.32-.71.264-1.782l-.08-1.563h-1.852l-.08 1.41c-.108 1.87.606 2.66 1.748 1.935zm-26.804-8.24c0-1.594-.044-1.726-.61-1.806-.956-.135-1.374.408-1.374 1.786 0 1.416.372 1.929 1.321 1.818.632-.074.663-.159.663-1.798zm26.988 0c0-1.594-.045-1.726-.61-1.806-.987-.14-1.374.403-1.374 1.927 0 1.62.114 1.782 1.18 1.678l.804-.079z" fill="#e5e1de"/><path d="M96.25 84.364c-.083-.136-.03-.321.117-.413.148-.091.27.02.27.247 0 .464-.16.533-.386.166zm24.86-.283c.09-.146.216-.265.28-.265.065 0 .117.12.117.265 0 .145-.126.264-.28.264-.154 0-.207-.119-.117-.264zm-24.87-3.969c-.09-.145-.038-.264.116-.264s.28.119.28.264c0 .146-.052.265-.116.265-.065 0-.19-.12-.28-.265zm24.87 0c-.09-.145-.037-.264.117-.264s.28.119.28.264c0 .146-.052.265-.117.265-.064 0-.19-.12-.28-.265zm0-2.381c-.09-.146-.037-.265.117-.265s.28.12.28.265c0 .145-.052.264-.117.264-.064 0-.19-.119-.28-.264zm-24.86-3.95c-.083-.136-.03-.322.117-.413.148-.091.27.02.27.246 0 .465-.16.533-.386.166zm24.86-.283c.09-.146.216-.265.28-.265.065 0 .117.12.117.265 0 .145-.126.264-.28.264-.154 0-.207-.119-.117-.264zm-24.86-2.099c-.083-.135-.03-.32.117-.412.148-.092.27.02.27.246 0 .465-.16.533-.386.166zm24.86-.283c.09-.145.216-.264.28-.264.065 0 .117.119.117.264 0 .146-.126.265-.28.265-.154 0-.207-.12-.117-.265zm0-3.968c-.09-.146-.037-.265.117-.265s.28.12.28.265c0 .145-.052.264-.117.264-.064 0-.19-.119-.28-.264zm0-2.382c-.09-.145-.037-.264.117-.264s.28.119.28.264c0 .146-.052.265-.117.265-.064 0-.19-.12-.28-.265zm-24.86-3.95c-.083-.136-.03-.321.117-.413.148-.091.27.02.27.247 0 .464-.16.533-.386.166zm24.86-.283c.09-.146.216-.265.28-.265.065 0 .117.12.117.265 0 .146-.126.265-.28.265-.154 0-.207-.12-.117-.265zm-24.86-2.098c-.083-.136-.03-.321.117-.413.148-.091.27.02.27.246 0 .465-.16.534-.386.167zm24.86-.283c.09-.146.216-.265.28-.265.065 0 .117.12.117.265 0 .145-.126.264-.28.264-.154 0-.207-.119-.117-.264zm0-3.969c-.09-.146-.037-.265.117-.265s.28.12.28.265c0 .146-.052.265-.117.265-.064 0-.19-.12-.28-.265zm0-2.381c-.09-.146-.037-.265.117-.265s.28.12.28.265c0 .145-.052.264-.117.264-.064 0-.19-.119-.28-.264zm2.514-2.117c0-.145.126-.265.28-.265.154 0 .207.12.117.265-.09.146-.216.265-.28.265-.065 0-.117-.12-.117-.265zm-23.888-.164c-.104-.104-.19-.37-.19-.592 0-.325.069-.31.349.073.473.647 1.35.438 1.46-.348.14-.98-.686-1.376-1.393-.67-.228.229-.415.293-.415.142 0-.517 1.014-.864 1.603-.55.408.22.524.503.463 1.134-.07.723-.196.854-.885.921-.442.044-.888-.006-.992-.11zm16.482-.23c-.38-.458-.145-1.723.32-1.723.237 0 .236.077-.005.318-.46.46-.39 1.202.145 1.513.255.149.33.274.165.278-.164.004-.445-.169-.625-.385zm1.386.108c.535-.311.607-1.053.146-1.513-.241-.241-.242-.318-.005-.318.465 0 .7 1.265.32 1.724-.18.216-.461.39-.625.385-.164-.004-.09-.13.165-.278zm-9.061-.772c0-.146.178-.265.396-.265.219 0 .397.12.397.265 0 .145-.178.264-.397.264-.218 0-.396-.119-.396-.264zM96.25 47.85c-.084-.135-.032-.32.116-.412.148-.092.27.02.27.246 0 .465-.16.533-.386.166zm24.86-.283c.09-.145.215-.264.28-.264.064 0 .116.119.116.264 0 .146-.126.265-.28.265-.154 0-.207-.12-.117-.265zM96.25 45.47c-.084-.135-.032-.321.116-.412.148-.092.27.019.27.246 0 .465-.16.533-.386.166zm24.86-.283c.09-.145.215-.264.28-.264.064 0 .116.119.116.264 0 .146-.126.265-.28.265-.154 0-.207-.12-.117-.265zm0-3.969c-.09-.145-.038-.264.116-.264s.28.119.28.264c0 .146-.052.265-.117.265-.064 0-.19-.12-.28-.265zm0-2.38c-.09-.146-.038-.265.116-.265s.28.119.28.264c0 .146-.052.265-.117.265-.064 0-.19-.12-.28-.265zm-24.86-3.951c-.084-.136-.032-.321.116-.413.148-.091.27.02.27.246 0 .465-.16.534-.386.167zm24.86-.283c.09-.146.215-.265.28-.265.064 0 .116.12.116.265 0 .145-.126.264-.28.264-.154 0-.207-.119-.117-.264z" fill="#e2dedb"/></g><g><path d="M46.86 91.962c-1.084-.113-1.223-1.014-.197-1.271l.663-.167-.068-19.88-.067-19.881-3.687-.074c-2.166-.044-3.83-.193-4.035-.363-.24-.2-.348-1.015-.348-2.62 0-2.61.28-3.16 1.606-3.16h.775v-5.732l-2.088-.448c-3.044-.654-5.123-1.79-7.369-4.022-1.422-1.415-2.16-2.42-2.865-3.904-1.078-2.27-1.728-5.288-1.243-5.773.59-.59 1.03-.012 1.362 1.792.488 2.651 1.66 4.888 3.594 6.86 1.974 2.014 4.806 3.5 7.126 3.739l1.483.153v-3.728c0-4.422.275-5.933 1.511-8.308 1.507-2.894 4.225-5.072 7.342-5.884 5.517-1.437 10.953 1.123 13.554 6.384l1.009 2.039.087 4.728c.069 3.689.168 4.758.45 4.867.198.076 1.051-.061 1.896-.305 5.024-1.45 8.733-5.468 9.618-10.418.336-1.883.75-2.427 1.321-1.74.756.912-.634 5.29-2.52 7.931a14.561 14.561 0 0 1-8.87 5.756l-1.718.347V44.391l.817.167c.45.092.955.253 1.124.357.35.217.431 4.847.094 5.378-.144.226-1.43.345-4.295.396l-4.09.074-.06 17.17c-.034 9.444-.115 17.225-.181 17.29-.239.24-2.067.114-2.34-.159-.335-.335.194-1.096.761-1.096.306 0 .365-2.688.365-16.675V50.617l-4.3.073-4.299.073-.068 20.43c-.063 19.134-.097 20.445-.529 20.645-.254.118-.848.173-1.321.124zm18.93-44.308l.08-1.521H40.708v1.41c0 .777.08 1.492.18 1.59.098.1 5.723.149 12.5.111l12.323-.069zm-2.063-10.217c0-3.909-.12-7.74-.267-8.513-1.06-5.588-6.039-9.182-11.656-8.414-3.227.442-6.408 2.86-7.873 5.986l-.71 1.513-.08 8.268-.08 8.268h20.666zm-18.256 1.345c-1.379-.44-1.795-2.243-.744-3.222.774-.722 1.685-.681 2.476.11 1.055 1.055.76 2.518-.602 2.986-.403.138-.912.195-1.13.126zm14.816.02c-1.968-.725-1.597-3.782.46-3.782 1.237 0 2.223 1.552 1.757 2.766-.135.354-1.463 1.255-1.74 1.182a10.936 10.936 0 0 1-.477-.167zm-7.673-1.136c-.512-.512-.53-.625-.186-1.144.463-.698 1.131-.867 1.667-.422.533.442.37 1.286-.337 1.753-.519.343-.632.325-1.144-.187zM4.016-.434c0-.946.048-1.333.107-.86a8.42 8.42 0 0 1 0 1.72c-.06.473-.107.086-.107-.86zM16.71-.7c0-.8.05-1.127.11-.727.061.4.061 1.055 0 1.455-.06.4-.11.073-.11-.728zm11.298.044c0-.751.105-1.367.232-1.367.212 0 .09 2.368-.135 2.624-.053.06-.097-.505-.097-1.257zm12.7 0c0-.751.105-1.367.232-1.367.212 0 .09 2.368-.135 2.624-.053.06-.097-.505-.097-1.257zm12.7 0c0-.751.105-1.367.232-1.367.212 0 .09 2.368-.135 2.624-.053.06-.097-.505-.097-1.257zm12.78-.044c0-.8.05-1.127.11-.727s.06 1.055 0 1.455c-.06.4-.11.073-.11-.728z" fill="#faf5e8"/><path d="M46 91.396c0-.354.227-.596.661-.705l.662-.166v-40.16h-3.808c-4.395 0-4.13.18-4.13-2.78 0-2.197.335-2.775 1.607-2.775h.775v-3.167c0-2.563-.07-3.14-.36-3.028-.609.233-3.911-.647-5.726-1.527-2.483-1.203-5.267-4.05-6.5-6.648-1.079-2.27-1.729-5.288-1.244-5.773.59-.59 1.03-.012 1.362 1.792.491 2.67 1.697 4.979 3.59 6.875 2.226 2.228 4.482 3.33 8.018 3.912l.86.142v-3.661c0-2.014.121-4.303.27-5.086 1.738-9.165 13.176-12.664 19.508-5.968 2.625 2.776 3.233 4.758 3.237 10.561l.003 4.167h.614c.337 0 1.26-.19 2.05-.422 4.898-1.438 8.313-5.075 9.45-10.063.395-1.73.562-2.082.993-2.082.455 0 .513.167.465 1.351-.12 2.973-2.437 7.18-5.165 9.373-1.836 1.477-4.218 2.581-6.46 2.995l-1.814.335v5.789l.84.082c1.268.123 1.439.518 1.353 3.133l-.077 2.342-4.167.072-4.167.073v34.94l-1.257-.08c-1.39-.089-1.727-.668-.661-1.135l.595-.262V67.37 50.697c0-.11-1.963-.231-4.364-.271l-4.364-.073-.068 20.71-.068 20.71-1.256.08c-1.115.072-1.257.02-1.257-.457zM66.054 47.65l.079-1.788-12.779.069L40.576 46l-.081 1.424c-.045.783-.018 1.588.059 1.788.116.305 2.235.354 12.78.297l12.642-.07zm-2.116-10.117c.088-7.96-.084-9.492-1.328-11.837-4.054-7.64-15.083-7.336-18.804.519l-.849 1.793-.08 8.403-.08 8.404 10.531-.07 10.531-.069zm-18.61 1.183c-1.4-.517-1.578-2.325-.32-3.259.895-.666 1.965-.392 2.552.654.773 1.377-.75 3.154-2.232 2.605zm14.818.006c-1.402-.531-1.58-2.33-.322-3.265.901-.67 1.966-.391 2.563.672.78 1.39-.747 3.158-2.241 2.593zm-7.2-.983c-.467-.167-.413-1.382.069-1.567.466-.18 1.187.34 1.187.854 0 .428-.795.879-1.257.713zM4.015-.434c0-.946.048-1.333.107-.86a8.42 8.42 0 0 1 0 1.72c-.06.473-.107.086-.107-.86zm23.992-1.323a.265.265 0 0 1 .53 0 .265.265 0 0 1-.53 0zm12.7 0a.265.265 0 0 1 .53 0 .265.265 0 0 1-.53 0zm12.7 0a.265.265 0 0 1 .53 0 .265.265 0 0 1-.53 0z" fill="#f0eeec"/><path d="M46.264 91.397c0-.151.299-.35.664-.442l.663-.166-.068-20.145-.068-20.146-3.825-.074c-2.654-.05-3.889-.172-4.031-.396-.113-.178-.207-1.238-.21-2.355-.004-2.292.316-2.863 1.603-2.863h.775v-6.326l-.993-.159c-5.047-.804-9.101-3.561-11.115-7.558-.97-1.925-1.807-5.013-1.544-5.698.268-.697.58-.146.913 1.617 1.054 5.561 6.225 10.385 11.548 10.77l1.058.078.158-4.63c.172-5.078.477-6.344 2.125-8.832 3.852-5.815 12.782-6.524 17.628-1.399 2.626 2.777 3.233 4.757 3.237 10.57.004 4.787-.046 4.696 2.267 4.178 5.02-1.123 9.256-5.606 10.226-10.822.293-1.574.523-1.933.874-1.365.3.487-.43 3.27-1.39 5.288-1.835 3.862-5.853 6.942-10.083 7.729-1.948.362-1.946.356-1.836 3.913l.078 2.513.84.082c1.268.123 1.439.518 1.353 3.133l-.077 2.342-4.233.132-4.233.132-.068 17.264-.069 17.264h-.924c-.995 0-1.263-.49-.393-.717.526-.138.53-.312.463-16.975l-.068-16.836h-8.996l-.132 20.505-.132 20.506-.992.082c-.564.046-.993-.037-.993-.194zm19.79-43.746l.079-1.788-12.779.069L40.576 46l-.081 1.424c-.045.783-.018 1.588.059 1.788.116.305 2.235.354 12.78.297l12.642-.07zm-2.116-10.117c.088-7.96-.084-9.492-1.328-11.837-4.054-7.64-15.083-7.336-18.804.519l-.849 1.793-.08 8.403-.08 8.404 10.531-.07 10.531-.069zm-19.11.51c-1.136-1.137.146-3.191 1.583-2.536.36.164.79.593.953.953.655 1.437-1.4 2.72-2.536 1.583zm1.569-1.175c0-.568-.769-.486-.88.093-.069.354.04.462.393.394.268-.052.487-.271.487-.487zm13.248 1.175c-1.137-1.137.146-3.191 1.583-2.536.36.164.789.593.953.953.655 1.437-1.4 2.72-2.536 1.583zm1.568-1.175c0-.568-.768-.486-.88.093-.068.354.04.462.393.394.268-.052.487-.271.487-.487zm-8.268.871c-.466-.167-.412-1.382.07-1.567.466-.18 1.187.34 1.187.855 0 .427-.795.878-1.257.712zM4.015-.434c0-.946.049-1.333.108-.86a8.42 8.42 0 0 1 0 1.72c-.06.473-.107.086-.107-.86z" fill="#faf1da"/><path d="M46.264 91.397c0-.151.298-.35.662-.441l.661-.166V50.366l-3.638-.004c-2-.002-3.791-.102-3.98-.22-.247-.158-.32-.868-.264-2.577l.077-2.358.924-.088c.508-.048 1.012-.227 1.12-.397.298-.467.246-5.941-.057-6.129-.145-.089-1.008-.277-1.919-.417-3.995-.614-8.37-3.794-10.19-7.41-.97-1.924-1.808-5.012-1.545-5.697.268-.697.58-.146.913 1.617.847 4.468 4.337 8.572 8.574 10.082 1.547.551 3.55.914 4.03.73.333-.128.4-.85.4-4.33 0-3.416.094-4.484.522-5.86 1.52-4.889 5.758-7.956 10.955-7.927 5.44.03 9.972 3.92 10.991 9.43.157.85.285 3.189.285 5.2v3.655h.766c1.307 0 4.094-1.004 5.738-2.066 3.002-1.94 5.321-5.428 5.986-9 .293-1.575.523-1.934.874-1.366.3.487-.43 3.27-1.39 5.288-1.863 3.922-5.95 7.013-10.243 7.749l-1.746.299.074 3.186.074 3.186.926.132.926.133.077 2.358c.056 1.71-.017 2.42-.265 2.576-.188.12-2.098.219-4.244.22l-3.903.005v34.66h-.926c-.993 0-1.267-.489-.4-.716.516-.135.526-.43.595-17.04l.07-16.904h-9.39l-.067 20.571-.068 20.572-.992.082c-.564.047-.993-.037-.993-.194zM66.32 47.744c.056-1.177-.025-1.762-.264-1.914-.583-.37-25.187-.282-25.56.09-.333.334-.446 3.17-.138 3.478.098.099 5.962.148 13.03.11l12.853-.068zM63.93 37.02c.058-6.615 0-8.165-.353-9.393-.858-2.988-2.883-5.295-5.903-6.726-1.605-.76-1.975-.83-4.398-.824-2.427.005-2.789.074-4.374.845-1.932.94-3.835 2.67-4.86 4.42-1.314 2.241-1.482 3.579-1.482 11.806 0 4.165.081 7.654.18 7.753.098.098 4.89.148 10.65.11l10.47-.07zm-19.102 1.024c-1.136-1.137.146-3.191 1.583-2.536.36.164.79.593.953.953.655 1.437-1.4 2.72-2.536 1.583zm1.569-1.175c0-.568-.769-.486-.88.093-.069.354.04.462.393.394.268-.052.487-.271.487-.487zm13.248 1.175c-1.137-1.137.146-3.191 1.583-2.536.36.164.789.593.953.953.655 1.437-1.4 2.72-2.536 1.583zm1.568-1.175c0-.568-.768-.486-.88.093-.068.354.04.462.393.394.268-.052.487-.271.487-.487zm-8.49.432c-.215-.558.086-.958.72-.958.399 0 .51.147.447.593-.099.691-.941.955-1.167.365zM4.016-.434c0-.946.048-1.333.107-.86a8.42 8.42 0 0 1 0 1.72c-.06.473-.107.086-.107-.86z" fill="#f9eed1"/><path d="M46.264 91.397c0-.151.298-.35.662-.441l.661-.166V50.1h-3.792c-2.086 0-3.842-.049-3.903-.109-.06-.06-.071-1.131-.024-2.381l.085-2.272h.722c.397 0 .864-.143 1.039-.318.369-.369.459-6.945.091-6.718-.564.349-3.765-.457-5.833-1.468-3.885-1.9-6.556-5.25-7.6-9.539-.411-1.684-.339-2.969.137-2.44.12.133.354.957.52 1.83 1.068 5.639 6.113 10.29 11.738 10.823l1.25.119.081-3.62c.045-1.99.108-.442.14 3.44.05 6.012.12 7.12.473 7.475.364.363 1.683.416 10.469.416 6.424 0 10.237-.1 10.564-.274.488-.261.512-.627.506-7.871-.004-4.179-.127-8.12-.274-8.758-.424-1.836-1.6-3.992-2.92-5.347-2.376-2.441-6.366-3.798-9.385-3.192-4.79.962-7.996 4.185-9.123 9.17-.225.999-.232.979-.123-.351.159-1.94 1.17-4.007 2.81-5.74 5.967-6.31 16.688-3.602 18.88 4.768.33 1.259.419 3.164.43 9.194.015 8.348.025 8.4 1.592 8.4h.786l-.077 2.316-.076 2.315-4.101.132-4.101.133L58.5 67.63l-.069 17.396h-.924c-.994 0-1.264-.49-.395-.717.523-.136.53-.36.53-16.908V50.432c0-.11-2.054-.198-4.565-.198h-4.564l-.132 20.637-.132 20.638-.992.082c-.564.046-.993-.037-.993-.194zm19.958-41.976c.532-.533.572-3.093.054-3.523-.26-.216-3.93-.28-13.163-.231l-12.802.069-.079 1.828c-.055 1.284.023 1.893.265 2.047.189.12 5.96.22 12.826.222 10.999.003 12.532-.046 12.899-.412zM44.828 38.044c-1.136-1.137.146-3.191 1.583-2.536.36.164.79.593.953.953.655 1.437-1.4 2.72-2.536 1.583zm1.569-1.175c0-.568-.769-.486-.88.093-.069.354.04.462.393.394.268-.052.487-.271.487-.487zm13.248 1.175c-1.137-1.137.146-3.191 1.583-2.536.36.164.789.593.953.953.655 1.437-1.4 2.72-2.536 1.583zm1.568-1.175c0-.568-.768-.486-.88.093-.068.354.04.462.393.394.268-.052.487-.271.487-.487zm3.837 1.254c0-.202.65-.46 1.63-.646 5.199-.988 9.595-5.501 10.595-10.878.293-1.574.523-1.933.874-1.365.3.487-.43 3.27-1.39 5.288-1.712 3.604-5.273 6.508-9.25 7.544-1.85.482-2.46.496-2.46.057zm-12.136-.812c-.367-.442.071-1.085.6-.883.233.09.423.333.423.54 0 .511-.691.743-1.023.343zM4.016-.434c0-.946.048-1.333.107-.86a8.42 8.42 0 0 1 0 1.72c-.06.473-.107.086-.107-.86z" fill="#eae7e4"/><path d="M46.67 91.391c-.1-.161.056-.28.368-.28.34 0 .592-.219.683-.595.08-.327.112-9.525.072-20.439l-.073-19.843-3.97-.133c-2.182-.072-3.938-.221-3.902-.33.037-.11.066-1.151.066-2.316V45.34h.741c1.247 0 1.376-.363 1.376-3.86v-3.223l-1.477-.185c-5.618-.701-10.241-4.669-11.86-10.177-.231-.79-.409-1.802-.394-2.249.02-.563.167-.244.482 1.04.592 2.413 1.281 3.903 2.628 5.682 2.15 2.84 5.668 4.913 8.843 5.21l1.763.164.082-3.676c.045-2.021.108-.499.14 3.384.05 6.011.12 7.12.473 7.474.364.363 1.683.416 10.469.416 6.424 0 10.237-.1 10.564-.274.488-.261.512-.627.506-7.871-.004-4.179-.127-8.12-.274-8.758-.424-1.836-1.6-3.992-2.92-5.347-2.376-2.441-6.366-3.798-9.385-3.192-4.79.962-7.996 4.185-9.123 9.17-.225.999-.232.979-.123-.351.159-1.94 1.17-4.007 2.81-5.74 5.967-6.31 16.688-3.602 18.88 4.768.33 1.259.419 3.164.43 9.194.015 8.348.025 8.4 1.592 8.4h.786l-.077 2.316-.076 2.315-4.101.132-4.101.133-.069 17.04c-.048 12.052-.154 17.145-.363 17.397-.328.396-1.288.486-1.288.122 0-.129.239-.297.53-.373.527-.138.531-.312.464-17.163l-.068-17.023-4.527-.073c-3.574-.057-4.59.004-4.827.29-.217.262-.319 6.007-.368 20.71l-.068 20.348-.57.08c-.314.046-.648-.044-.743-.198zm19.552-41.97c.532-.533.572-3.093.054-3.523-.26-.216-3.93-.28-13.163-.231l-12.802.069-.079 1.828c-.055 1.284.023 1.893.265 2.047.189.12 5.96.22 12.826.222 10.999.003 12.532-.046 12.899-.412zM45.255 38.279c-.191-.077-.462-.44-.602-.809-.534-1.404 1.199-2.56 2.254-1.505 1.093 1.093-.194 2.897-1.652 2.314zm1.25-.982c.238-.285.206-.47-.137-.813-.394-.393-.488-.399-.839-.048-.45.45-.261 1.23.298 1.23.205 0 .51-.166.679-.369zm13.567.982c-.191-.077-.463-.44-.602-.809-.534-1.404 1.198-2.56 2.254-1.505 1.093 1.093-.195 2.897-1.652 2.314zm1.25-.982c.237-.285.206-.47-.137-.813-.394-.393-.489-.399-.84-.048-.45.45-.26 1.23.299 1.23.205 0 .51-.166.678-.369zm5.486.364c5.448-1.408 9.483-5.416 10.54-10.467.374-1.789.666-2.461.666-1.534 0 2.102-1.815 6.127-3.658 8.113-2.26 2.434-6.231 4.464-8.606 4.4-.597-.017-.298-.161 1.058-.512zm-13.894-.35c-.367-.442.071-1.085.6-.883.233.09.423.333.423.54 0 .511-.691.743-1.023.343zM4.016-.434c0-.946.048-1.333.107-.86a8.42 8.42 0 0 1 0 1.72c-.06.473-.107.086-.107-.86z" fill="#f9eccc"/><path d="M46.67 91.391c-.098-.16.049-.28.344-.28.284 0 .589-.188.677-.418.089-.23.161-9.398.161-20.373 0-10.975.09-19.954.198-19.954.11 0 .14 9.257.067 20.571l-.133 20.572-.57.08c-.314.046-.648-.044-.743-.198zm10.178-6.598c0-.129.238-.296.529-.373.522-.136.53-.36.53-17.096 0-11.129.09-16.958.264-16.958.412 0 .36 33.93-.053 34.343-.368.368-1.27.428-1.27.084zM45.255 38.279c-.191-.077-.462-.44-.602-.809-.534-1.404 1.199-2.56 2.254-1.505 1.093 1.093-.194 2.897-1.652 2.314zm1.25-.982c.238-.285.206-.47-.137-.813-.394-.393-.488-.399-.839-.048-.45.45-.261 1.23.298 1.23.205 0 .51-.166.679-.369zm13.567.982c-.191-.077-.463-.44-.602-.809-.534-1.404 1.198-2.56 2.254-1.505 1.093 1.093-.195 2.897-1.652 2.314zm1.25-.982c.237-.285.206-.47-.137-.813-.394-.393-.489-.399-.84-.048-.45.45-.26 1.23.299 1.23.205 0 .51-.166.678-.369zm-21.408.715c-5.218-.873-9.688-4.904-11.22-10.118-.231-.79-.409-1.802-.394-2.249.02-.563.167-.244.482 1.04.825 3.362 2.513 6.159 4.849 8.033 1.748 1.402 4.594 2.654 6.482 2.85.91.096 1.654.275 1.654.4 0 .23-.65.246-1.853.044zm26.894-.351c5.448-1.408 9.483-5.416 10.54-10.467.374-1.789.666-2.461.666-1.534 0 2.102-1.815 6.127-3.658 8.113-2.26 2.434-6.231 4.464-8.606 4.4-.597-.017-.298-.161 1.058-.512zM4.016-.434c0-.946.048-1.333.107-.86a8.42 8.42 0 0 1 0 1.72c-.06.473-.107.086-.107-.86z" fill="#e5e2de"/></g></svg>