<?xml version="1.0" encoding="UTF-8" standalone="no"?>
<!-- Created with Inkscape (http://www.inkscape.org/) -->

<svg
   xmlns:dc="http://purl.org/dc/elements/1.1/"
   xmlns:cc="http://creativecommons.org/ns#"
   xmlns:rdf="http://www.w3.org/1999/02/22-rdf-syntax-ns#"
   xmlns:svg="http://www.w3.org/2000/svg"
   xmlns="http://www.w3.org/2000/svg"
   xmlns:sodipodi="http://sodipodi.sourceforge.net/DTD/sodipodi-0.dtd"
   xmlns:inkscape="http://www.inkscape.org/namespaces/inkscape"
   width="600mm"
   height="181.481mm"
   viewBox="0 0 600 181.481"
   version="1.1"
   id="svg4790"
   inkscape:version="0.92.3 (2405546, 2018-03-11)"
   sodipodi:docname="coracao.svg">
  <defs
     id="defs4784">
    <clipPath
       clipPathUnits="userSpaceOnUse"
       id="clipPath26">
      <path
         d="M 24.496,883.394 H 636.78 V 24.496 H 24.496 Z"
         id="path24"
         inkscape:connector-curvature="0" />
    </clipPath>
  </defs>
  <sodipodi:namedview
     id="base"
     pagecolor="#ffffff"
     bordercolor="#666666"
     borderopacity="1.0"
     inkscape:pageopacity="0.0"
     inkscape:pageshadow="2"
     inkscape:zoom="0.35"
     inkscape:cx="406.4068"
     inkscape:cy="277.2653"
     inkscape:document-units="mm"
     inkscape:current-layer="layer1"
     showgrid="false"
     inkscape:window-width="1920"
     inkscape:window-height="1016"
     inkscape:window-x="0"
     inkscape:window-y="27"
     inkscape:window-maximized="1" />
  <metadata
     id="metadata4787">
    <rdf:RDF>
      <cc:Work
         rdf:about="">
        <dc:format>image/svg+xml</dc:format>
        <dc:type
           rdf:resource="http://purl.org/dc/dcmitype/StillImage" />
        <dc:title></dc:title>
      </cc:Work>
    </rdf:RDF>
  </metadata>
  <g
     inkscape:label="Camada 1"
     inkscape:groupmode="layer"
     id="layer1"
     transform="translate(0,-115.519)">
    <g
       id="g5499"
       transform="matrix(2.7777754,0,0,2.7777754,302.09977,-255.46293)"
       inkscape:export-xdpi="25.4"
       inkscape:export-ydpi="25.4">
      <g
         inkscape:export-ydpi="70.559998"
         inkscape:export-xdpi="70.559998"
         transform="matrix(0.35277777,0,0,-0.35277777,-117.39769,376.49487)"
         id="g20">
        <g
           clip-path="url(#clipPath26)"
           id="g22">
          <g
             transform="translate(416.4053,531.3842)"
             id="g28">
            <path
               inkscape:connector-curvature="0"
               id="path30"
               style="fill:#ffffff;fill-opacity:1;fill-rule:nonzero;stroke:none"
               d="m 0,0 c 2.389,0.033 4.711,0.29 6.967,0.763 14.415,1.576 46.007,4.843 58.604,4.843 12.392,0.017 43.312,-3.176 57.825,-4.752 2.505,-0.547 5.093,-0.879 7.773,-0.879 19.448,0 35.207,15.767 35.207,35.224 0,19.449 -15.759,35.208 -35.207,35.208 -2.613,0 -5.143,-0.299 -7.59,-0.846 -14.431,-1.568 -45.558,-4.777 -58.008,-4.794 -12.556,0 -43.94,3.234 -58.438,4.794 -2.438,0.547 -4.96,0.846 -7.564,0.846 -19.441,0 -35.215,-15.759 -35.215,-35.208 0,-19.457 15.21,-35.166 34.651,-35.166 l 0.564,-0.083 c 0,0 0.215,0.025 0.431,0.05" />
          </g>
          <g
             transform="translate(416.4053,531.3842)"
             id="g32">
            <path
               inkscape:connector-curvature="0"
               id="path34"
               style="fill:none;stroke:#806f5c;stroke-width:4.24599981;stroke-linecap:butt;stroke-linejoin:miter;stroke-miterlimit:10;stroke-dasharray:none;stroke-opacity:1"
               d="m 0,0 c 2.389,0.033 4.711,0.29 6.967,0.763 14.415,1.576 46.007,4.843 58.604,4.843 12.392,0.017 43.312,-3.176 57.825,-4.752 2.505,-0.547 5.093,-0.879 7.773,-0.879 19.448,0 35.207,15.767 35.207,35.224 0,19.449 -15.759,35.208 -35.207,35.208 -2.613,0 -5.143,-0.299 -7.59,-0.846 -14.431,-1.568 -45.558,-4.777 -58.008,-4.794 -12.556,0 -43.94,3.234 -58.438,4.794 -2.438,0.547 -4.96,0.846 -7.564,0.846 -19.441,0 -35.215,-15.759 -35.215,-35.208 0,-19.457 15.21,-35.166 34.651,-35.166 l 0.564,-0.083 c 0,0 0.215,0.025 0.431,0.05 z" />
          </g>
          <g
             transform="translate(380.8496,658.5214)"
             id="g36">
            <path
               inkscape:connector-curvature="0"
               id="path38"
               style="fill:none;stroke:#006b79;stroke-width:4.24599981;stroke-linecap:butt;stroke-linejoin:miter;stroke-miterlimit:10;stroke-dasharray:none;stroke-opacity:1"
               d="M 0,0 H -0.024 C -0.656,15.576 -13.478,28.008 -29.203,28.008 -44.945,28.008 -57.768,15.576 -58.397,0 v 0.042 c 0,-3.849 3.085,-6.993 6.917,-6.993 3.839,0 6.934,3.119 6.934,6.951 -0.623,15.576 -13.453,28.008 -29.179,28.008 -15.725,0 -28.556,-12.432 -29.177,-28.008 h -0.034 c 0,0 -3.997,-33.698 53.795,-72.348 0,0 27.353,-18.106 49.141,-19.217" />
          </g>
          <g
             transform="translate(326.9976,586.1732)"
             id="g40">
            <path
               inkscape:connector-curvature="0"
               id="path42"
               style="fill:none;stroke:#006b79;stroke-width:4.24599981;stroke-linecap:butt;stroke-linejoin:miter;stroke-miterlimit:10;stroke-dasharray:none;stroke-opacity:1"
               d="M 0,0 C 0,0 -27.354,-18.105 -49.15,-19.217" />
          </g>
          <g
             transform="translate(380.7588,658.5214)"
             id="g44">
            <path
               inkscape:connector-curvature="0"
               id="path46"
               style="fill:none;stroke:#006b79;stroke-width:4.24599981;stroke-linecap:butt;stroke-linejoin:miter;stroke-miterlimit:10;stroke-dasharray:none;stroke-opacity:1"
               d="m 0,0 h 0.033 c 0,0 3.998,-33.698 -53.794,-72.348" />
          </g>
          <g
             transform="translate(111.7373,531.3842)"
             id="g48">
            <path
               inkscape:connector-curvature="0"
               id="path50"
               style="fill:#ffffff;fill-opacity:1;fill-rule:nonzero;stroke:none"
               d="m 0,0 c 2.397,0.033 4.728,0.29 6.983,0.763 14.415,1.576 45.999,4.843 58.589,4.843 12.407,0.017 43.31,-3.176 57.833,-4.752 2.512,-0.547 5.093,-0.879 7.771,-0.879 19.441,0 35.217,15.767 35.217,35.224 0,19.449 -15.776,35.208 -35.217,35.208 -2.612,0 -5.142,-0.299 -7.589,-0.846 -14.431,-1.568 -45.558,-4.777 -58.015,-4.794 -12.541,0 -43.942,3.234 -58.423,4.794 -2.438,0.547 -4.959,0.846 -7.564,0.846 -19.458,0 -35.215,-15.759 -35.215,-35.208 0,-19.457 15.202,-35.166 34.651,-35.166 l 0.564,-0.083 c 0,0 0.208,0.025 0.415,0.05" />
          </g>
          <g
             transform="translate(111.7373,531.3842)"
             id="g52">
            <path
               inkscape:connector-curvature="0"
               id="path54"
               style="fill:none;stroke:#806f5c;stroke-width:4.24599981;stroke-linecap:butt;stroke-linejoin:miter;stroke-miterlimit:10;stroke-dasharray:none;stroke-opacity:1"
               d="m 0,0 c 2.397,0.033 4.728,0.29 6.983,0.763 14.415,1.576 45.999,4.843 58.589,4.843 12.407,0.017 43.31,-3.176 57.833,-4.752 2.512,-0.547 5.093,-0.879 7.771,-0.879 19.441,0 35.217,15.767 35.217,35.224 0,19.449 -15.776,35.208 -35.217,35.208 -2.612,0 -5.142,-0.299 -7.589,-0.846 -14.431,-1.568 -45.558,-4.777 -58.015,-4.794 -12.541,0 -43.942,3.234 -58.423,4.794 -2.438,0.547 -4.959,0.846 -7.564,0.846 -19.458,0 -35.215,-15.759 -35.215,-35.208 0,-19.457 15.202,-35.166 34.651,-35.166 l 0.564,-0.083 c 0,0 0.208,0.025 0.415,0.05 z" />
          </g>
          <g
             transform="translate(10.7344,503.8695)"
             id="g56">
            <path
               inkscape:connector-curvature="0"
               id="path58"
               style="fill:none;stroke:#006b79;stroke-width:4.24599981;stroke-linecap:butt;stroke-linejoin:miter;stroke-miterlimit:10;stroke-dasharray:none;stroke-opacity:1"
               d="M 0,0 V -0.092 C 1.451,35.754 30.969,64.377 67.18,64.36" />
          </g>
          <g
             transform="translate(650.542,503.6332)"
             id="g60">
            <path
               inkscape:connector-curvature="0"
               id="path62"
               style="fill:none;stroke:#006b79;stroke-width:4.24599981;stroke-linecap:butt;stroke-linejoin:miter;stroke-miterlimit:10;stroke-dasharray:none;stroke-opacity:1"
               d="M 0,0 V -0.092 C -1.444,35.755 -30.97,64.378 -67.164,64.36" />
          </g>
          <g
             transform="translate(242.9136,601.3265)"
             id="g64">
            <path
               inkscape:connector-curvature="0"
               id="path66"
               style="fill:none;stroke:#806f5c;stroke-width:4.24599981;stroke-linecap:butt;stroke-linejoin:miter;stroke-miterlimit:10;stroke-dasharray:none;stroke-opacity:1"
               d="M 0,0 V -69.536" />
          </g>
          <g
             transform="translate(106.5952,532.9017)"
             id="g68">
            <path
               inkscape:connector-curvature="0"
               id="path70"
               style="fill:none;stroke:#d94a00;stroke-width:4.24599981;stroke-linecap:butt;stroke-linejoin:miter;stroke-miterlimit:10;stroke-dasharray:none;stroke-opacity:1"
               d="M 0,0 V 67.314" />
          </g>
          <g
             transform="translate(118.936,600.9452)"
             id="g72">
            <path
               inkscape:connector-curvature="0"
               id="path74"
               style="fill:none;stroke:#806f5c;stroke-width:4.24599981;stroke-linecap:butt;stroke-linejoin:miter;stroke-miterlimit:10;stroke-dasharray:none;stroke-opacity:1"
               d="M 0,0 V -68.798" />
          </g>
          <g
             transform="translate(155.6782,596.9388)"
             id="g76">
            <path
               inkscape:connector-curvature="0"
               id="path78"
               style="fill:none;stroke:#006b79;stroke-width:4.24599981;stroke-linecap:butt;stroke-linejoin:miter;stroke-miterlimit:10;stroke-dasharray:none;stroke-opacity:1"
               d="M 0,0 V -60.936" />
          </g>
          <g
             transform="translate(111.7373,531.3842)"
             id="g80">
            <path
               inkscape:connector-curvature="0"
               id="path82"
               style="fill:none;stroke:#806f5c;stroke-width:4.24599981;stroke-linecap:butt;stroke-linejoin:miter;stroke-miterlimit:10;stroke-dasharray:none;stroke-opacity:1"
               d="m 0,0 c 2.397,0.033 4.728,0.29 6.983,0.763 14.415,1.576 45.999,4.843 58.589,4.843 12.407,0.017 43.31,-3.176 57.833,-4.752 2.512,-0.547 5.093,-0.879 7.771,-0.879 19.441,0 35.217,15.767 35.217,35.224 0,19.449 -15.776,35.208 -35.217,35.208 -2.612,0 -5.142,-0.299 -7.589,-0.846 -14.431,-1.568 -45.558,-4.777 -58.015,-4.794 -12.541,0 -43.942,3.234 -58.423,4.794 -2.438,0.547 -4.959,0.846 -7.564,0.846 -19.458,0 -35.215,-15.759 -35.215,-35.208 0,-19.457 15.202,-35.166 34.651,-35.166 l 0.564,-0.083 c 0,0 0.208,0.025 0.415,0.05 z" />
          </g>
          <g
             transform="translate(411.2627,532.9017)"
             id="g84">
            <path
               inkscape:connector-curvature="0"
               id="path86"
               style="fill:none;stroke:#006b79;stroke-width:4.24599981;stroke-linecap:butt;stroke-linejoin:miter;stroke-miterlimit:10;stroke-dasharray:none;stroke-opacity:1"
               d="M 0,0 V 67.314" />
          </g>
          <g
             transform="translate(423.5962,600.2157)"
             id="g88">
            <path
               inkscape:connector-curvature="0"
               id="path90"
               style="fill:none;stroke:#806f5c;stroke-width:4.24599981;stroke-linecap:butt;stroke-linejoin:miter;stroke-miterlimit:10;stroke-dasharray:none;stroke-opacity:1"
               d="M 0,0 V -68.069" />
          </g>
          <g
             transform="translate(460.3467,596.9388)"
             id="g92">
            <path
               inkscape:connector-curvature="0"
               id="path94"
               style="fill:none;stroke:#d94a00;stroke-width:4.24599981;stroke-linecap:butt;stroke-linejoin:miter;stroke-miterlimit:10;stroke-dasharray:none;stroke-opacity:1"
               d="M 0,0 V -60.936" />
          </g>
          <g
             transform="translate(179.897,562.5941)"
             id="g96">
            <path
               inkscape:connector-curvature="0"
               id="path98"
               style="fill:#006b79;fill-opacity:1;fill-rule:nonzero;stroke:none"
               d="m 0,0 c 1.542,1.526 1.525,4.014 0,5.564 -1.535,1.527 -4.015,1.527 -5.565,0 C -7.1,4.014 -7.1,1.526 -5.565,0 -4.031,-1.551 -1.535,-1.551 0,0" />
          </g>
          <g
             transform="translate(137.1172,561.4164)"
             id="g100">
            <path
               inkscape:connector-curvature="0"
               id="path102"
               style="fill:#d94a00;fill-opacity:1;fill-rule:nonzero;stroke:none"
               d="M 0,0 -3.949,3.947 0,7.879 3.93,3.947 Z m 5.556,9.521 c -3.069,3.069 -8.029,3.069 -11.13,0 -3.069,-3.085 -3.069,-8.07 0,-11.13 3.069,-3.085 8.061,-3.085 11.13,0 3.094,3.085 3.069,8.045 0,11.13" />
          </g>
          <g
             transform="translate(217.1196,561.4164)"
             id="g104">
            <path
               inkscape:connector-curvature="0"
               id="path106"
               style="fill:#d94a00;fill-opacity:1;fill-rule:nonzero;stroke:none"
               d="M 0,0 -3.931,3.947 0,7.879 3.948,3.947 Z m 5.557,9.521 c -3.061,3.069 -8.028,3.069 -11.131,0 -3.06,-3.085 -3.06,-8.07 0,-11.13 3.086,-3.085 8.07,-3.085 11.131,0 3.102,3.085 3.068,8.045 0,11.13" />
          </g>
          <g
             transform="translate(437.895,565.3636)"
             id="g108">
            <path
               inkscape:connector-curvature="0"
               id="path110"
               style="fill:#006b79;fill-opacity:1;fill-rule:nonzero;stroke:none"
               d="M 0,0 3.94,3.932 7.871,0 3.94,-3.947 Z M 3.873,7.871 -4.006,0 3.873,-7.879 11.761,0 Z" />
          </g>
          <g
             transform="translate(517.8896,565.3636)"
             id="g112">
            <path
               inkscape:connector-curvature="0"
               id="path114"
               style="fill:#006b79;fill-opacity:1;fill-rule:nonzero;stroke:none"
               d="M 0,0 3.948,3.932 7.88,0 3.948,-3.947 Z M 3.882,7.871 -3.998,0 3.882,-7.879 11.77,0 Z" />
          </g>
          <g
             transform="translate(473.9072,567.3383)"
             id="g116">
            <path
               inkscape:connector-curvature="0"
               id="path118"
               style="fill:#d94a00;fill-opacity:1;fill-rule:nonzero;stroke:none"
               d="m 0,0 c -0.025,-4.347 3.508,-7.847 7.854,-7.871 4.363,0.009 7.879,3.533 7.879,7.879" />
          </g>
          <g
             transform="translate(416.4053,531.3842)"
             id="g120">
            <path
               inkscape:connector-curvature="0"
               id="path122"
               style="fill:none;stroke:#806f5c;stroke-width:4.24599981;stroke-linecap:butt;stroke-linejoin:miter;stroke-miterlimit:10;stroke-dasharray:none;stroke-opacity:1"
               d="m 0,0 c 2.389,0.033 4.711,0.29 6.967,0.763 14.415,1.576 46.007,4.843 58.604,4.843 12.392,0.017 43.312,-3.176 57.825,-4.752 2.505,-0.547 5.093,-0.879 7.773,-0.879 19.448,0 35.207,15.767 35.207,35.224 0,19.449 -15.759,35.208 -35.207,35.208 -2.613,0 -5.143,-0.299 -7.59,-0.846 -14.431,-1.568 -45.558,-4.777 -58.008,-4.794 -12.556,0 -43.94,3.234 -58.438,4.794 -2.438,0.547 -4.96,0.846 -7.564,0.846 -19.441,0 -35.215,-15.759 -35.215,-35.208 0,-19.457 15.21,-35.166 34.651,-35.166 l 0.564,-0.083 c 0,0 0.215,0.025 0.431,0.05 z" />
          </g>
        </g>
      </g>
      <g
         inkscape:export-ydpi="70.559998"
         inkscape:export-xdpi="70.559998"
         transform="matrix(0.35277777,0,0,-0.35277777,75.774316,164.36024)"
         id="g16">
        <path
           inkscape:connector-curvature="0"
           id="path18"
           style="fill:none;stroke:#806f5c;stroke-width:4.24599981;stroke-linecap:butt;stroke-linejoin:miter;stroke-miterlimit:10;stroke-dasharray:none;stroke-opacity:1"
           d="M 0,0 V -69.536" />
      </g>
    </g>
  </g>
</svg>
