<?xml version="1.0" encoding="UTF-8" standalone="no"?>
<!-- Generator: Adobe Illustrator 23.0.1, SVG Export Plug-In . SVG Version: 6.00 Build 0)  -->

<svg
   xmlns:dc="http://purl.org/dc/elements/1.1/"
   xmlns:cc="http://creativecommons.org/ns#"
   xmlns:rdf="http://www.w3.org/1999/02/22-rdf-syntax-ns#"
   xmlns:svg="http://www.w3.org/2000/svg"
   xmlns="http://www.w3.org/2000/svg"
   xmlns:sodipodi="http://sodipodi.sourceforge.net/DTD/sodipodi-0.dtd"
   xmlns:inkscape="http://www.inkscape.org/namespaces/inkscape"
   version="1.1"
   id="Layer_1"
   x="0px"
   y="0px"
   viewBox="0 0 480.90003 197.60288"
   xml:space="preserve"
   sodipodi:docname="arduinoday.svg"
   inkscape:version="0.92.4 (unknown)"
   width="480.90002"
   height="197.60289"><metadata
   id="metadata123"><rdf:RDF><cc:Work
       rdf:about=""><dc:format>image/svg+xml</dc:format><dc:type
         rdf:resource="http://purl.org/dc/dcmitype/StillImage" /></cc:Work></rdf:RDF></metadata><defs
   id="defs121">
	
	
</defs><sodipodi:namedview
   pagecolor="#ffffff"
   bordercolor="#666666"
   borderopacity="1"
   objecttolerance="10"
   gridtolerance="10"
   guidetolerance="10"
   inkscape:pageopacity="0"
   inkscape:pageshadow="2"
   inkscape:window-width="1920"
   inkscape:window-height="1016"
   id="namedview119"
   showgrid="false"
   inkscape:zoom="1.3556924"
   inkscape:cx="197.09672"
   inkscape:cy="132.61892"
   inkscape:window-x="0"
   inkscape:window-y="27"
   inkscape:window-maximized="1"
   inkscape:current-layer="Layer_1" />
<style
   type="text/css"
   id="style2">
	.st0{fill:#008184;}
	.st1{fill:#7FCBCD;}
	.st2{fill:#E67E22;}
	.st3{fill:#F1C40F;}
	.st4{fill:#9E846D;}
</style>
<title
   id="title4">Arduino_DAY2018_Logotype</title>


<g
   id="g1008"><g
     id="LOGO">
	<path
   id="path6"
   d="m 318.3,153.1 7.4,-23.6 h 6.6 l 7.5,23.6 h -6.2 l -1.3,-4.8 h -6.8 l -1.2,4.8 z m 10.5,-18.1 -2.1,8.7 h 4.5 z"
   class="st0"
   inkscape:connector-curvature="0"
   style="fill:#008184" />
	<path
   id="path8"
   d="m 343.6,129.4 h 9.5 c 6.5,0 9,3.3 9,7.9 0,3.2 -1.3,5.7 -3.9,7.1 l 4.6,8.7 H 356 l -3.6,-7.5 h -2.9 v 7.5 h -5.9 z m 12.3,8 c 0,-2.1 -0.8,-3.2 -3.5,-3.2 h -3 v 6.7 h 3.1 c 2.1,0 3.4,-0.9 3.4,-3.5 z"
   class="st0"
   inkscape:connector-curvature="0"
   style="fill:#008184" />
	<path
   id="path10"
   d="m 366.9,129.4 h 7.7 c 8.8,0 11.8,4.2 11.8,11.6 0,5.6 -1.7,12 -11.7,12 h -7.8 z m 5.8,4.8 v 14 h 2.2 c 4.8,0 5.2,-2.9 5.2,-6.9 0,-4.6 -0.5,-7.1 -5.7,-7.1 z"
   class="st0"
   inkscape:connector-curvature="0"
   style="fill:#008184" />
	<path
   id="path12"
   d="m 403.7,129.4 h 5.6 V 145 c 0,7 -5.3,8.5 -9.5,8.5 -4,0 -9.2,-1.3 -9.2,-8.5 v -15.5 h 5.9 v 14.4 c 0,3.9 1.4,4.8 3.6,4.8 2.7,0 3.6,-1.2 3.6,-4.8 z"
   class="st0"
   inkscape:connector-curvature="0"
   style="fill:#008184" />
	<path
   id="path14"
   d="m 414.6,148.2 h 6.1 v -14 h -6.1 v -4.8 h 18.1 v 4.8 h -6.1 v 14 h 6.1 v 4.8 h -18.1 z"
   class="st0"
   inkscape:connector-curvature="0"
   style="fill:#008184" />
	<path
   id="path16"
   d="m 443,153.1 h -5.5 v -23.6 h 6.4 l 7.7,14.2 v -14.2 h 5.5 v 23.6 h -5.9 L 443,138 Z"
   class="st0"
   inkscape:connector-curvature="0"
   style="fill:#008184" />
	<path
   id="path18"
   d="m 480.9,141.3 c 0,6.8 -2.5,12.2 -10.1,12.2 -6.8,0 -9.9,-4.1 -9.9,-11.9 0,-7.1 2.7,-12.4 9.9,-12.4 6.7,-0.1 10.1,3 10.1,12.1 z m -6.2,0 c 0,-5.8 -0.5,-7.4 -3.9,-7.4 -3.1,0 -3.7,1.9 -3.7,7.6 0,4.8 0.3,7.2 3.7,7.2 3.4,0 3.9,-2 3.9,-7.4 z"
   class="st0"
   inkscape:connector-curvature="0"
   style="fill:#008184" />
	<g
   id="g96">
		<path
   id="path20"
   d="m 132,47.9 0.9,-1.6 c -7.7,-4.2 -16.1,-7 -24.8,-8.3 -3.4,-0.5 -6.9,-0.7 -10.4,-0.7 -27.6,0 -52.3,16.6 -61.4,41.3 l 8.9,3.3 c 7.8,-21 28.9,-35.1 52.6,-35.1 3,0 6,0.2 9,0.6 16,2.3 31.4,11 45.8,26 l 5.2,-5 C 150.3,60.2 141.6,53.3 132,47.9 Z"
   class="st1"
   inkscape:connector-curvature="0"
   style="fill:#7fcbcd" />
		<path
   id="path22"
   d="M 67.2,158.5 C 43.4,147.5 28,124.1 28,98.9 28,86.2 31.7,73.8 38.8,63.3 c 2.7,-4.1 5.9,-7.8 9.4,-11.2 l 4.4,4.6 c -3.2,3.1 -6.1,6.5 -8.5,10.2 -6.3,9.5 -9.7,20.7 -9.7,32.1 0,23 13.6,43.7 35.5,53.9 z"
   class="st1"
   inkscape:connector-curvature="0"
   style="fill:#7fcbcd" />
		<path
   id="path24"
   d="m 183.1,106.7 -2.7,-6.4 c -0.2,-0.5 -0.6,-1.2 -1,-1.9 -4.8,9.1 -30,53.4 -71.5,59.3 -3.4,0.5 -6.9,1.6 -10.2,1.6 -9.5,0 -18.9,-2 -27.5,-6 l -3.2,5.8 c 9.6,4.5 20.1,6.8 30.7,6.7 3.7,0 7.4,-0.3 11.1,-0.8 40,-5.7 65.3,-42.3 74.6,-58.4 z"
   class="st1"
   inkscape:connector-curvature="0"
   style="fill:#7fcbcd" />
		<path
   id="path26"
   d="m 191.9,137.6 c -7.7,10.5 -16.6,20.1 -26.7,28.4 l 2.3,2.9 c 9.9,-8.2 18.8,-17.5 26.4,-27.8 16.5,22.5 44,49.2 83.8,54.9 l 0.9,-6.6 c -40.7,-5.8 -68,-34.6 -84.2,-59.1 -0.6,-1.3 -2.5,7.3 -2.5,7.3 z"
   class="st2"
   inkscape:connector-curvature="0"
   style="fill:#e67e22" />
		<path
   id="path28"
   d="m 298.2,165 c -5.3,0.3 -10.7,0.1 -16,-0.6 -12.2,-1.7 -24.1,-6.6 -35.2,-14.5 l -3.5,4.9 c 11.9,8.4 24.7,13.7 37.8,15.6 3.9,0.6 7.9,0.9 11.9,0.9 1.7,0 3.3,-0.1 4.9,-0.2 V 165 Z"
   class="st3"
   inkscape:connector-curvature="0"
   style="fill:#f1c40f" />
		<path
   id="path30"
   d="m 186.3,105.3 -3.2,1.4 -2.7,-6.4 c -6.1,-11.6 -13.7,-22.4 -22.6,-32 l -5.2,5 c 8,8.3 14.9,17.7 20.4,27.8 l 9.6,16.8 8.2,-4.7 z"
   class="st2"
   inkscape:connector-curvature="0"
   style="fill:#e67e22" />
		<path
   id="path32"
   d="m 293.3,159.7 c -3.4,0 -6.9,-0.2 -10.3,-0.7 -42.8,-6.1 -67.9,-49.6 -72.4,-58.2 l 6.6,-3.5 c 2.6,5 26.8,48.6 66.9,54.3 3,0.4 6.1,0.7 9.2,0.7 z"
   class="st1"
   inkscape:connector-curvature="0"
   style="fill:#7fcbcd" />
		<path
   id="path34"
   d="M 352.9,82.2 C 350,72.8 344.7,64.3 337.5,57.5 328,48.4 315.8,42.6 302.8,40.8 l 1.2,-8.5 c 14.8,2 28.6,8.7 39.5,19 8.2,7.8 14.3,17.6 17.7,28.4 z"
   class="st0"
   inkscape:connector-curvature="0"
   style="fill:#008184" />
		<path
   id="path36"
   d="m 238.3,54.9 -4,-4.6 c 14.6,-12.8 30.4,-20.5 47.1,-22.9 3.9,-0.6 7.9,-0.8 11.9,-0.8 19.9,-0.2 39.1,7.4 53.6,21.1 l -4.2,4.4 c -13.3,-12.6 -31,-19.6 -49.4,-19.4 -3.7,0 -7.4,0.3 -11,0.8 -15.5,2.3 -30.3,9.5 -44,21.4 z"
   class="st0"
   inkscape:connector-curvature="0"
   style="fill:#008184" />
		<path
   id="path38"
   d="M 207.2,114.6 186,104.5 191.1,93.9 C 194.4,87 206.8,63 228.6,43.8 l 8.8,-7.8 15.5,17.7 -8.8,7.8 C 225.2,78.1 214.3,99.8 212.3,104 Z"
   class="st3"
   inkscape:connector-curvature="0"
   style="fill:#f1c40f" />
		<path
   id="path40"
   d="m 27.3,127.3 c -12,-27.4 -5.4,-59.4 16.3,-80 5,-4.8 10.7,-8.9 16.8,-12.2 l 3.5,6.5 C 58.4,44.5 53.2,48.2 48.7,52.6 29.2,71 23.3,99.7 34,124.3 Z"
   class="st0"
   inkscape:connector-curvature="0"
   style="fill:#008184" />
		<path
   id="path42"
   d="M 52.6,56.7 48.2,52.1 C 61.6,39.4 79.3,32.5 97.7,32.6 c 13.1,0 25.9,3.3 37.3,9.6 l -3.1,5.7 C 121.4,42.1 109.6,39 97.6,39 81,38.9 64.8,45.2 52.6,56.7 Z"
   class="st3"
   inkscape:connector-curvature="0"
   style="fill:#f1c40f" />
		<path
   id="path44"
   d="m 8.7,98.9 h -4 c 0,-24.1 9.9,-47.1 27.4,-63.6 l 2.7,2.8 C 18.1,53.9 8.6,75.9 8.7,98.9 Z"
   class="st3"
   inkscape:connector-curvature="0"
   style="fill:#f1c40f" />
		<path
   id="path46"
   d="M 163.9,31.9 C 148,19.2 130.6,11.5 112.2,8.8 107.4,8.1 102.5,7.8 97.7,7.8 78.9,7.7 60.5,13.1 44.7,23.3 L 41.8,18.9 C 58.5,8.2 77.9,2.5 97.7,2.6 c 5.1,0 10.2,0.4 15.3,1.1 19.4,2.8 37.6,10.9 54.2,24.1 z"
   class="st0"
   inkscape:connector-curvature="0"
   style="fill:#008184" />
		<path
   id="path48"
   d="M 200.6,65.8 190.3,58.5 C 206.8,35.2 235.3,6 277.5,0 l 1.8,12.5 c -37.7,5.4 -63.6,32 -78.7,53.3 z"
   class="st0"
   inkscape:connector-curvature="0"
   style="fill:#008184" />
		<path
   id="path50"
   d="m 212.5,67.3 -7.3,-5.5 c 14.4,-19.1 39.1,-42.9 74.3,-48 4.6,-0.7 9.2,-1 13.8,-1 11.7,0 23.3,2.2 34.2,6.4 l -3.4,8.5 c -9.8,-3.9 -20.3,-5.8 -30.8,-5.8 -4.2,0 -8.4,0.3 -12.5,0.9 -32.2,4.7 -54.9,26.8 -68.3,44.5 z"
   class="st1"
   inkscape:connector-curvature="0"
   style="fill:#7fcbcd" />
		<path
   id="path52"
   d="m 197.7,82.2 -10.2,-4.2 3,-7.5 0.3,-0.4 C 204,49.2 232.9,13.2 278.4,6.7 283.3,6 288.3,5.6 293.2,5.6 v 11 c -4.4,0 -8.9,0.3 -13.3,0.9 C 241.1,23 215.2,52 200.3,75.4 Z"
   class="st1"
   inkscape:connector-curvature="0"
   style="fill:#7fcbcd" />
		<path
   id="path54"
   d="m 197.6,70.9 -5.3,-6.5 C 184.1,52.6 174.2,42 163,32.9 l 4.9,-6.1 c 11.7,9.5 22,20.6 30.7,33 l 5,6.2 z"
   class="st1"
   inkscape:connector-curvature="0"
   style="fill:#7fcbcd" />
		<path
   id="path56"
   d="M 359.9,34.2 C 341.9,17.1 318.1,7.7 293.3,7.8 c -4.9,0 -9.7,0.3 -14.5,1 L 278,3.7 c 5.1,-0.7 10.2,-1.1 15.3,-1.1 26.1,-0.2 51.3,9.8 70.2,27.8 z"
   class="st2"
   inkscape:connector-curvature="0"
   style="fill:#e67e22" />
		<path
   id="path58"
   d="m 111,180.1 -1.9,-13.3 c 53.4,-7.6 80,-69.8 80.2,-70.4 1.2,-2.8 29.7,-69.9 90.7,-78.6 l 1.9,13.3 c -53.5,7.6 -79.9,69.8 -80.2,70.4 -1.2,2.9 -29.7,69.9 -90.7,78.6 z"
   class="st0"
   inkscape:connector-curvature="0"
   style="fill:#008184" />
		<path
   id="path60"
   d="m 54.9,166.6 5.9,-10.1 c 14.6,8.4 31.5,11.6 48.1,9 l 1.7,11.5 C 122,175.3 133,171.5 143,165.6 l -9.8,-17 c -10.8,6.3 -23,9.7 -35.5,9.7 C 81,158.5 65,152.2 53,140.8 47.4,135.4 42.8,129 39.7,121.9 l -16.8,7.4 c 4.1,9.3 10,17.8 17.4,24.8 l -0.8,0.9 c 4.6,4.4 9.8,8.3 15.4,11.6 z"
   class="st0"
   inkscape:connector-curvature="0"
   style="fill:#008184" />
		<path
   id="path62"
   d="m 97.7,183.1 c -23,0.2 -45.1,-8.6 -61.8,-24.4 l 3.7,-3.9 c 15.7,14.9 36.5,23.1 58.1,23 4.3,0 8.6,-0.3 12.8,-0.9 44,-6.3 70.6,-43.5 82.6,-65.3 l 3,-7.2 4.9,2.1 -3.2,7.6 c -12.4,22.6 -40.2,61.5 -86.6,68.1 -4.5,0.6 -9,0.9 -13.5,0.9 z"
   class="st0"
   inkscape:connector-curvature="0"
   style="fill:#008184" />
		<path
   id="path64"
   d="M 97.7,197.6 C 71,197.8 45.2,187.6 25.9,169.1 l 6.8,-7.1 c 17.5,16.7 40.8,25.9 65,25.7 4.8,0 9.5,-0.3 14.2,-1 18.3,-2.6 35.6,-10.4 51.4,-23.2 l 6.2,7.6 c -17.1,13.9 -36,22.4 -56.2,25.3 -5.2,0.8 -10.4,1.2 -15.6,1.2 z"
   class="st0"
   inkscape:connector-curvature="0"
   style="fill:#008184" />
		<path
   id="path66"
   d="m 112.3,189.8 -1.2,-8.5 c 39.5,-5.6 65.7,-35.1 80.7,-58.8 0.5,-0.8 4.5,-7.8 6,-10.7 l 7.6,4 c -1.7,3.3 -6.1,10.8 -6.2,11.1 l -0.1,0.1 c -15.9,25.3 -43.9,56.7 -86.8,62.8 z"
   class="st3"
   inkscape:connector-curvature="0"
   style="fill:#f1c40f" />
		<path
   id="path68"
   d="M 55.2,166.1 C 30.6,151.8 15.9,126.7 15.9,99 c 0,-4 0.3,-8.1 0.9,-12 l 6.1,1 c -0.6,3.7 -0.9,7.4 -0.9,11.1 0,25.5 13.6,48.6 36.3,61.8 z"
   class="st1"
   inkscape:connector-curvature="0"
   style="fill:#7fcbcd" />
		<path
   id="path70"
   d="M 25.7,88.3 14,86.5 c 3.4,-21.3 15.3,-40.3 33,-52.7 18.2,-13 40.8,-18.4 63.8,-15.1 5.2,0.7 10.3,1.9 15.3,3.6 l -3.7,11.2 C 118.1,32.1 113.6,31 109.1,30.4 68.4,24.5 31.8,50 25.7,88.3 Z"
   class="st2"
   inkscape:connector-curvature="0"
   style="fill:#e67e22" />
		<path
   id="path72"
   d="M 24.2,170.9 C 13.6,160.9 5.4,148.6 0,135.1 l 13.7,-5.4 c 4.6,11.6 11.6,22 20.6,30.6 z"
   class="st3"
   inkscape:connector-curvature="0"
   style="fill:#f1c40f" />
		<path
   id="path74"
   d="M 97.7,190.8 C 72.7,191 48.6,181.4 30.5,164.2 14.3,148.9 4.4,128 2.7,105.7 v -0.2 L 2.5,99 l 8.6,-0.3 0.2,6.4 c 1.6,20.1 10.6,39 25.2,52.9 16.5,15.7 38.5,24.4 61.2,24.2 4.5,0 9,-0.3 13.5,-1 l 1.2,8.5 c -4.9,0.8 -9.8,1.1 -14.7,1.1 z"
   class="st1"
   inkscape:connector-curvature="0"
   style="fill:#7fcbcd" />
		<path
   id="path76"
   d="m 137.1,160.9 -2.7,-4.6 2.3,-1.3 C 167,137.6 183.9,104.4 187,97.9 l 1.1,-2.4 4.8,2.3 -1.1,2.4 c -3.2,6.7 -20.8,41.3 -52.4,59.4 z"
   class="st3"
   inkscape:connector-curvature="0"
   style="fill:#f1c40f" />
		<path
   id="path78"
   d="m 203.9,95.4 c -1.7,-4 -3.7,-7.9 -5.8,-11.7 l 1.4,-0.8 C 186.9,60 158.7,20.5 111.5,13.8 c -4.6,-0.7 -9.2,-1 -13.8,-1 V 22 c 4.2,0 8.4,0.3 12.5,0.9 4.9,0.7 9.8,1.8 14.6,3.4 l -3.3,10.2 c 43.5,14.3 65.4,65.5 65.6,66 1.2,2.9 30.2,71.1 92.6,80 l 2.6,-18.1 c -52,-7.5 -78.1,-68.4 -78.4,-69 z"
   class="st0"
   inkscape:connector-curvature="0"
   style="fill:#008184" />
		<path
   id="path80"
   d="m 375.7,98.9 h -7.4 c -0.1,-20.4 -9,-39.8 -24.5,-53.1 -16.7,-14.5 -39.4,-21 -62.3,-17.7 l -1,-7.3 c 25,-3.6 49.8,3.5 68.2,19.4 17,14.8 26.9,36.2 27,58.7 z"
   class="st3"
   inkscape:connector-curvature="0"
   style="fill:#f1c40f" />
		<rect
   id="rect82"
   height="61.700001"
   width="19.9"
   class="st3"
   y="68.099998"
   x="88.400002"
   style="fill:#f1c40f" />
		<rect
   id="rect84"
   height="19.9"
   width="61.700001"
   class="st0"
   y="89"
   x="67.5"
   style="fill:#008184" />
		<path
   id="path86"
   d="m 393.9,107.9 -7.9,-0.7 c 0.3,-2.7 0.4,-5.5 0.4,-8.3 0,-24.1 -9.9,-47.2 -27.5,-63.8 l 5.5,-5.7 c 19.1,18.1 29.9,43.2 29.9,69.5 0,3 -0.1,6.1 -0.4,9 z"
   class="st1"
   inkscape:connector-curvature="0"
   style="fill:#7fcbcd" />
		<path
   id="path88"
   d="m 366.9,112.5 -5.1,-1 c 4.3,-21.9 -2.9,-44.4 -19.1,-59.7 l 3.6,-3.8 c 17.5,16.5 25.2,40.9 20.6,64.5 0,0 0,0 0,0 z"
   class="st0"
   inkscape:connector-curvature="0"
   style="fill:#008184" />
		<path
   id="path90"
   d="m 357.9,113.8 -11.9,-3 c 1,-3.9 1.5,-7.8 1.5,-11.8 0,-28 -24.3,-50.9 -54.2,-50.9 -3,0 -5.9,0.2 -8.8,0.6 -0.8,0.1 -1.6,0.2 -2.3,0.4 L 279.9,37 c 0.9,-0.2 1.9,-0.3 2.8,-0.5 3.5,-0.5 7,-0.8 10.6,-0.8 36.6,0 66.5,28.3 66.5,63.1 -0.1,5.1 -0.7,10.1 -1.9,15 z"
   class="st2"
   inkscape:connector-curvature="0"
   style="fill:#e67e22" />
		<path
   id="path92"
   d="m 259.7,50.8 -1.4,-2.5 c -28.1,15.6 -44.6,46.1 -47.6,52.1 l -3,6.1 -3.2,-1.5 -1.3,2.9 11.2,5 5,-11.2 c 2.9,-5.5 25.8,-45.8 62.7,-52.6 l -1.1,-6 c -7.5,1.4 -14.7,4 -21.3,7.7 z"
   class="st0"
   inkscape:connector-curvature="0"
   style="fill:#008184" />
		<path
   id="path94"
   d="m 293.3,185.9 c -4.7,0 -9.4,-0.3 -14,-1 -20.8,-3 -40.1,-12.6 -57.4,-28.7 l 7.5,-8.1 c 15.6,14.5 32.9,23.2 51.4,25.9 4.9,0.7 9.9,1 14.8,0.9 l 0.3,11 c -0.8,0 -1.7,0 -2.6,0 z"
   class="st1"
   inkscape:connector-curvature="0"
   style="fill:#7fcbcd" />
	</g>
</g><g
     id="g105">
		<path
   class="st4"
   d="m 319.7,163.8 h 7.9 c 9,0 12,4.3 12,11.8 0,5.7 -1.7,12.2 -12,12.2 h -7.9 z m 6,4.9 V 183 h 2.3 c 4.9,0 5.3,-3 5.3,-7.1 0,-4.7 -0.5,-7.2 -5.8,-7.2 z"
   id="path99"
   inkscape:connector-curvature="0"
   style="fill:#9e846d" />
		<path
   class="st4"
   d="m 341.6,187.9 7.5,-24.1 h 6.7 l 7.7,24.1 h -6.3 L 355.9,183 H 349 l -1.2,4.9 z m 10.6,-18.4 -2.2,8.8 h 4.5 z"
   id="path101"
   inkscape:connector-curvature="0"
   style="fill:#9e846d" />
		<path
   class="st4"
   d="m 375.5,173.6 4.3,-9.8 h 6 l -7.5,14.5 v 9.5 h -6 v -9.3 l -7.8,-14.7 h 6.4 z"
   id="path103"
   inkscape:connector-curvature="0"
   style="fill:#9e846d" />
	</g><g
     id="text941"
     style="font-style:normal;font-variant:normal;font-weight:normal;font-stretch:normal;font-size:31.73143959px;line-height:1.25;font-family:Montserrat;-inkscape-font-specification:Montserrat;letter-spacing:0px;word-spacing:0px;fill:#e67e22;fill-opacity:1;stroke:none;stroke-width:0.79328597"
     aria-label="2020"><path
       id="path943"
       style="font-style:normal;font-variant:normal;font-weight:bold;font-stretch:normal;font-family:'Bitstream Vera Sans';-inkscape-font-specification:'Bitstream Vera Sans Bold';fill:#e67e22;fill-opacity:1;stroke-width:0.79328597"
       d="m 403.29122,183.01592 h 10.17947 v 4.38476 h -16.81084 v -4.38476 l 8.44416,-7.45255 q 1.13105,-1.0226 1.67333,-1.99871 0.54229,-0.97612 0.54229,-2.0297 0,-1.62686 -1.10007,-2.61846 -1.08457,-0.99161 -2.89735,-0.99161 -1.39445,0 -3.05229,0.60426 -1.65784,0.58877 -3.5481,1.7663 v -5.08199 q 2.01421,-0.66623 3.98193,-1.0071 1.96772,-0.35636 3.85797,-0.35636 4.15236,0 6.44545,1.82828 2.30858,1.82828 2.30858,5.09748 0,1.89025 -0.97611,3.5326 -0.97611,1.62686 -4.10587,4.36927 z"
       inkscape:connector-curvature="0" /><path
       id="path945"
       style="font-style:normal;font-variant:normal;font-weight:bold;font-stretch:normal;font-family:'Bitstream Vera Sans';-inkscape-font-specification:'Bitstream Vera Sans Bold';fill:#e67e22;fill-opacity:1;stroke-width:0.79328597"
       d="m 430.80833,175.81127 q 0,-4.33828 -0.82117,-6.10459 -0.80569,-1.78179 -2.72692,-1.78179 -1.92124,0 -2.74242,1.78179 -0.82117,1.76631 -0.82117,6.10459 0,4.38476 0.82117,6.18205 0.82118,1.79729 2.74242,1.79729 1.90574,0 2.72692,-1.79729 0.82117,-1.79729 0.82117,-6.18205 z m 5.96514,0.0465 q 0,5.74822 -2.47902,8.87799 -2.47902,3.11426 -7.03421,3.11426 -4.5707,0 -7.04971,-3.11426 -2.47902,-3.12977 -2.47902,-8.87799 0,-5.76372 2.47902,-8.87799 2.47901,-3.12976 7.04971,-3.12976 4.55519,0 7.03421,3.12976 2.47902,3.11427 2.47902,8.87799 z"
       inkscape:connector-curvature="0" /><path
       id="path947"
       style="font-style:normal;font-variant:normal;font-weight:bold;font-stretch:normal;font-family:'Bitstream Vera Sans';-inkscape-font-specification:'Bitstream Vera Sans Bold';fill:#e67e22;fill-opacity:1;stroke-width:0.79328597"
       d="m 447.41776,183.01592 h 10.17947 v 4.38476 h -16.81085 v -4.38476 l 8.44416,-7.45255 q 1.13105,-1.0226 1.67334,-1.99871 0.54228,-0.97612 0.54228,-2.0297 0,-1.62686 -1.10006,-2.61846 -1.08457,-0.99161 -2.89736,-0.99161 -1.39444,0 -3.05229,0.60426 -1.65784,0.58877 -3.54809,1.7663 v -5.08199 q 2.0142,-0.66623 3.98192,-1.0071 1.96772,-0.35636 3.85797,-0.35636 4.15236,0 6.44545,1.82828 2.30859,1.82828 2.30859,5.09748 0,1.89025 -0.97612,3.5326 -0.97611,1.62686 -4.10587,4.36927 z"
       inkscape:connector-curvature="0" /><path
       id="path949"
       style="font-style:normal;font-variant:normal;font-weight:bold;font-stretch:normal;font-family:'Bitstream Vera Sans';-inkscape-font-specification:'Bitstream Vera Sans Bold';fill:#e67e22;fill-opacity:1;stroke-width:0.79328597"
       d="m 474.93487,175.81127 q 0,-4.33828 -0.82118,-6.10459 -0.80568,-1.78179 -2.72692,-1.78179 -1.92124,0 -2.74241,1.78179 -0.82118,1.76631 -0.82118,6.10459 0,4.38476 0.82118,6.18205 0.82117,1.79729 2.74241,1.79729 1.90575,0 2.72692,-1.79729 0.82118,-1.79729 0.82118,-6.18205 z m 5.96514,0.0465 q 0,5.74822 -2.47902,8.87799 -2.47902,3.11426 -7.03422,3.11426 -4.57069,0 -7.04971,-3.11426 -2.47902,-3.12977 -2.47902,-8.87799 0,-5.76372 2.47902,-8.87799 2.47902,-3.12976 7.04971,-3.12976 4.5552,0 7.03422,3.12976 2.47902,3.11427 2.47902,8.87799 z"
       inkscape:connector-curvature="0" /></g></g></svg>