<?xml version="1.0" encoding="UTF-8" standalone="no"?>
<svg
   xmlns:dc="http://purl.org/dc/elements/1.1/"
   xmlns:cc="http://creativecommons.org/ns#"
   xmlns:rdf="http://www.w3.org/1999/02/22-rdf-syntax-ns#"
   xmlns:svg="http://www.w3.org/2000/svg"
   xmlns="http://www.w3.org/2000/svg"
   xmlns:sodipodi="http://sodipodi.sourceforge.net/DTD/sodipodi-0.dtd"
   xmlns:inkscape="http://www.inkscape.org/namespaces/inkscape"
   width="480.9"
   height="197.586"
   viewBox="0 0 480.9 197.586"
   version="1.1"
   id="svg84"
   sodipodi:docname="Arduino_DAY2018_Logotype.svg"
   inkscape:version="0.92.3 (2405546, 2018-03-11)">
  <metadata
     id="metadata90">
    <rdf:RDF>
      <cc:Work
         rdf:about="">
        <dc:format>image/svg+xml</dc:format>
        <dc:type
           rdf:resource="http://purl.org/dc/dcmitype/StillImage" />
      </cc:Work>
    </rdf:RDF>
  </metadata>
  <defs
     id="defs88" />
  <sodipodi:namedview
     pagecolor="#ffffff"
     bordercolor="#666666"
     borderopacity="1"
     objecttolerance="10"
     gridtolerance="10"
     guidetolerance="10"
     inkscape:pageopacity="0"
     inkscape:pageshadow="2"
     inkscape:window-width="1920"
     inkscape:window-height="1016"
     id="namedview86"
     showgrid="false"
     inkscape:zoom="1.7924725"
     inkscape:cx="293.91775"
     inkscape:cy="21.301495"
     inkscape:window-x="0"
     inkscape:window-y="27"
     inkscape:window-maximized="1"
     inkscape:current-layer="svg84" />
  <title
     id="title2">Arduino_DAY2018_Logotype</title>
  <path
     d="M318.342 153.071l7.414-23.627h6.579l7.524 23.627h-6.214l-1.31-4.834h-6.8l-1.2 4.834zm10.468-18.029l-2.144 8.651h4.47zM343.605 129.444h9.523c6.542 0 9.014 3.345 9.014 7.889 0 3.234-1.308 5.706-3.889 7.087l4.616 8.651h-6.906l-3.562-7.491h-2.944v7.487h-5.852zm12.322 7.924c0-2.108-.764-3.161-3.49-3.161h-2.98v6.687h3.09c2.035 0 3.38-.908 3.38-3.526zM366.871 129.444h7.741c8.832 0 11.777 4.181 11.777 11.6 0 5.6-1.708 12.031-11.74 12.031h-7.778zm5.85 4.763v14.03h2.216c4.835 0 5.2-2.945 5.2-6.943 0-4.616-.473-7.087-5.706-7.087zM403.692 129.444h5.629v15.521c0 6.979-5.342 8.47-9.522 8.47-4.035 0-9.2-1.345-9.2-8.507v-15.484h5.852v14.4c0 3.925 1.381 4.833 3.6 4.833 2.654 0 3.635-1.2 3.635-4.8zM414.561 148.237h6.107V134.28h-6.107v-4.835h18.1v4.835h-6.14v13.958h6.143v4.834h-18.1zM443.021 153.071h-5.525v-23.627h6.362l7.668 14.176v-14.176h5.452v23.627h-5.923l-8.07-15.12zM480.9 141.258c0 6.833-2.508 12.177-10.1 12.177-6.8 0-9.924-4.109-9.924-11.923 0-7.124 2.726-12.4 9.888-12.4 6.719.005 10.136 3.131 10.136 12.146zm-6.215 0c0-5.779-.472-7.378-3.925-7.378-3.126 0-3.672 1.853-3.672 7.632 0 4.761.327 7.16 3.708 7.16 3.417 0 3.889-1.962 3.889-7.414z"
     fill="#00878f"
     id="path4" />
  <path
     d="M131.969 47.9l.872-1.613a75.477 75.477 0 0 0-24.769-8.328 74.225 74.225 0 0 0-10.377-.74c-27.6 0-52.288 16.6-61.44 41.308l8.882 3.289c7.782-21.009 28.9-35.124 52.558-35.124a64.539 64.539 0 0 1 9.042.645c16.037 2.291 31.447 11.039 45.8 26l5.229-5.018A103.03 103.03 0 0 0 131.969 47.9z"
     fill="#62aeb2"
     id="path6" />
  <path
     d="M67.21 158.517c-23.789-11.059-39.16-34.447-39.16-59.582a63.909 63.909 0 0 1 10.776-35.588 67.022 67.022 0 0 1 9.416-11.21l4.367 4.562a60.666 60.666 0 0 0-8.53 10.151 57.619 57.619 0 0 0-9.715 32.085c0 23.038 13.605 43.675 35.508 53.855zM183.092 106.691l-2.739-6.389a96.783 96.783 0 0 0-1.012-1.933c-4.8 9.08-30.022 53.416-71.5 59.339-3.387.485-6.88 1.592-10.183 1.592a64.857 64.857 0 0 1-27.538-6.044l-3.162 5.795a72.3 72.3 0 0 0 30.7 6.743 78.853 78.853 0 0 0 11.134-.8c40.019-5.715 65.279-42.317 74.582-58.422z"
     fill="#62aeb2"
     id="path8" />
  <path
     d="M191.866 137.55a153.811 153.811 0 0 1-26.674 28.371l2.318 2.854a156.632 156.632 0 0 0 26.442-27.847c16.509 22.525 43.976 49.245 83.794 54.929l.943-6.6c-40.7-5.81-67.953-34.586-84.16-59.075-.764-1.158-2.663 7.368-2.663 7.368z"
     fill="#e47128"
     id="path10" />
  <path
     d="M298.221 165a77.194 77.194 0 0 1-15.97-.622c-12.228-1.748-24.078-6.63-35.223-14.511l-3.465 4.9c11.929 8.435 24.659 13.668 37.838 15.552a84.32 84.32 0 0 0 11.891.854c1.651 0 3.293-.063 4.929-.163z"
     fill="#e5ad24"
     id="path12" />
  <path
     d="M186.261 105.332l-3.169 1.359-2.739-6.389a147.169 147.169 0 0 0-22.584-31.983l-5.229 5.018a131.865 131.865 0 0 1 20.425 27.84l9.612 16.774 8.217-4.711z"
     fill="#e47128"
     id="path14" />
  <path
     d="M293.291 159.662a72.279 72.279 0 0 1-10.263-.738c-42.807-6.113-67.851-49.576-72.436-58.228l6.623-3.509c2.628 4.957 26.83 48.6 66.878 54.318a64.875 64.875 0 0 0 9.2.663z"
     fill="#62aeb2"
     id="path16" />
  <path
     d="M352.937 82.235a58.032 58.032 0 0 0-15.392-24.72 62.705 62.705 0 0 0-34.739-16.726l1.213-8.492a71.216 71.216 0 0 1 39.456 19.02 66.623 66.623 0 0 1 17.661 28.393z"
     fill="#00878f"
     id="path18" />
  <path
     d="M238.345 54.946l-4.043-4.6c14.56-12.787 30.4-20.478 47.089-22.858a84.063 84.063 0 0 1 11.868-.849 77.018 77.018 0 0 1 53.6 21.139l-4.236 4.427a70.924 70.924 0 0 0-49.367-19.439 77.931 77.931 0 0 0-11 .788c-15.487 2.206-30.261 9.405-43.911 21.392z"
     fill="#00878f"
     id="path20" />
  <path
     d="M207.221 114.623l-21.253-10.11 5.054-10.627c3.283-6.9 15.692-30.9 37.54-50.085l8.844-7.764 15.525 17.688-8.843 7.763c-18.945 16.63-29.826 38.329-31.814 42.509z"
     fill="#e5ad24"
     id="path22" />
  <path
     d="M27.321 127.312a70.986 70.986 0 0 1 16.331-79.979A75.906 75.906 0 0 1 60.465 35.18l3.455 6.49a68.6 68.6 0 0 0-15.186 10.978 63.639 63.639 0 0 0-14.681 71.712z"
     fill="#00878f"
     id="path24" />
  <path
     d="M52.645 56.739l-4.439-4.642a71.121 71.121 0 0 1 49.489-19.481 76.925 76.925 0 0 1 37.326 9.633l-3.055 5.651a70.529 70.529 0 0 0-34.274-8.86 64.736 64.736 0 0 0-45.047 17.699zM8.657 98.935H4.735a87.4 87.4 0 0 1 27.4-63.645l2.711 2.834A83.513 83.513 0 0 0 8.657 98.935z"
     fill="#e5ad24"
     id="path26" />
  <path
     d="M163.856 31.893C148.01 19.225 130.639 11.469 112.228 8.84a103.249 103.249 0 0 0-14.533-1.036 96.644 96.644 0 0 0-52.953 15.511l-2.856-4.381A101.861 101.861 0 0 1 97.695 2.573a108.65 108.65 0 0 1 15.273 1.089c19.353 2.763 37.568 10.887 54.153 24.145zM200.639 65.841l-10.318-7.281C206.827 35.16 235.345 6.014 277.467 0l1.785 12.5c-37.663 5.38-63.538 31.98-78.613 53.341z"
     fill="#00878f"
     id="path28" />
  <path
     d="M212.453 67.348l-7.3-5.52c14.446-19.11 39.063-42.947 74.293-47.973a97.821 97.821 0 0 1 13.814-.988 92.6 92.6 0 0 1 34.186 6.438l-3.363 8.512a83.5 83.5 0 0 0-30.823-5.8 88.791 88.791 0 0 0-12.52.895c-32.146 4.59-54.878 26.698-68.287 44.436z"
     fill="#62aeb2"
     id="path30" />
  <path
     d="M197.734 82.25l-10.213-4.158 3.037-7.463.262-.413c13.188-20.874 42.109-56.862 87.627-63.356a104.984 104.984 0 0 1 14.814-1.058v11.029a94.288 94.288 0 0 0-13.254.947c-38.844 5.542-64.694 34.458-79.6 57.918z"
     fill="#62aeb2"
     id="path32" />
  <path
     d="M197.56 70.946l-5.285-6.484a153.446 153.446 0 0 0-29.235-31.549l4.9-6.128a161.149 161.149 0 0 1 30.667 33.04l5.031 6.159z"
     fill="#62aeb2"
     id="path34" />
  <path
     d="M359.884 34.17a95.766 95.766 0 0 0-66.625-26.366 103.274 103.274 0 0 0-14.531 1.036l-.738-5.178a108.626 108.626 0 0 1 15.269-1.089 100.97 100.97 0 0 1 70.24 27.818z"
     fill="#e47128"
     id="path36" />
  <path
     d="M110.953 180.085l-1.906-13.346c53.362-7.618 79.951-69.773 80.213-70.4 1.181-2.841 29.705-69.851 90.745-78.562l1.9 13.346c-53.525 7.638-79.944 69.773-80.2 70.4-1.184 2.849-29.728 69.849-90.752 78.562z"
     fill="#00878f"
     id="path38" />
  <path
     d="M54.884 166.593l5.852-10.072a73.969 73.969 0 0 0 48.135 9.006l1.65 11.526a90.668 90.668 0 0 0 32.4-11.353l-9.766-17a69.763 69.763 0 0 1-35.5 9.671 64.2 64.2 0 0 1-44.7-17.576 58.643 58.643 0 0 1-13.3-18.889l-16.821 7.374a77.16 77.16 0 0 0 17.419 24.8l-.848.886a81.958 81.958 0 0 0 15.479 11.627z"
     fill="#00878f"
     id="path40" />
  <path
     d="M97.665 183.104a88.84 88.84 0 0 1-61.8-24.442l3.7-3.868a83.5 83.5 0 0 0 58.1 22.956 90.771 90.771 0 0 0 12.827-.921c44.007-6.285 70.608-43.525 82.582-65.257l3.031-7.192 4.932 2.084-3.211 7.564c-12.424 22.588-40.193 61.472-86.582 68.1a96.1 96.1 0 0 1-13.579.976z"
     fill="#00878f"
     id="path42" />
  <path
     d="M97.665 197.586a103.253 103.253 0 0 1-71.816-28.463l6.78-7.084A93.482 93.482 0 0 0 97.66 187.78a100.634 100.634 0 0 0 14.243-1.022c18.344-2.621 35.622-10.432 51.357-23.216l6.182 7.609c-17.134 13.92-36.025 22.437-56.15 25.312a110.523 110.523 0 0 1-15.627 1.123z"
     fill="#00878f"
     id="path44" />
  <path
     d="M112.339 189.79l-1.213-8.492c39.533-5.645 65.689-35.059 80.682-58.772.459-.8 4.5-7.8 6.042-10.742l7.594 3.993c-1.712 3.254-6.065 10.793-6.25 11.113l-.087.145c-15.952 25.254-43.954 56.645-86.768 62.755z"
     fill="#e5ad24"
     id="path46" />
  <path
     d="M55.196 166.058c-24.613-14.292-39.307-39.385-39.307-67.123a76.869 76.869 0 0 1 .945-12.028l6.051.961a70.8 70.8 0 0 0-.869 11.067c0 25.529 13.554 48.641 36.256 61.824z"
     fill="#62aeb2"
     id="path48" />
  <path
     d="M25.671 88.31l-11.623-1.844a80.012 80.012 0 0 1 32.991-52.735c18.191-13.013 40.842-18.38 63.8-15.106a89.945 89.945 0 0 1 15.306 3.584l-3.673 11.18a78.223 78.223 0 0 0-13.3-3.114C68.444 24.48 31.758 49.958 25.671 88.31z"
     fill="#e47128"
     id="path50" />
  <path
     d="M24.156 170.894A99.691 99.691 0 0 1 0 135.051l13.691-5.371a85.118 85.118 0 0 0 20.63 30.588z"
     fill="#e5ad24"
     id="path52" />
  <path
     d="M97.665 190.843a96.542 96.542 0 0 1-67.157-26.591 90.28 90.28 0 0 1-27.847-58.507l-.009-.159-.242-6.491 8.572-.32.239 6.41a81.724 81.724 0 0 0 25.218 52.87 88.006 88.006 0 0 0 61.221 24.21 95.3 95.3 0 0 0 13.465-.967l1.215 8.492a104.1 104.1 0 0 1-14.675 1.053z"
     fill="#62aeb2"
     id="path54" />
  <path
     d="M137.051 160.853l-2.666-4.644 2.322-1.332c30.274-17.379 47.185-50.6 50.268-57.085l1.146-2.412 4.834 2.3-1.15 2.417c-3.2 6.735-20.781 41.258-52.436 59.429z"
     fill="#e5ad24"
     id="path56" />
  <path
     d="M203.932 95.419a127.9 127.9 0 0 0-5.807-11.728l1.363-.751c-12.627-22.914-40.847-62.36-87.973-69.085a97.9 97.9 0 0 0-13.82-.988v9.153a88.876 88.876 0 0 1 12.526.895 86.626 86.626 0 0 1 14.572 3.4l-3.348 10.178c43.5 14.308 65.375 65.454 65.586 65.956 1.206 2.9 30.249 71.12 92.633 80.024l2.586-18.121c-51.979-7.42-78.064-68.328-78.318-68.933z"
     fill="#00878f"
     id="path58" />
  <path
     d="M375.655 98.935h-7.353a70.439 70.439 0 0 0-24.514-53.13c-16.736-14.519-39.445-20.973-62.313-17.715l-1.037-7.279c24.973-3.565 49.822 3.523 68.168 19.439a77.789 77.789 0 0 1 27.049 58.685zM88.387 68.092h19.887v61.699H88.387z"
     fill="#e5ad24"
     id="path60" />
  <path
     fill="#00878f"
     d="M67.481 88.999h61.695v19.89H67.481z"
     id="path62" />
  <path
     d="M393.894 107.923l-7.859-.729a90.03 90.03 0 0 0 .379-8.259 87.63 87.63 0 0 0-27.451-63.8l5.457-5.7a95.456 95.456 0 0 1 29.886 69.506c0 3.003-.138 6.027-.412 8.982z"
     fill="#62aeb2"
     id="path64" />
  <path
     d="M366.853 112.516l-5.132-1.02a64.779 64.779 0 0 0-19.058-59.725l3.615-3.78a70.023 70.023 0 0 1 20.574 64.525z"
     fill="#00878f"
     id="path66" />
  <path
     d="M357.868 113.78l-11.875-3.028a47.92 47.92 0 0 0 1.474-11.814c0-28.039-24.318-50.851-54.208-50.851a63.309 63.309 0 0 0-8.845.632q-1.174.168-2.342.384l-2.211-12.059a73.013 73.013 0 0 1 2.827-.462 75.525 75.525 0 0 1 10.571-.755c36.648 0 66.463 28.311 66.463 63.108a60.187 60.187 0 0 1-1.854 14.845z"
     fill="#e47128"
     id="path68" />
  <path
     d="M259.678 50.848l-1.413-2.549c-28.135 15.6-44.606 46.13-47.623 52.093l-2.979 6.064-3.152-1.549-1.3 2.885 11.179 5.02 5.012-11.162c2.948-5.463 25.839-45.765 62.673-52.552l-1.106-6.018a70.294 70.294 0 0 0-21.291 7.768z"
     fill="#00878f"
     id="path70" />
  <path
     d="M293.291 185.942a99.216 99.216 0 0 1-13.985-1c-20.8-2.971-40.108-12.638-57.375-28.732l7.52-8.068c15.586 14.527 32.885 23.235 51.415 25.882a90.19 90.19 0 0 0 14.811.861l.258 11.027c-.881.017-1.761.03-2.644.03z"
     fill="#62aeb2"
     id="path72" />
  <g
     style="fill:#8c7965"
     id="g76">
    <path
       inkscape:connector-curvature="0"
       id="path74"
       d="m 319.709,163.806 h 7.881 c 8.992,0 11.989,4.256 11.989,11.8 0,5.7 -1.739,12.249 -11.952,12.249 h -7.918 z m 5.957,4.847 v 14.284 h 2.255 c 4.921,0 5.292,-3 5.292,-7.069 0,-4.7 -0.482,-7.215 -5.81,-7.215 z m 15.909,19.205 7.548,-24.052 h 6.7 l 7.66,24.052 h -6.327 l -1.333,-4.921 h -6.922 l -1.221,4.921 z m 10.656,-18.354 -2.182,8.807 h 4.55 z m 23.273,4.145 4.255,-9.843 h 5.962 l -7.512,14.542 v 9.51 h -5.957 v -9.325 l -7.771,-14.727 h 6.44 z" />
  </g>
  <g
     aria-label="2019"
     style="font-style:normal;font-weight:normal;font-size:40px;line-height:1.25;font-family:sans-serif;letter-spacing:0px;word-spacing:0px;fill:#e47128;fill-opacity:1;stroke:none"
     id="text904">
    <path
       d="m 389.67993,189.21768 h 18.52 v -3.92 h -7.2 c -1.4,0 -3.16,0.16 -4.64,0.28 5.92,-5.32 10.52,-9.96 10.52,-14.48 0,-4.72 -3.44,-7.8 -8.68,-7.8 -3.72,0 -6.28,1.44 -8.72,3.92 l 2.52,2.56 c 1.52,-1.52 3.4,-2.84 5.6,-2.84 3.2,0 4.88,1.72 4.88,4.4 0,3.96 -4.84,8.36 -12.8,15.2 z"
       style="font-style:normal;font-variant:normal;font-weight:600;font-stretch:normal;font-family:'Source Code Pro';-inkscape-font-specification:'Source Code Pro Semi-Bold'"
       id="path906" />
    <path
       d="m 423.0643,189.69768 c 5.8,0 9.44,-4.76 9.44,-13.32 0,-8.6 -3.64,-13.08 -9.44,-13.08 -5.8,0 -9.44,4.48 -9.44,13.08 0,8.56 3.64,13.32 9.44,13.32 z m 0,-3.6 c -3.04,0 -5.28,-2.76 -5.28,-9.72 0,-6.96 2.24,-9.48 5.28,-9.48 3.04,0 5.28,2.52 5.28,9.48 0,6.96 -2.24,9.72 -5.28,9.72 z m 0,-7.04 c 1.52,0 2.76,-1.08 2.76,-2.84 0,-1.76 -1.24,-2.84 -2.76,-2.84 -1.52,0 -2.76,1.08 -2.76,2.84 0,1.76 1.24,2.84 2.76,2.84 z"
       style="font-style:normal;font-variant:normal;font-weight:600;font-stretch:normal;font-family:'Source Code Pro';-inkscape-font-specification:'Source Code Pro Semi-Bold'"
       id="path908" />
    <path
       d="m 438.64868,189.21768 h 17.68 v -3.76 h -6.2 v -21.68 h -3.4 c -1.76,0.96 -3.76,1.6 -6.56,2.08 v 2.88 h 5.36 v 16.72 h -6.88 z"
       style="font-style:normal;font-variant:normal;font-weight:600;font-stretch:normal;font-family:'Source Code Pro';-inkscape-font-specification:'Source Code Pro Semi-Bold'"
       id="path910" />
    <path
       d="m 470.27305,176.17768 c -2.88,0 -4.6,-1.52 -4.6,-4.56 0,-3.08 2.12,-4.8 4.64,-4.8 2.84,0 5,1.88 5.56,6.36 -1.72,2.12 -3.8,3 -5.6,3 z m -0.8,13.52 c 5.56,0 10.8,-4.12 10.8,-14 0,-8.56 -4.64,-12.4 -10.04,-12.4 -4.68,0 -8.8,3.24 -8.8,8.32 0,5.32 3.32,7.88 7.92,7.88 2.2,0 4.68,-1.16 6.68,-3.04 -0.24,7.08 -3.36,9.48 -6.92,9.48 -1.84,0 -3.6,-0.8 -4.8,-1.92 l -2.48,2.8 c 1.72,1.6 4.28,2.88 7.64,2.88 z"
       style="font-style:normal;font-variant:normal;font-weight:600;font-stretch:normal;font-family:'Source Code Pro';-inkscape-font-specification:'Source Code Pro Semi-Bold'"
       id="path912" />
  </g>
</svg>
