<svg xmlns="http://www.w3.org/2000/svg" xmlns:xlink="http://www.w3.org/1999/xlink" width="2203.018" height="600" viewBox="0 0 2203.018 600"><path fill="#007280" d="M775.008 373.996l-.006 3.709h3.722v3.529h-3.722v3.711h-3.513v-3.711h-3.73v-3.529h3.73l-.005-3.709z"/><path fill="#947D65" d="M1186.637 376.415a3.935 3.935 0 0 0 0 5.565 3.936 3.936 0 1 0 5.571-5.565 3.94 3.94 0 0 0-5.571 0"/><g opacity=".2"><defs><path id="a" transform="translate(-1.464 3.5)" d="M1080.403 559.845h510.716v1.258h-510.716z"/></defs><clipPath id="b"><use xlink:href="#a" overflow="visible"/></clipPath><path clip-path="url(#b)" fill="none" stroke="#D35400" stroke-width="1.258" stroke-miterlimit="10" d="M1591.118 559.805l-510.714 1.338"/></g><g opacity=".2"><defs><path id="c" transform="translate(-1.46 5.596)" d="M1880.405 559.845h510.716v1.258h-510.716z"/></defs><clipPath id="d"><use xlink:href="#c" overflow="visible"/></clipPath><path clip-path="url(#d)" fill="none" stroke="#D35400" stroke-width="1.258" stroke-miterlimit="10" d="M2391.119 559.805l-510.713 1.338"/></g><g opacity=".2"><defs><path id="e" d="M1183.697 451.298h193.911v1.258h-193.911z"/></defs><clipPath id="f"><use xlink:href="#e" overflow="visible"/></clipPath><path clip-path="url(#f)" fill="none" stroke="#D35400" stroke-width="1.258" stroke-miterlimit="10" d="M1377.608 451.927h-193.911"/></g><g opacity=".2"><defs><path id="g" d="M985.54 415.233h392.067v1.258H985.54z"/></defs><clipPath id="h"><use xlink:href="#g" overflow="visible"/></clipPath><path clip-path="url(#h)" fill="none" stroke="#D35400" stroke-width="1.258" stroke-miterlimit="10" d="M1377.608 415.862H985.539"/></g><g opacity=".2"><defs><path id="i" d="M-78.46 415.233h392.067v1.258H-78.46z"/></defs><clipPath id="j"><use xlink:href="#i" overflow="visible"/></clipPath><path clip-path="url(#j)" fill="none" stroke="#D35400" stroke-width="1.258" stroke-miterlimit="10" d="M313.608 415.862H-78.461"/></g><g opacity=".2"><defs><path id="k" d="M2042.697 451.298h193.911v1.258h-193.911z"/></defs><clipPath id="l"><use xlink:href="#k" overflow="visible"/></clipPath><path clip-path="url(#l)" fill="none" stroke="#D35400" stroke-width="1.258" stroke-miterlimit="10" d="M2236.608 451.927h-193.911"/></g><g opacity=".2"><defs><path id="m" d="M1844.54 415.233h392.067v1.258H1844.54z"/></defs><clipPath id="n"><use xlink:href="#m" overflow="visible"/></clipPath><path clip-path="url(#n)" fill="none" stroke="#D35400" stroke-width="1.258" stroke-miterlimit="10" d="M2236.607 415.862h-392.068"/></g><g opacity=".2"><defs><path id="o" d="M551.506 596.668h1076.256v1.258H551.506z"/></defs><clipPath id="p"><use xlink:href="#o" overflow="visible"/></clipPath><path clip-path="url(#p)" fill="none" stroke="#D35400" stroke-width="1.258" stroke-miterlimit="10" d="M1627.761 597.297H551.512"/></g><g opacity=".2"><defs><path id="q" d="M-24.001 560.465h923.198v1.258H-24.001z"/></defs><clipPath id="r"><use xlink:href="#q" overflow="visible"/></clipPath><path clip-path="url(#r)" fill="none" stroke="#D35400" stroke-width="1.258" stroke-miterlimit="10" d="M899.201 561.276l-923.2-.364"/></g><g opacity=".2"><defs><path id="s" d="M-24 524.15h924.587v1.258H-24z"/></defs><clipPath id="t"><use xlink:href="#s" overflow="visible"/></clipPath><path clip-path="url(#t)" fill="none" stroke="#D35400" stroke-width="1.258" stroke-miterlimit="10" d="M900.589 524.778H-23.997"/></g><g opacity=".2"><defs><path id="u" d="M-24.517 451.225h925.103v1.258H-24.517z"/></defs><clipPath id="v"><use xlink:href="#u" overflow="visible"/></clipPath><path clip-path="url(#v)" fill="none" stroke="#D35400" stroke-width="1.258" stroke-miterlimit="10" d="M900.589 451.854H-24.514"/></g><g opacity=".2"><defs><path id="w" d="M645.345 415.15h255.242v1.258H645.345z"/></defs><clipPath id="x"><use xlink:href="#w" overflow="visible"/></clipPath><path clip-path="url(#x)" fill="none" stroke="#D35400" stroke-width="1.258" stroke-miterlimit="10" d="M900.589 415.779H645.343"/></g><g opacity=".2"><defs><path id="y" d="M-24 487.701h2235.009v1.258H-24z"/></defs><clipPath id="z"><use xlink:href="#y" overflow="visible"/></clipPath><path clip-path="url(#z)" fill="none" stroke="#D35400" stroke-width="1.258" stroke-miterlimit="10" d="M2211.009 488.329H-24.001"/></g><g opacity=".2"><defs><path id="A" d="M551.51 378.645h1659.498v1.258H551.51z"/></defs><clipPath id="B"><use xlink:href="#A" overflow="visible"/></clipPath><path clip-path="url(#B)" fill="none" stroke="#D35400" stroke-width="1.258" stroke-miterlimit="10" d="M2211.009 379.274H551.516"/></g><g opacity=".2"><defs><path id="C" d="M571.667 342.598H2211v1.258H571.667z"/></defs><clipPath id="D"><use xlink:href="#C" overflow="visible"/></clipPath><path clip-path="url(#D)" fill="none" stroke="#D35400" stroke-width="1.258" stroke-miterlimit="10" d="M2211 343.226H571.667"/></g><g opacity=".2"><defs><path id="E" d="M1164.805 306.217h212.803v1.258h-212.803z"/></defs><clipPath id="F"><use xlink:href="#E" overflow="visible"/></clipPath><path clip-path="url(#F)" fill="none" stroke="#D35400" stroke-width="1.258" stroke-miterlimit="10" d="M1377.608 306.859l-212.803-.025"/></g><g opacity=".2"><defs><path id="G" d="M-34.999 269.88h679.708v1.258H-34.999z"/></defs><clipPath id="H"><use xlink:href="#G" overflow="visible"/></clipPath><path clip-path="url(#H)" fill="none" stroke="#D35400" stroke-width="1.258" stroke-miterlimit="10" d="M644.709 270.509H-34.999"/></g><g opacity=".2"><defs><path id="I" d="M1298.515 233.668h328v1.259h-328z"/></defs><clipPath id="J"><use xlink:href="#I" overflow="visible"/></clipPath><path clip-path="url(#J)" fill="none" stroke="#D35400" stroke-width="1.258" stroke-miterlimit="10" d="M1626.511 234.297h-327.994"/></g><g opacity=".2"><defs><path id="K" d="M-35 196.71h644.64v1.258H-35z"/></defs><clipPath id="L"><use xlink:href="#K" overflow="visible"/></clipPath><path clip-path="url(#L)" fill="none" stroke="#D35400" stroke-width="1.258" stroke-miterlimit="10" d="M609.641 197.339h-644.64"/></g><g opacity=".2"><defs><path id="M" d="M644.713 88.301h254.964v1.258H644.713z"/></defs><clipPath id="N"><use xlink:href="#M" overflow="visible"/></clipPath><path clip-path="url(#N)" fill="none" stroke="#D35400" stroke-width="1.258" stroke-miterlimit="10" d="M899.682 88.93H644.719"/></g><g opacity=".2"><defs><path id="O" d="M1444.186 88.301h766.812v1.258h-766.812z"/></defs><clipPath id="P"><use xlink:href="#O" overflow="visible"/></clipPath><path clip-path="url(#P)" fill="none" stroke="#D35400" stroke-width="1.258" stroke-miterlimit="10" d="M2211.003 88.93H1444.19"/></g><g opacity=".2"><defs><path id="Q" d="M551.509 51.979h826.098v1.258H551.509z"/></defs><clipPath id="R"><use xlink:href="#Q" overflow="visible"/></clipPath><path clip-path="url(#R)" fill="none" stroke="#D35400" stroke-width="1.258" stroke-miterlimit="10" d="M1377.615 52.608H551.506"/></g><g opacity=".2"><defs><path id="S" d="M-633.491 51.979h826.098v1.258h-826.098z"/></defs><clipPath id="T"><use xlink:href="#S" overflow="visible"/></clipPath><path clip-path="url(#T)" fill="none" stroke="#D35400" stroke-width="1.258" stroke-miterlimit="10" d="M192.615 52.608h-826.109"/></g><g opacity=".2"><defs><path id="U" d="M-633.491 26.119h826.098v1.258h-826.098z"/></defs><clipPath id="V"><use xlink:href="#U" overflow="visible"/></clipPath><path clip-path="url(#V)" fill="none" stroke="#D35400" stroke-width="1.258" stroke-miterlimit="10" d="M192.615 26.748h-826.109"/></g><g opacity=".2"><defs><path id="W" d="M935.489 124.784h1275.513v1.258H935.489z"/></defs><clipPath id="X"><use xlink:href="#W" overflow="visible"/></clipPath><path clip-path="url(#X)" fill="none" stroke="#D35400" stroke-width="1.258" stroke-miterlimit="10" d="M2211.002 125.413H935.487"/></g><g opacity=".2"><defs><path id="Y" d="M1371.117 559.769h1.255v57.664h-1.255z"/></defs><clipPath id="Z"><use xlink:href="#Y" overflow="visible"/></clipPath><path clip-path="url(#Z)" fill="none" stroke="#D35400" stroke-width="1.258" stroke-miterlimit="10" d="M1371.746 559.769v57.664"/></g><g opacity=".2"><defs><path id="aa" d="M1298.512.942h1.255v616.491h-1.255z"/></defs><clipPath id="ab"><use xlink:href="#aa" overflow="visible"/></clipPath><path clip-path="url(#ab)" fill="none" stroke="#D35400" stroke-width="1.258" stroke-miterlimit="10" d="M1299.139.942v616.491"/></g><g opacity=".2"><defs><path id="ac" d="M1261.864.942h1.258v616.491h-1.258z"/></defs><clipPath id="ad"><use xlink:href="#ac" overflow="visible"/></clipPath><path clip-path="url(#ad)" fill="none" stroke="#D35400" stroke-width="1.258" stroke-miterlimit="10" d="M1262.492.942v616.491"/></g><g opacity=".2"><defs><path id="ae" d="M1335.159.942h1.255v616.492h-1.255z"/></defs><clipPath id="af"><use xlink:href="#ae" overflow="visible"/></clipPath><path clip-path="url(#af)" fill="none" stroke="#D35400" stroke-width="1.258" stroke-miterlimit="10" d="M1335.786.942v616.492"/></g><g opacity=".2"><defs><path id="ag" d="M1444.186.942h1.255v616.491h-1.255z"/></defs><clipPath id="ah"><use xlink:href="#ag" overflow="visible"/></clipPath><path clip-path="url(#ah)" fill="none" stroke="#D35400" stroke-width="1.258" stroke-miterlimit="10" d="M1444.814.942v616.491"/></g><g opacity=".2"><defs><path id="ai" d="M1407.538.942h1.258v616.491h-1.258z"/></defs><clipPath id="aj"><use xlink:href="#ai" overflow="visible"/></clipPath><path clip-path="url(#aj)" fill="none" stroke="#D35400" stroke-width="1.258" stroke-miterlimit="10" d="M1408.167.942v616.491"/></g><g opacity=".2"><defs><path id="ak" d="M1480.833.942h1.255v616.491h-1.255z"/></defs><clipPath id="al"><use xlink:href="#ak" overflow="visible"/></clipPath><path clip-path="url(#al)" fill="none" stroke="#D35400" stroke-width="1.258" stroke-miterlimit="10" d="M1481.461.942v616.491"/></g><g opacity=".2"><defs><path id="am" d="M1589.86.942h1.255v616.492h-1.255z"/></defs><clipPath id="an"><use xlink:href="#am" overflow="visible"/></clipPath><path clip-path="url(#an)" fill="none" stroke="#D35400" stroke-width="1.258" stroke-miterlimit="10" d="M1590.488.942v616.492"/></g><g opacity=".2"><defs><path id="ao" d="M1553.212 124.58h1.258v492.853h-1.258z"/></defs><clipPath id="ap"><use xlink:href="#ao" overflow="visible"/></clipPath><path clip-path="url(#ap)" fill="none" stroke="#D35400" stroke-width="1.258" stroke-miterlimit="10" d="M1553.841 124.58v492.853"/></g><g opacity=".2"><defs><path id="aq" d="M1626.508.942h1.255v616.491h-1.255z"/></defs><clipPath id="ar"><use xlink:href="#aq" overflow="visible"/></clipPath><path clip-path="url(#ar)" fill="none" stroke="#D35400" stroke-width="1.258" stroke-miterlimit="10" d="M1627.135.942v616.491"/></g><g opacity=".2"><defs><path id="as" d="M68.353.942h1.255v616.491h-1.255z"/></defs><clipPath id="at"><use xlink:href="#as" overflow="visible"/></clipPath><path clip-path="url(#at)" fill="none" stroke="#D35400" stroke-width="1.258" stroke-miterlimit="10" d="M68.98.942v616.491"/></g><g opacity=".2"><defs><path id="au" d="M31.705.942h1.258v616.491h-1.258z"/></defs><clipPath id="av"><use xlink:href="#au" overflow="visible"/></clipPath><path clip-path="url(#av)" fill="none" stroke="#D35400" stroke-width="1.258" stroke-miterlimit="10" d="M32.333.942v616.491"/></g><g opacity=".2"><defs><path id="aw" d="M105 .942h1.255v616.491H105z"/></defs><clipPath id="ax"><use xlink:href="#aw" overflow="visible"/></clipPath><path clip-path="url(#ax)" fill="none" stroke="#D35400" stroke-width="1.258" stroke-miterlimit="10" d="M105.628.942v616.491"/></g><g opacity=".2"><defs><path id="ay" d="M214.027.942h1.255v616.492h-1.255z"/></defs><clipPath id="az"><use xlink:href="#ay" overflow="visible"/></clipPath><path clip-path="url(#az)" fill="none" stroke="#D35400" stroke-width="1.258" stroke-miterlimit="10" d="M214.655.942v616.492"/></g><g opacity=".2"><defs><path id="aA" d="M250.674.942h1.255v616.491h-1.255z"/></defs><clipPath id="aB"><use xlink:href="#aA" overflow="visible"/></clipPath><path clip-path="url(#aB)" fill="none" stroke="#D35400" stroke-width="1.258" stroke-miterlimit="10" d="M251.302.942v616.491"/></g><g opacity=".2"><defs><path id="aC" d="M1225.789 254.662h1.255v362.772h-1.255z"/></defs><clipPath id="aD"><use xlink:href="#aC" overflow="visible"/></clipPath><path clip-path="url(#aD)" fill="none" stroke="#D35400" stroke-width="1.258" stroke-miterlimit="10" d="M1226.418 254.662v362.772"/></g><g opacity=".2"><defs><path id="aE" d="M1839.749.942h1.255v616.491h-1.255z"/></defs><clipPath id="aF"><use xlink:href="#aE" overflow="visible"/></clipPath><path clip-path="url(#aF)" fill="none" stroke="#D35400" stroke-width="1.258" stroke-miterlimit="10" d="M1840.377.942v616.491"/></g><g opacity=".2"><defs><path id="aG" d="M1803.101.942h1.258v616.491h-1.258z"/></defs><clipPath id="aH"><use xlink:href="#aG" overflow="visible"/></clipPath><path clip-path="url(#aH)" fill="none" stroke="#D35400" stroke-width="1.258" stroke-miterlimit="10" d="M1803.73.942v616.491"/></g><g opacity=".2"><defs><path id="aI" d="M1876.396.942h1.255v616.492h-1.255z"/></defs><clipPath id="aJ"><use xlink:href="#aI" overflow="visible"/></clipPath><path clip-path="url(#aJ)" fill="none" stroke="#D35400" stroke-width="1.258" stroke-miterlimit="10" d="M1877.024.942v616.492"/></g><g opacity=".2"><defs><path id="aK" d="M1985.424.942h1.255v616.491h-1.255z"/></defs><clipPath id="aL"><use xlink:href="#aK" overflow="visible"/></clipPath><path clip-path="url(#aL)" fill="none" stroke="#D35400" stroke-width="1.258" stroke-miterlimit="10" d="M1986.051.942v616.491"/></g><g opacity=".2"><defs><path id="aM" d="M1948.775.942h1.258v616.491h-1.258z"/></defs><clipPath id="aN"><use xlink:href="#aM" overflow="visible"/></clipPath><path clip-path="url(#aN)" fill="none" stroke="#D35400" stroke-width="1.258" stroke-miterlimit="10" d="M1949.404.942v616.491"/></g><g opacity=".2"><defs><path id="aO" d="M2022.071.942h1.255v616.491h-1.255z"/></defs><clipPath id="aP"><use xlink:href="#aO" overflow="visible"/></clipPath><path clip-path="url(#aP)" fill="none" stroke="#D35400" stroke-width="1.258" stroke-miterlimit="10" d="M2022.698.942v616.491"/></g><g opacity=".2"><defs><path id="aQ" d="M2131.098.942h1.255v616.492h-1.255z"/></defs><clipPath id="aR"><use xlink:href="#aQ" overflow="visible"/></clipPath><path clip-path="url(#aR)" fill="none" stroke="#D35400" stroke-width="1.258" stroke-miterlimit="10" d="M2131.726.942v616.492"/></g><g opacity=".2"><defs><path id="aS" d="M2094.45 124.58h1.258v492.853h-1.258z"/></defs><clipPath id="aT"><use xlink:href="#aS" overflow="visible"/></clipPath><path clip-path="url(#aT)" fill="none" stroke="#D35400" stroke-width="1.258" stroke-miterlimit="10" d="M2095.079 124.58v492.853"/></g><g opacity=".2"><defs><path id="aU" d="M2167.745.942H2169v616.491h-1.255z"/></defs><clipPath id="aV"><use xlink:href="#aU" overflow="visible"/></clipPath><path clip-path="url(#aV)" fill="none" stroke="#D35400" stroke-width="1.258" stroke-miterlimit="10" d="M2168.373.942v616.491"/></g><g opacity=".2"><defs><path id="aW" d="M1767.026 254.662h1.255v362.772h-1.255z"/></defs><clipPath id="aX"><use xlink:href="#aW" overflow="visible"/></clipPath><path clip-path="url(#aX)" fill="none" stroke="#D35400" stroke-width="1.258" stroke-miterlimit="10" d="M1767.655 254.662v362.772"/></g><g opacity=".2"><defs><path id="aY" d="M1116.845 343.745h1.258v273.689h-1.258z"/></defs><clipPath id="aZ"><use xlink:href="#aY" overflow="visible"/></clipPath><path clip-path="url(#aZ)" fill="none" stroke="#D35400" stroke-width="1.258" stroke-miterlimit="10" d="M1117.474 343.745v273.689"/></g><g opacity=".2"><defs><path id="ba" d="M1080.4 378.645h1.254v238.788h-1.254z"/></defs><clipPath id="bb"><use xlink:href="#ba" overflow="visible"/></clipPath><path clip-path="url(#bb)" fill="none" stroke="#D35400" stroke-width="1.258" stroke-miterlimit="10" d="M1081.026 378.645v238.788"/></g><g opacity=".2"><defs><path id="bc" d="M1044.266 391.873h1.255v225.561h-1.255z"/></defs><clipPath id="bd"><use xlink:href="#bc" overflow="visible"/></clipPath><path clip-path="url(#bd)" fill="none" stroke="#D35400" stroke-width="1.258" stroke-miterlimit="10" d="M1044.893 391.873v225.561"/></g><g opacity=".2"><defs><path id="be" d="M485.55 391.873h1.255v225.561h-1.255z"/></defs><clipPath id="bf"><use xlink:href="#be" overflow="visible"/></clipPath><path clip-path="url(#bf)" fill="none" stroke="#D35400" stroke-width="1.258" stroke-miterlimit="10" d="M486.178 391.873v225.561"/></g><g opacity=".2"><defs><path id="bg" d="M1007.847 487.701h1.258v129.732h-1.258z"/></defs><clipPath id="bh"><use xlink:href="#bg" overflow="visible"/></clipPath><path clip-path="url(#bh)" fill="none" stroke="#D35400" stroke-width="1.258" stroke-miterlimit="10" d="M1008.476 487.701v129.732"/></g><g opacity=".2"><defs><path id="bi" d="M302.32 487.701h1.258v129.732h-1.258z"/></defs><clipPath id="bj"><use xlink:href="#bi" overflow="visible"/></clipPath><path clip-path="url(#bj)" fill="none" stroke="#D35400" stroke-width="1.258" stroke-miterlimit="10" d="M302.949 487.701v129.732"/></g><g opacity=".2"><defs><path id="bk" d="M447.232 487.701h1.258v129.732h-1.258z"/></defs><clipPath id="bl"><use xlink:href="#bk" overflow="visible"/></clipPath><path clip-path="url(#bl)" fill="none" stroke="#D35400" stroke-width="1.258" stroke-miterlimit="10" d="M447.861 487.701v129.732"/></g><g opacity=".2"><defs><path id="bm" d="M276.496 487.701h1.258v129.732h-1.258z"/></defs><clipPath id="bn"><use xlink:href="#bm" overflow="visible"/></clipPath><path clip-path="url(#bn)" fill="none" stroke="#D35400" stroke-width="1.258" stroke-miterlimit="10" d="M277.125 487.701v129.732"/></g><g opacity=".2"><defs><path id="bo" d="M191.978 487.701h1.258v129.732h-1.258z"/></defs><clipPath id="bp"><use xlink:href="#bo" overflow="visible"/></clipPath><path clip-path="url(#bp)" fill="none" stroke="#D35400" stroke-width="1.258" stroke-miterlimit="10" d="M192.607 487.701v129.732"/></g><g opacity=".2"><defs><path id="bq" d="M122.242 487.701h1.258v129.732h-1.258z"/></defs><clipPath id="br"><use xlink:href="#bq" overflow="visible"/></clipPath><path clip-path="url(#br)" fill="none" stroke="#D35400" stroke-width="1.258" stroke-miterlimit="10" d="M122.871 487.701v129.732"/></g><g opacity=".2"><defs><path id="bs" d="M986.944.942h1.255v97.677h-1.255z"/></defs><clipPath id="bt"><use xlink:href="#bs" overflow="visible"/></clipPath><path clip-path="url(#bt)" fill="none" stroke="#D35400" stroke-width="1.258" stroke-miterlimit="10" d="M987.57.942v97.677"/></g><g opacity=".2"><defs><path id="bu" d="M935.489 395.726h1.26v221.708h-1.26z"/></defs><clipPath id="bv"><use xlink:href="#bu" overflow="visible"/></clipPath><path clip-path="url(#bv)" fill="none" stroke="#D35400" stroke-width="1.258" stroke-miterlimit="10" d="M936.123 395.726v221.708"/></g><g opacity=".2"><defs><path id="bw" d="M899.05 342.358h1.245v275.075h-1.245z"/></defs><clipPath id="bx"><use xlink:href="#bw" overflow="visible"/></clipPath><path clip-path="url(#bx)" fill="none" stroke="#D35400" stroke-width="1.258" stroke-miterlimit="10" d="M899.675 342.358v275.075"/></g><g opacity=".2"><defs><path id="by" d="M862.719 378.645h1.248v238.788h-1.248z"/></defs><clipPath id="bz"><use xlink:href="#by" overflow="visible"/></clipPath><path clip-path="url(#bz)" fill="none" stroke="#D35400" stroke-width="1.258" stroke-miterlimit="10" d="M863.343 378.645v238.788"/></g><g opacity=".2"><defs><path id="bA" d="M826.387 263.284h1.247v354.15h-1.247z"/></defs><clipPath id="bB"><use xlink:href="#bA" overflow="visible"/></clipPath><path clip-path="url(#bB)" fill="none" stroke="#D35400" stroke-width="1.258" stroke-miterlimit="10" d="M827.011 263.284v354.15"/></g><g opacity=".2"><defs><path id="bC" d="M808.376 342.358h1.247v275.076h-1.247z"/></defs><clipPath id="bD"><use xlink:href="#bC" overflow="visible"/></clipPath><path clip-path="url(#bD)" fill="none" stroke="#D35400" stroke-width="1.258" stroke-miterlimit="10" d="M808.999 342.358v275.076"/></g><g opacity=".2"><defs><path id="bE" d="M753.724 524.083h1.247v93.351h-1.247z"/></defs><clipPath id="bF"><use xlink:href="#bE" overflow="visible"/></clipPath><path clip-path="url(#bF)" fill="none" stroke="#D35400" stroke-width="1.258" stroke-miterlimit="10" d="M754.347 524.083v93.351"/></g><g opacity=".2"><defs><path id="bG" d="M2152 524.083h1.247v93.351H2152z"/></defs><clipPath id="bH"><use xlink:href="#bG" overflow="visible"/></clipPath><path clip-path="url(#bH)" fill="none" stroke="#D35400" stroke-width="1.258" stroke-miterlimit="10" d="M2152.623 524.083v93.351"/></g><g opacity=".2"><defs><path id="bI" d="M717.378 343.077h1.26v274.358h-1.26z"/></defs><clipPath id="bJ"><use xlink:href="#bI" overflow="visible"/></clipPath><path clip-path="url(#bJ)" fill="none" stroke="#D35400" stroke-width="1.258" stroke-miterlimit="10" d="M718.007 343.077v274.357"/></g><g opacity=".2"><defs><path id="bK" d="M1858.07 343.077h1.26v274.358h-1.26z"/></defs><clipPath id="bL"><use xlink:href="#bK" overflow="visible"/></clipPath><path clip-path="url(#bL)" fill="none" stroke="#D35400" stroke-width="1.258" stroke-miterlimit="10" d="M1858.699 343.077v274.357"/></g><g opacity=".2"><defs><path id="bM" d="M2003.745 343.077h1.26v274.358h-1.26z"/></defs><clipPath id="bN"><use xlink:href="#bM" overflow="visible"/></clipPath><path clip-path="url(#bN)" fill="none" stroke="#D35400" stroke-width="1.258" stroke-miterlimit="10" d="M2004.373 343.077v274.357"/></g><g opacity=".2"><defs><path id="bO" d="M681.047 342.358h1.26v275.076h-1.26z"/></defs><clipPath id="bP"><use xlink:href="#bO" overflow="visible"/></clipPath><path clip-path="url(#bP)" fill="none" stroke="#D35400" stroke-width="1.258" stroke-miterlimit="10" d="M681.676 342.358v275.076"/></g><g opacity=".2"><defs><path id="bQ" d="M772.32 378.645h1.26v237.419h-1.26z"/></defs><clipPath id="bR"><use xlink:href="#bQ" overflow="visible"/></clipPath><path clip-path="url(#bR)" fill="none" stroke="#D35400" stroke-width="1.258" stroke-miterlimit="10" d="M772.948 378.645v237.419"/></g><g opacity=".2"><defs><path id="bS" d="M699.457 334.307h1.244v283.127h-1.244z"/></defs><clipPath id="bT"><use xlink:href="#bS" overflow="visible"/></clipPath><path clip-path="url(#bT)" fill="none" stroke="#D35400" stroke-width="1.258" stroke-miterlimit="10" d="M700.078 334.307v283.127"/></g><g opacity=".2"><defs><path id="bU" d="M644.713.942h1.26v412.656h-1.26z"/></defs><clipPath id="bV"><use xlink:href="#bU" overflow="visible"/></clipPath><path clip-path="url(#bV)" fill="none" stroke="#D35400" stroke-width="1.258" stroke-miterlimit="10" d="M645.339.942v412.657"/></g><g opacity=".2"><defs><path id="bW" d="M608.381 160.853h1.26V540.78h-1.26z"/></defs><clipPath id="bX"><use xlink:href="#bW" overflow="visible"/></clipPath><path clip-path="url(#bX)" fill="none" stroke="#D35400" stroke-width="1.258" stroke-miterlimit="10" d="M609.009 160.853v379.926"/></g><g opacity=".2"><defs><path id="bY" d="M571.924 196.708h1.247v420.726h-1.247z"/></defs><clipPath id="bZ"><use xlink:href="#bY" overflow="visible"/></clipPath><path clip-path="url(#bZ)" fill="none" stroke="#D35400" stroke-width="1.258" stroke-miterlimit="10" d="M572.548 196.708v420.726"/></g><path fill="#D35400" d="M640.219 418.736c2.823 2.834 7.408 2.834 10.263 0 2.83-2.85 2.83-7.447 0-10.27-2.836-2.844-7.44-2.844-10.263 0-2.861 2.842-2.839 7.42 0 10.27m5.126-8.774l3.632 3.636-3.632 3.626-3.634-3.626 3.634-3.636z"/><path fill="#879191" d="M2023.847 380.425a1.628 1.628 0 1 1-2.297-2.301 1.628 1.628 0 0 1 2.297 2.301M1300.661 416.642a1.628 1.628 0 0 1-2.3 0 1.626 1.626 0 1 1 2.3 0M828.141 453.003a1.627 1.627 0 1 1-2.304-2.298 1.627 1.627 0 0 1 2.304 2.298"/><path fill="#D35400" d="M897.106 563.959a3.633 3.633 0 0 0 5.132 0 3.633 3.633 0 0 0 0-5.137 3.617 3.617 0 0 0-5.132 0 3.637 3.637 0 0 0 0 5.137M1834.88 420.628c2.823 2.838 7.409 2.838 10.264 0 2.828-2.848 2.828-7.444 0-10.268-2.839-2.846-7.441-2.846-10.264 0-2.86 2.843-2.839 7.42 0 10.268m5.127-8.774l3.631 3.636-3.631 3.628-3.636-3.628 3.636-3.636z"/><path fill="#F1C40F" d="M1190.101 58.259c3.477-.011 6.279-2.826 6.279-6.28l-12.534.011c-.022 3.454 2.785 6.245 6.255 6.269M1299.128 566.049c3.477-.011 6.279-2.826 6.279-6.28l-12.535.011c-.021 3.454 2.785 6.245 6.256 6.269M2023.314 492.609c3.477-.011 6.279-2.826 6.279-6.28l-12.535.011c-.021 3.454 2.786 6.245 6.256 6.269M1627.124 93.697c3.477-.011 6.279-2.826 6.279-6.28l-12.535.011c-.022 3.454 2.785 6.245 6.256 6.269"/><g opacity=".2"><defs><path id="ca" d="M-34.999 124.58h753.638v1.258H-34.999z"/></defs><clipPath id="cb"><use xlink:href="#ca" overflow="visible"/></clipPath><path clip-path="url(#cb)" fill="none" stroke="#D35400" stroke-width="1.258" stroke-miterlimit="10" d="M718.639 125.209H-34.999"/></g><g opacity=".2"><defs><path id="cc" d="M-34.999 160.853H727.89v1.258H-34.999z"/></defs><clipPath id="cd"><use xlink:href="#cc" overflow="visible"/></clipPath><path clip-path="url(#cd)" fill="none" stroke="#D35400" stroke-width="1.258" stroke-miterlimit="10" d="M727.891 161.482h-762.89"/></g><g opacity=".2"><defs><path id="ce" d="M-35 233.538h652.724v1.258H-35z"/></defs><clipPath id="cf"><use xlink:href="#ce" overflow="visible"/></clipPath><path clip-path="url(#cf)" fill="none" stroke="#D35400" stroke-width="1.258" stroke-miterlimit="10" d="M617.724 234.167H-35"/></g><g opacity=".2"><defs><path id="cg" d="M1261.864 270.061h949.144v1.258h-949.144z"/></defs><clipPath id="ch"><use xlink:href="#cg" overflow="visible"/></clipPath><path clip-path="url(#ch)" fill="none" stroke="#D35400" stroke-width="1.258" stroke-miterlimit="10" d="M2211.008 270.69h-949.144"/></g><g opacity=".2"><defs><path id="ci" d="M717.378.942h1.26v51.611h-1.26z"/></defs><clipPath id="cj"><use xlink:href="#ci" overflow="visible"/></clipPath><path clip-path="url(#cj)" fill="none" stroke="#D35400" stroke-width="1.258" stroke-miterlimit="10" d="M718.007.942v51.611"/></g><path fill="#879191" d="M900.822 90.086a1.627 1.627 0 0 1-2.302-2.301 1.63 1.63 0 0 1 2.301 0c.638.634.638 1.664.001 2.301M664.93 90.079a1.627 1.627 0 1 1-2.298-2.298 1.627 1.627 0 0 1 2.298 2.298"/><path fill="#D35400" d="M642.775 55.127a3.636 3.636 0 0 0 5.132 0 3.628 3.628 0 0 0 0-5.137 3.613 3.613 0 0 0-5.132 0c-1.425 1.423-1.409 3.711 0 5.137M299.755 127.783a3.636 3.636 0 0 0 5.132 0 3.628 3.628 0 0 0 0-5.137 3.613 3.613 0 0 0-5.132 0c-1.425 1.423-1.409 3.711 0 5.137"/><path fill="#947D65" d="M806.215 49.824a3.934 3.934 0 0 0 0 5.565 3.936 3.936 0 1 0 5.571-5.565 3.938 3.938 0 0 0-5.571 0"/><g opacity=".2"><defs><path id="ck" d="M663.152.942h1.258v160.48h-1.258z"/></defs><clipPath id="cl"><use xlink:href="#ck" overflow="visible"/></clipPath><path clip-path="url(#cl)" fill="none" stroke="#D35400" stroke-width="1.258" stroke-miterlimit="10" d="M663.781.942v160.481"/></g><g opacity=".2"><defs><path id="cm" d="M1699.214.942h1.258v160.48h-1.258z"/></defs><clipPath id="cn"><use xlink:href="#cm" overflow="visible"/></clipPath><path clip-path="url(#cn)" fill="none" stroke="#D35400" stroke-width="1.258" stroke-miterlimit="10" d="M1699.843.942v160.481"/></g><g opacity=".2"><defs><path id="co" d="M1007.847 506.293h1203.152v1.26H1007.847z"/></defs><clipPath id="cp"><use xlink:href="#co" overflow="visible"/></clipPath><path clip-path="url(#cp)" fill="none" stroke="#D35400" stroke-width="1.258" stroke-miterlimit="10" d="M2210.999 506.922H1007.847"/></g><g opacity=".2"><defs><path id="cq" d="M955.626 378.644h1.26v238.789h-1.26z"/></defs><clipPath id="cr"><use xlink:href="#cq" overflow="visible"/></clipPath><path clip-path="url(#cr)" fill="none" stroke="#D35400" stroke-width="1.258" stroke-miterlimit="10" d="M956.257 617.433V378.644"/></g><g opacity=".2"><defs><path id="cs" d="M808.375.942h1.247v88.617h-1.247z"/></defs><clipPath id="ct"><use xlink:href="#cs" overflow="visible"/></clipPath><path clip-path="url(#ct)" fill="none" stroke="#D35400" stroke-width="1.258" stroke-miterlimit="10" d="M808.999.942v88.617"/></g><g opacity=".2"><defs><path id="cu" d="M321.753.942H323v88.617h-1.247z"/></defs><clipPath id="cv"><use xlink:href="#cu" overflow="visible"/></clipPath><path clip-path="url(#cv)" fill="none" stroke="#D35400" stroke-width="1.258" stroke-miterlimit="10" d="M322.377.942v88.617"/></g><g opacity=".2"><defs><path id="cw" d="M122.871.942h1.247v88.617h-1.247z"/></defs><clipPath id="cx"><use xlink:href="#cw" overflow="visible"/></clipPath><path clip-path="url(#cx)" fill="none" stroke="#D35400" stroke-width="1.258" stroke-miterlimit="10" d="M123.495.942v88.617"/></g><g opacity=".2"><defs><path id="cy" d="M1009.162.942h1.255v52.295h-1.255z"/></defs><clipPath id="cz"><use xlink:href="#cy" overflow="visible"/></clipPath><path clip-path="url(#cz)" fill="none" stroke="#D35400" stroke-width="1.258" stroke-miterlimit="10" d="M1009.788.942v52.295"/></g><path fill="#879191" d="M1082.176 562.243a1.626 1.626 0 1 1-2.298-2.3 1.626 1.626 0 0 1 2.298 2.3M215.804 126.527a1.626 1.626 0 1 1-2.298-2.3 1.626 1.626 0 0 1 2.298 2.3M106.777 489.48a1.626 1.626 0 1 1-2.298-2.3 1.626 1.626 0 0 1 2.298 2.3"/><g opacity=".2"><defs><path id="cA" d="M1189.484.942h1.258v415.977h-1.258z"/></defs><clipPath id="cB"><use xlink:href="#cA" overflow="visible"/></clipPath><path clip-path="url(#cB)" fill="none" stroke="#D35400" stroke-width="1.258" stroke-miterlimit="10" d="M1190.113.942v415.977"/></g><g opacity=".2"><defs><path id="cC" d="M1080.4.942h1.254v235.417h-1.254z"/></defs><clipPath id="cD"><use xlink:href="#cC" overflow="visible"/></clipPath><path clip-path="url(#cD)" fill="none" stroke="#D35400" stroke-width="1.258" stroke-miterlimit="10" d="M1081.026.942V236.36"/></g><g opacity=".2"><defs><path id="cE" d="M935.488.942h1.26V149.76h-1.26z"/></defs><clipPath id="cF"><use xlink:href="#cE" overflow="visible"/></clipPath><path clip-path="url(#cF)" fill="none" stroke="#D35400" stroke-width="1.258" stroke-miterlimit="10" d="M936.122.942V149.76"/></g><g opacity=".2"><defs><path id="cG" d="M965.061-7.868h1.248v154.921h-1.248z"/></defs><clipPath id="cH"><use xlink:href="#cG" overflow="visible"/></clipPath><path clip-path="url(#cH)" fill="none" stroke="#D35400" stroke-width="1.258" stroke-miterlimit="10" d="M965.684-7.868v708.1"/></g><g opacity=".2"><defs><path id="cI" d="M192.607.942h1.258v415.977h-1.258z"/></defs><clipPath id="cJ"><use xlink:href="#cI" overflow="visible"/></clipPath><path clip-path="url(#cJ)" fill="none" stroke="#D35400" stroke-width="1.258" stroke-miterlimit="10" d="M193.236.942v415.977"/></g><g opacity=".2"><defs><path id="cK" d="M301.696.942h1.254v235.417h-1.254z"/></defs><clipPath id="cL"><use xlink:href="#cK" overflow="visible"/></clipPath><path clip-path="url(#cL)" fill="none" stroke="#D35400" stroke-width="1.258" stroke-miterlimit="10" d="M302.323.942V236.36"/></g><g opacity=".2"><defs><path id="cM" d="M446.601.942h1.26v160.332h-1.26z"/></defs><clipPath id="cN"><use xlink:href="#cM" overflow="visible"/></clipPath><path clip-path="url(#cN)" fill="none" stroke="#D35400" stroke-width="1.258" stroke-miterlimit="10" d="M447.227.942v160.332"/></g><g opacity=".2"><defs><path id="cO" d="M417.04-7.868h1.248v154.921h-1.248z"/></defs><clipPath id="cP"><use xlink:href="#cO" overflow="visible"/></clipPath><path clip-path="url(#cP)" fill="none" stroke="#D35400" stroke-width="1.258" stroke-miterlimit="10" d="M417.664-7.868v708.1"/></g><path fill="#947D65" d="M1623.724 376.491a3.934 3.934 0 0 0 0 5.565 3.936 3.936 0 1 0 5.571-5.565 3.94 3.94 0 0 0-5.571 0"/><path fill="#007280" d="M1483.227 591.822l-.006 3.709h3.722v3.529h-3.722v3.711h-3.513v-3.711h-3.73v-3.529h3.73l-.005-3.709z"/><path fill="#979594" d="M1335.808 59.094l6.308-6.279-6.308-6.315-6.297 6.315z"/><path fill="#007280" d="M1769.793 482.951l-.006 3.709h3.722v3.529h-3.722v3.711h-3.513v-3.711h-3.73v-3.529h3.73l-.005-3.709z"/><path fill="#979594" d="M1481.455 350.325l6.482-6.451-6.482-6.489-6.47 6.489zM251.923 458.324l6.482-6.452-6.482-6.488-6.47 6.488zM2095.529 277.159l6.482-6.451-6.482-6.488-6.47 6.488z"/><path fill="#F1C40F" d="M700.69 566.711c3.384-.01 6.111-2.75 6.111-6.112l-12.199.01c-.021 3.362 2.711 6.078 6.088 6.102M573.159 348.47c3.384-.01 6.111-2.75 6.111-6.112l-12.199.01c-.021 3.362 2.711 6.079 6.088 6.102M105.616 203.237c3.384-.01 6.111-2.75 6.111-6.112l-12.199.01c-.021 3.363 2.711 6.079 6.088 6.102"/><path fill="#D35400" d="M1405.592 127.79a3.533 3.533 0 1 0 4.995-5 3.516 3.516 0 0 0-4.995 0c-1.388 1.385-1.369 3.612 0 5M1875.153 272.566a3.533 3.533 0 1 0 4.995-5 3.516 3.516 0 0 0-4.995 0c-1.388 1.385-1.37 3.612 0 5M2092.58 127.085a3.533 3.533 0 1 0 4.995-5 3.516 3.516 0 0 0-4.995 0c-1.388 1.386-1.37 3.612 0 5"/><path fill="#879191" d="M1841.526 90.081a1.628 1.628 0 1 1-2.297-2.301 1.628 1.628 0 0 1 2.297 2.301"/><path fill="#007280" d="M937.775 120.057l-.006 3.609h3.622v3.435h-3.622v3.612h-3.419v-3.612h-3.63v-3.435h3.63l-.005-3.609zM194.955 47.28l-.005 3.609h3.621v3.435h-3.621v3.612h-3.42v-3.612h-3.63v-3.435h3.63l-.005-3.609z"/><path fill="#D35400" d="M300.382 564.478a3.636 3.636 0 0 0 5.132 0 3.628 3.628 0 0 0 0-5.137 3.613 3.613 0 0 0-5.132 0c-1.425 1.423-1.409 3.711 0 5.137"/><path fill="#879191" d="M448.38 125.731a1.626 1.626 0 1 1-2.298-2.3 1.626 1.626 0 0 1 2.298 2.3"/></svg>